<?xml version="1.0" encoding="UTF-8"?>
<svg id="Layer_1" xmlns="http://www.w3.org/2000/svg" version="1.1" viewBox="0 0 283.751 283.75">
  <!-- Generator: Adobe Illustrator 30.4.0, SVG Export Plug-In . SVG Version: 2.1.4 Build 226)  -->
  <path d="M141.875,0C63.645,0,0,63.645,0,141.875s63.645,141.875,141.875,141.875,141.876-63.645,141.876-141.875S220.106,0,141.875,0ZM141.875,277.965c-75.04,0-136.089-61.05-136.089-136.09S66.835,5.785,141.875,5.785s136.09,61.049,136.09,136.09-61.05,136.09-136.09,136.09Z" style="fill: #fff;"/>
  <path d="M94.434,206.564c5.873,0,10.651-4.778,10.651-10.652s-4.778-10.651-10.651-10.651-10.652,4.778-10.652,10.651,4.779,10.652,10.652,10.652ZM89.876,195.912c0-2.513,2.045-4.558,4.559-4.558s4.557,2.045,4.557,4.558-2.044,4.559-4.557,4.559c-2.515-.001-4.559-2.045-4.559-4.559Z" style="fill: #fff;"/>
  <path d="M226.487,167.859h-33.316l28.353-17.521c3.619-2.253,4.747-7.038,2.514-10.67l-21.352-34.547c-1.43-2.298-3.897-3.669-6.601-3.669-1.433,0-2.84.399-4.07,1.156l-29.706,18.372c-.022.013-.047.02-.069.034l-3.85,2.381,1.883-4.125s.001-.005.002-.007l14.536-31.821c.863-1.887.938-3.996.208-5.938-.727-1.934-2.164-3.473-4.049-4.335l-36.919-16.859c-1.022-.468-2.108-.706-3.229-.706-3.037,0-5.803,1.78-7.043,4.53l-1.297,2.84v-3.12c0-4.273-3.476-7.749-7.749-7.749h-40.604c-4.272,0-7.749,3.476-7.749,7.749v144.979c0,4.153,3.287,7.545,7.395,7.731.187,4.108,3.585,7.396,7.747,7.396h5.955l.05.081c1.418,2.306,3.883,3.683,6.593,3.683,1.433,0,2.839-.399,4.071-1.157l4.204-2.606h124.09c4.281,0,7.764-3.477,7.764-7.749v-40.603c.002-4.273-3.48-7.75-7.762-7.75ZM91.949,219.602c-.104-.218-.225-.428-.379-.617l-1.43-2.312,7.17,3.274-2.318,1.435c-.739.452-1.822.198-2.275-.537l-.768-1.243ZM116.388,80.976v14.448h-43.914v-31.57c0-.913.743-1.656,1.655-1.656h40.603c.913,0,1.656.743,1.656,1.656v17.122ZM122.481,202.024l16.821-36.819,12.873,20.825-29.694,18.351s0-2.357,0-2.357ZM122.481,177.925c0-.015.004-.029.004-.043s-.004-.029-.004-.043v-28.827l14.488,6.615-.846,1.853c-.007.015-.008.031-.015.046l-5.795,12.69-7.833,17.143v-9.434h0ZM105.048,216.773c-.065-.03-.132-.059-.199-.084l-.235-.107h4.518l-.099.217c-.165.364-.499.663-.917.821-.428.161-.892.155-1.264-.015l-1.804-.832ZM166.599,177.117l-9.24,5.71-15.012-24.286,11.494-25.159,9.017-5.577,23.088,37.346-19.347,11.966ZM116.388,135.129h-43.914v-33.612h43.914v33.612ZM116.388,141.223v33.611h-43.914v-33.612h43.914ZM115.863,216.501c.029-.004.055-.013.084-.018.265-.042.526-.096.783-.165.111-.029.218-.066.327-.1.145-.046.289-.096.431-.15.088-.033.18-.056.267-.093.421-.177.815-.403,1.195-.65.031-.02.062-.041.093-.062.509-.341.974-.742,1.39-1.198.005-.005.01-.011.014-.016.338-.372.651-.769.915-1.209.052-.087.091-.183.14-.272.051-.093.098-.188.146-.283.056-.112.121-.217.172-.333l26.927-16.637v22.55h-33.506l.622-1.364ZM154.84,191.552l28.477-17.6h5.136v43.914h-33.612v-26.314h-.001ZM218.313,145.158l-27.18,16.797-23.092-37.354,27.175-16.807c.741-.455,1.834-.196,2.291.539l21.344,34.532c.479.781.236,1.811-.538,2.293ZM148.696,129.953c-.01.02-.023.038-.032.059l-9.164,20.071-14.427-6.587-2.592-1.184v-4.093c0-.015.004-.029.004-.043s-.004-.029-.004-.043v-32.771l30.981,14.15-4.766,10.441ZM169.27,84.908l-13.275,29.061-33.513-15.306v-.149c0-.015.004-.029.004-.043s-.004-.029-.004-.043v-16.789l6.844-14.985c.167-.369.502-.671.922-.828.424-.159.887-.149,1.271.026l36.918,16.858c.409.188.722.521.878.937.154.411.138.859-.045,1.261ZM116.388,180.928v27.905c0,.074-.005.136-.011.186-.006.05-.014.088-.022.115,0,.001,0,.003,0,.004-.009.033-.017.068-.025.102-.028.107-.084.198-.13.294-.036.074-.062.156-.107.223-.052.076-.121.134-.184.2-.06.063-.112.135-.181.188-.076.058-.165.093-.25.137-.072.038-.137.087-.214.114-.168.058-.346.091-.531.091h-40.602c-.913,0-1.655-.742-1.655-1.655v-27.904h43.913ZM82.919,216.582l.794,1.285h-2.189c-.793,0-1.459-.55-1.629-1.285h3.024ZM194.546,173.953h31.941c.921,0,1.67.742,1.67,1.655v40.603c0,.913-.749,1.656-1.67,1.656h-31.941v-43.914Z" style="fill: #fff;"/>
</svg>