<?xml version="1.0" encoding="UTF-8" standalone="no"?>
<!-- Generator: Adobe Illustrator 30.0.0, SVG Export Plug-In . SVG Version: 9.03 Build 0)  -->

<svg
   version="1.1"
   id="Layer_1"
   x="0px"
   y="0px"
   viewBox="0 0 82944 82944"
   xml:space="preserve"
   sodipodi:docname="Gum_Acacia_Circle_Icon.svg"
   width="82944"
   height="82944"
   xmlns:inkscape="http://www.inkscape.org/namespaces/inkscape"
   xmlns:sodipodi="http://sodipodi.sourceforge.net/DTD/sodipodi-0.dtd"
   xmlns="http://www.w3.org/2000/svg"
   xmlns:svg="http://www.w3.org/2000/svg"><defs
   id="defs2" /><sodipodi:namedview
   id="namedview2"
   pagecolor="#ffffff"
   bordercolor="#000000"
   borderopacity="0.25"
   inkscape:showpageshadow="2"
   inkscape:pageopacity="0.0"
   inkscape:pagecheckerboard="0"
   inkscape:deskcolor="#d1d1d1"><inkscape:page
     x="0"
     y="0"
     width="82944"
     height="82944"
     id="page2"
     margin="0"
     bleed="0" /></sodipodi:namedview>

<g
   id="g3"
   transform="translate(10.145454,7.2)"><rect
     style="display:none;fill:#000000"
     id="rect2"
     width="268.36362"
     height="268.69095"
     x="1.3090906"
     y="-0.65454543"
     ry="134.34547"
     rx="0" /><path
     style="fill:#ffffff;stroke-width:0.918406"
     d="m 254.30977,116.23382 c -0.98094,-0.32706 -0.93248,-2.18415 -2.57397,-1.53098 -1.33634,-1.72833 1.61726,-1.67194 0,-3.82132 -0.98094,1.43417 -1.29416,0.0818 -2.57576,0 -0.57887,-0.16071 -0.80144,-0.85054 -1.0303,-1.52909 -0.13372,-1.18982 -1.13082,-0.52912 -1.54546,0 0.0269,-0.97836 0.65785,-1.05824 0.51516,-2.29223 v -0.76596 c -0.6067,0.1203 -1.46199,-0.13157 -1.54636,0.76596 -1.02312,-0.0113 -0.65336,-2.08735 -2.0615,-1.53097 0,-0.76502 0.41822,-0.90881 0.51605,-1.52722 0.43707,1.64845 3.28297,-0.28664 3.60606,1.52722 1.66751,0.94546 0.39399,-2.47268 2.05971,-1.52722 0.0296,0.46521 0.0781,0.90505 0.51426,0.76314 3.08373,-3.95948 2.78576,-0.62592 2.0615,-6.11355 -1.36775,-0.015 -3.03437,0.42198 -3.09001,-1.53098 1.57238,-0.55261 1.87752,0.78288 3.09001,0.76408 v -0.76408 c -1.29237,0.1297 -1.61366,-1.173842 -2.0615,-2.294112 -1.57238,0.55262 -1.87573,-0.78099 -3.08822,-0.76407 h -1.54636 c -0.26655,-2.51873 -0.76914,-3.81945 0,-5.35042 0.39938,0.17011 1.01684,0.0216 1.03031,0.76408 h 2.05971 c -5.23319,-6.99323 -11.7408,-11.62468 -18.33546,-14.55035 -2.19703,-0.525362 -4.39315,-1.01501 -6.64851,-1.194516 -1.02851,-0.538519 -2.56948,1.077038 -3.60068,0.538519 -1.02761,-1.077038 -2.05612,-1.615557 -3.59889,-1.615557 0,-0.764077 0,-1.527213 0,-2.29129 -2.6314,0.6419 -5.28165,-1.982088 -7.98575,-3.059126 -0.36976,0.07707 -0.44784,0.584571 -0.47387,1.17384 l -1.45122,0.133455 c -0.28988,-1.476463 -0.6749,-2.407828 -0.57977,-3.317577 -2.55512,-0.529121 -4.77278,-1.516876 -5.96194,-5.561876 0,0 -2.05791,0.540398 -2.05791,0 -4.11494,-7.000746 -10.2842,-3.230174 -15.9392,-1.614617 0,-0.538519 0,-1.615557 0,-2.155956 -0.51336,0 -0.51336,0.540399 -1.02851,0.540399 0,-1.616497 0,-2.693534 0,-4.306272 -1.02761,1.612738 -2.57037,2.689775 -4.62829,3.766813 0,-1.077038 0,-1.612737 0,-2.689775 -0.9603,0.401305 -2.06509,-0.09868 -3.12771,-1.050723 -1.68366,-0.418221 -3.40862,-1.282859 -5.1237,-1.664427 -0.59412,0.15695 -0.36617,1.153163 -0.39847,1.885286 -0.0296,0 -0.0557,0.0056 -0.0862,0.0056 -1.46379,-0.0038 -2.92039,-0.0874 -4.35456,-0.277248 -0.009,-0.01128 -0.018,-0.02162 -0.026,-0.03289 -0.2504,-0.361832 -0.39668,-0.644719 -0.6408,-0.346795 0,0 0,0.0038 -0.002,0.0038 -0.0386,0.05075 -0.0826,0.115599 -0.12744,0.201123 -0.009,0.0141 -0.0188,0.03665 -0.0242,0.05263 -0.53579,-0.08552 -1.06799,-0.182326 -1.59481,-0.300744 -1.41084,-1.325151 -2.84949,-2.923791 -4.876,-1.653149 -0.16603,-0.07801 -0.33117,-0.153192 -0.4954,-0.237776 0.26296,-0.901291 1.45211,-0.437958 1.50058,-1.660668 -1.45661,0.138154 -1.20083,-2.87586 -2.57756,-0.765956 h -0.51335 c -0.94864,-2.160655 -4.09878,-1.047904 -4.12032,-4.588219 h -0.51336 c -3.31618,0.846781 -3.59709,-2.811952 -6.69608,-2.29223 h -0.51515 c -1.82637,-0.344915 -2.3828,-2.580755 -4.11942,-3.058186 -0.0628,1.689803 -2.18356,0.327059 -3.09001,0.765017 -0.43707,0.140033 -0.48464,-0.297925 -0.51605,-0.765017 -1.58585,-0.53476 -0.98813,-0.53476 -2.57397,0 -0.72965,0.06579 -1.4584,0.127816 -1.54545,-0.764076 -0.80684,0.892832 -3.99288,-3.182243 -4.63458,0 h -0.51425 c 0.83286,-2.282832 -3.6294,-4.036543 -6.17913,-2.29223 h -0.51605 c -0.98094,-2.976422 -1.40455,1.015009 -3.60606,-0.765017 -1.44494,0.01128 1.22864,2.083589 -1.03031,1.529093 -0.27552,1.100534 2.00766,1.86555 0.51605,2.29223 h -0.51605 c 0.25489,-1.003731 -2.55422,-0.335517 -2.05971,1.529093 -0.72695,-1.420073 -2.76423,-2.042237 -3.08822,0.764077 h -0.51605 c -0.71798,-3.328855 -1.78418,0.563894 -2.57576,1.529093 -0.0969,0.866517 -0.51784,0.4248 -0.51425,0 -0.76555,0.333637 0.20373,0.978356 0,2.293169 -2.79654,-1.765928 -3.64196,0.989634 -6.179133,1.529093 0.10949,-2.249937 -2.30742,-1.609918 -3.090016,0 h -0.516049 c -1.756363,-1.858971 -4.753937,-0.277248 -5.151519,2.29223 -0.831064,0.21522 -0.884913,-0.722724 -1.543661,-0.765016 -1.730336,-0.531001 -1.68636,1.573264 -2.573965,2.294109 h -0.514254 c -0.50169,0.02162 -0.400275,0.936064 -0.51605,1.529093 0.606695,0.120297 1.461093,-0.131575 1.544558,0.765956 -0.501689,0.780994 -1.017739,1.54601 -1.544558,2.29223 -3.957875,0.147552 -4.622905,-0.05169 -9.27094,0.763137 -0.568103,2.470796 -1.637896,4.195372 -4.117625,3.823202 -3.025396,2.861763 -6.951859,2.204826 -9.785195,3.823202 0.583361,2.730188 -2.387289,3.511181 -4.635469,3.058186 0.36258,2.830749 -2.201512,1.317633 -2.573965,3.058186 0.575283,0.16071 0.802344,0.848661 1.028509,1.527214 -0.51605,0.0038 -0.61208,-0.618404 -1.028509,-0.763137 h -0.514255 c -1.319291,3.451032 -5.261011,2.313846 -7.725484,3.821323 v -1.529093 c -1.571482,0.627802 -1.234928,2.149376 -3.089116,0.763136 h -0.51605 c -1.972655,0.379689 -2.93834,2.259336 -4.114933,3.817564 0.820294,3.036571 -0.949531,2.547861 -0.519639,6.887971 -0.675801,-0.10244 -3.725428,-0.11654 -2.05971,0.76314 2.171894,-0.13158 0.351811,1.71142 0,2.29599 2.710381,-0.96708 3.053217,1.58266 5.151519,1.52721 v -0.76408 c 1.491607,0.42856 -0.790678,1.19358 -0.51605,2.29411 h -0.516049 c -0.925299,-2.02908 -3.212071,-1.24244 -4.63547,0 -0.745803,-0.33927 0.05385,-0.67009 0,-1.52909 -4.883173,1.11839 -8.152683,4.64461 -10.299449,3.05631 -0.09244,1.67006 0.421815,2.43414 1.545456,2.29598 -2.296644,1.07328 -2.73192,1.94544 -3.605166,3.82133 h -0.516049 c -0.341042,3.175662 -0.04846,4.449122 2.061505,2.295992 0.414634,-0.40507 0.836449,-0.79979 1.543661,-0.76596 1.076972,-0.3233 1.365063,0.52536 2.05971,0.76596 h 0.514255 c 1.566995,0.76407 0.658748,1.25936 0,2.29223 h 1.54725 c 0.458611,0.5949 1.162233,0.82328 2.058813,0.76407 -0.18129,1.00561 -0.906452,1.20298 -1.030304,2.29411 1.613664,-1.79224 2.8459,-0.17387 3.603371,-2.29411 1.073383,1.65879 1.666616,-0.093 2.577555,-0.76407 0.965685,0.16822 1.737516,4.45852 2.573965,2.29223 h 1.031201 c 0.18129,1.20015 0.906452,-0.66822 1.028509,0.76595 h 0.514254 c 0.02244,0 0.04218,0.006 0.06103,0.008 -0.153469,0.0564 -0.32399,0.0893 -0.531307,0.0677 v 0.66445 c 0.438867,0.006 0.744009,-0.19172 1.043766,-0.39096 0.210907,0.3186 0.329374,0.77535 0.571693,1.04696 -0.489125,0.0752 -1.078767,0 -1.615459,0.004 -0.629131,4.76115 -0.884912,1.87025 1.78598,5.30342 0.377838,0.12218 0.421814,-0.25751 0.446046,-0.66069 1.443144,-0.81953 0.341041,2.1428 1.787775,1.32515 0.27732,-1.57515 2.74628,0.10244 3.122323,-1.32515 0.08347,0.53476 0.447841,0.66069 0.446046,1.32515 -1.217876,-0.48401 -0.899272,1.31763 -1.784184,1.32515 -0.07359,-0.77723 -0.815807,-0.55825 -1.338139,-0.66258 v 0.66258 c -0.129237,1.0714 0.421814,1.14283 0.446046,1.98773 -0.362581,-0.4577 -1.223261,-1.02911 -1.339933,0 -0.198343,0.59115 -0.392198,1.18605 -0.893888,1.32703 -1.110179,0.0733 -1.382115,1.24057 -2.232026,0 -1.402756,1.86273 1.158644,1.81386 0,3.31288 -1.423398,-0.56578 -1.38032,1.04414 -2.232025,1.32703 1.723156,0.69359 0.212702,2.07137 2.232025,1.9896 -0.416429,1.78943 -2.014836,1.18794 -0.446046,2.64937 h 0.446046 v -0.66258 c 2.211384,-3.36081 5.341785,-4.96509 8.036012,-5.966 -1.039279,-1.92194 -2.405239,1.24621 -4.015314,0.66258 0.262064,-1.37403 0.857989,-2.25746 1.784185,-2.64937 -0.612977,2.24806 2.408829,-0.531 4.017108,-1.32515 1.37673,0.66258 -0.96748,1.09208 -0.892092,1.98773 1.730336,0.35807 1.838033,-1.68792 3.124118,-1.98773 h 0.447841 v -0.66445 c 2.729229,-1.77721 4.205579,-3.91625 7.589965,-3.31194 -1.824571,2.41816 -1.254673,2.53094 -3.12681,3.31194 0.186675,1.49056 2.449215,-0.0968 2.232923,1.9896 0.6049,0.11278 0.580668,-3.83824 1.339933,-1.32515 h 0.446047 c 0.03769,-1.05824 2.662815,-3.04221 2.23382,-0.66445 h 0.446047 c 0.27373,-0.58833 0.538486,-1.18606 0,-1.32515 0.812217,0.0273 2.451907,-1.29038 3.571062,-2.65125 1.47635,3.07135 3.658117,4.07884 4.464949,6.62764 2.16651,-0.32706 1.402757,-0.99997 3.571062,-1.32515 -1.498787,-1.72082 -2.910519,-0.39755 -4.018903,-3.31382 -0.433482,0.0188 -0.346427,0.81201 -0.446047,1.32515 -0.765548,-1.73491 -2.529988,-1.98679 -3.125913,-3.97451 0.01346,-0.64754 0.548359,-0.51597 0.893888,-0.66634 0.614772,0.66634 -0.190266,1.0949 0.892092,1.99149 0.930684,-0.37217 0.945941,-1.03475 0.447841,-1.99149 1.327369,0.88156 2.263438,0.68325 3.125913,-0.66069 -0.06821,-1.64939 -1.513146,-0.19549 -1.787774,0 -1.251084,-0.6513 0.647978,-1.76875 -0.446047,-2.65125 0.146289,0.0179 0.283603,0.047 0.421815,0.078 0.244114,0.56013 0.462201,1.15316 0.728751,1.67852 0.09693,-0.44171 0.165136,-0.89753 0.209113,-1.34864 1.941243,0.9464 2.964367,3.26119 3.997363,5.55717 3.997364,6.87951 11.983116,7.83813 17.412851,12.59176 0.43169,0.0188 0.34463,0.81013 0.44605,1.32515 0.54746,-0.28852 0.91542,-0.84678 0.89209,-1.98772 0.36258,0.12687 0.44425,0.66445 0.89209,0.66257 0.0242,1.21519 -2.28587,2.24524 -0.89209,3.31382 -0.12385,1.36086 -1.19185,1.32139 -1.784184,1.98491 0.928884,1.32139 0.01436,2.83262 -0.893887,3.31381 2.786661,2.35426 4.089801,-3.19352 5.357044,-5.29966 1.32109,0.57611 -1.033893,0.99339 -0.447843,2.64936 1.083253,-1.0432 1.976243,-2.37023 2.679873,-3.97639 1.72495,0.90787 2.05612,-1.52909 3.57195,0 5.52218,0.63908 9.37774,3.75459 12.05223,8.6163 0.82119,1.33925 3.14027,5.08727 4.47751,6.90582 1.58405,3.77058 3.239,7.26954 5.07075,10.03732 0.19295,4.09011 0.15167,3.80159 0.51425,7.64265 0.43348,3.9435 1.31032,6.08441 0.45143,10.54482 0,0 0.46759,68.58926 0.17232,70.3035 2.93295,0.0714 5.08151,0.1344 8.03062,0.0987 -0.0476,-0.46239 -0.009,-68.02067 0.10052,-68.71426 -0.18129,-6.12765 1.71957,-9.16986 3.60607,-12.23274 0.28539,-0.53476 0.58695,-1.04697 0.89388,-1.55447 0.0592,-0.1015 0.12206,-0.20112 0.18129,-0.30075 0.29976,-0.48025 0.6067,-0.94734 0.92171,-1.40315 0.0601,-0.0921 0.12565,-0.17857 0.18668,-0.26315 0.29975,-0.42856 0.60759,-0.84772 0.9244,-1.25561 0.0368,-0.047 0.0718,-0.0949 0.11039,-0.14567 0.33386,-0.43044 0.67939,-0.84584 1.02851,-1.25936 0.0853,-0.0968 0.16872,-0.19455 0.25398,-0.29229 0.34194,-0.39378 0.68837,-0.78475 1.04018,-1.1635 0.0754,-0.0808 0.15526,-0.16071 0.23065,-0.24341 0.31232,-0.33082 0.62465,-0.65318 0.94415,-0.97272 0.0826,-0.0837 0.16424,-0.16917 0.2477,-0.25375 0.35002,-0.34868 0.70542,-0.68796 1.06261,-1.02723 0.12386,-0.12124 0.2522,-0.24154 0.37784,-0.35807 0.31861,-0.29887 0.6399,-0.59491 0.9621,-0.88626 0.1786,-0.16447 0.35989,-0.32518 0.54028,-0.48683 0.20283,-0.1842 0.40566,-0.36371 0.61208,-0.54603 2.80372,-2.48584 5.68462,-4.86171 8.32948,-7.5825 0.0278,-0.0263 0.053,-0.0526 0.079,-0.078 0.41105,-0.42292 0.81671,-0.85806 1.21519,-1.29977 0.004,-0.004 0.005,-0.004 0.009,-0.008 0.14988,-0.16823 0.30155,-0.34304 0.45143,-0.51314 0.002,0 0.002,0 0.002,0 l 0.005,-0.008 c 0.61388,-0.70487 1.2116,-1.43793 1.78598,-2.20483 0.0637,-0.0883 0.12924,-0.17575 0.19116,-0.26315 0.2145,-0.28853 0.42451,-0.58363 0.63093,-0.88249 0.0736,-0.1015 0.14629,-0.20864 0.21629,-0.31391 0.26296,-0.39096 0.51875,-0.78099 0.77004,-1.19451 3.08642,-5.60793 7.53163,-9.19899 13.90282,-9.93394 1.74918,-1.76686 2.12971,1.04321 4.12121,0 0.81043,1.85052 1.84252,3.37961 3.09002,4.58634 0.67939,-1.91442 -2.03548,-2.39467 -0.51605,-3.05912 1.46289,2.43132 2.96706,8.82964 6.18003,6.11543 -1.04556,-0.55826 -2.10369,-2.29881 -1.02851,-3.82132 -0.68567,-0.76784 -1.91701,-0.72461 -2.06151,-2.29317 1.60828,-1.23305 -1.05453,-2.42005 -1.02761,-3.82321 0.51336,0.004 0.61118,-0.6184 1.02761,-0.76313 -0.026,1.31387 0.39669,1.95859 1.02941,2.29411 0.11488,-0.59585 0.0161,-1.50936 0.51515,-1.53192 6.26439,-5.48199 15.47341,-6.58722 20.08464,-14.52591 1.44315,-3.2048 2.86475,-6.44907 6.18003,-6.88045 -1.26095,1.01783 0.92889,2.30821 -0.51515,3.05819 -0.31591,-0.22274 -1.98342,-1.90126 -2.06061,0 0.99172,1.54789 2.07318,1.77814 3.60607,0.76314 -0.57708,1.10241 -0.55375,1.86649 0.51605,2.2941 1.24839,-1.03286 0.3186,-1.52721 1.0285,-2.2941 0.39848,0.17386 1.01774,0.0216 1.03121,0.76595 -0.68657,2.29411 -2.72205,2.58452 -3.60607,4.58634 -0.11487,-0.59115 -0.0144,-1.50748 -0.51515,-1.52815 -1.2798,3.36175 -2.90693,1.83641 -4.63367,3.82132 2.49857,0.37593 1.61904,1.1541 4.11942,1.52721 0.93068,-2.93788 3.44721,-4.09857 5.14972,-7.64452 1.29147,1.5695 3.18245,3.09108 4.11942,3.05818 -0.62195,0.16259 -0.31591,0.85054 0,1.5291 h 0.51605 c -0.4972,-2.74617 2.52819,-0.45582 2.57397,0.76501 h 0.51515 c 0.87683,-2.89653 0.84722,1.66067 1.54456,1.5291 -0.24681,-2.40689 2.36126,-0.5733 2.57575,-2.29411 -2.16112,-0.90035 -1.50237,-1.03287 -3.60426,-3.8232 3.90043,-0.69547 5.60384,1.77156 8.75309,3.8232 v 0.76501 h 0.51426 c 1.48442,0.34492 1.61187,2.7067 3.60426,2.29223 0.0889,-1.03098 -2.61794,-1.52533 -1.0285,-2.29223 1.85418,0.91821 5.34088,4.12301 4.63547,1.5291 1.06799,0.45017 1.75456,1.47082 2.05971,3.05724 -1.86047,0.67292 -3.43644,-2.98394 -4.63547,-0.76313 3.10706,1.1541 6.71941,3.00179 9.27094,6.87951 v 0.76595 h 0.51425 c 1.80572,-1.68792 -0.035,-0.99433 -0.51425,-3.05818 2.33433,0.0921 0.59323,-1.49808 2.57845,-2.29505 z M 51.99955,112.03093 c -0.549256,-0.28853 -0.916325,-0.85055 -0.893888,-1.98773 -0.360786,0.12593 -0.442456,0.66257 -0.892092,0.66069 h -0.446944 c 0.573488,-1.71423 0.923504,-2.08264 2.232924,-1.32703 0.08167,0.56578 -0.172316,0.62781 -0.446047,0.66634 0.08347,0.75186 0.447842,0.36653 0.446047,0 0.377837,-0.12406 0.421814,0.25751 0.446046,0.66069 0.857091,-0.85242 -1.052741,-1.37026 0,-3.31193 1.269033,0.97835 0.642593,-1.13907 2.679867,0 -0.437072,2.44354 -2.026504,3.17754 -3.125913,4.63897 z m 4.91279,-1.3261 c -0.360786,-0.45863 -1.223262,-1.03098 -1.339934,0 -0.991712,2.2537 -0.395787,0.64942 -0.893887,-0.66069 0.58695,-0.2359 0.70452,-1.17008 1.341729,-1.32703 h 0.892092 z m 5.355247,1.98867 c 1.186465,-1.97457 3.065782,-2.66252 3.573754,-3.97639 1.141591,0.0695 2.126124,0.37593 2.676277,1.32703 -3.411311,1.78754 -3.086424,2.81853 -6.250031,2.64936 z M 204.35619,94.825568 c 1.3139,0.40319 1.80033,1.01407 2.57396,-0.76407 1.39827,0.69923 -0.52413,2.678502 -0.51605,3.823202 -1.28608,1.00937 -1.61187,-3.022472 -2.05791,-0.76408 -0.76466,-0.33269 0.20283,-0.979292 0,-2.295052 z m -6.18093,-0.76407 c 0.43797,-0.14098 0.48464,0.29886 0.51425,0.76407 h 0.51426 c 1.32737,-2.40876 2.45639,1.908792 4.63726,0.76408 -2.21587,1.989612 0.28002,1.462372 0.51516,3.823202 0.59772,0.12406 0.91542,-0.16729 1.0285,-0.76313 0.5708,2.90311 -3.1277,6.044 -6.18092,6.11355 -0.74581,2.26779 -2.00766,-1.00749 -3.60427,0 -0.0933,-2.93037 0.42181,-0.27725 1.54546,-0.76314 -0.18219,-1.00373 -0.90466,-1.20297 -1.03031,-2.29411 -0.48105,0.56014 -0.7808,1.38906 -1.0294,2.29411 -0.72965,1.18606 0.28001,-2.20482 -1.54636,-2.29411 -0.0933,-0.64942 0.20283,-0.72084 0.51605,-0.76407 1.59931,-1.00374 1.47097,0.2077 3.60607,0 -1.08954,-0.93043 -1.497,-2.87586 -3.09002,-3.05819 0.15347,-0.90035 2.72564,-1.920062 1.02941,-3.058192 0.13911,-2.67943 2.28228,1.38342 2.0615,-0.76407 z m -6.69518,-6.88045 c 1.02761,1.25748 1.80393,2.14092 2.57576,0 0.0745,1.67195 1.29775,1.64187 2.57576,1.52909 0.22796,0.68043 0.45143,1.36651 1.02941,1.52722 0.71977,0.27254 0.044,1.34864 -0.51605,1.52909 0.0826,-2.49241 -2.10369,-0.0517 -3.08912,-2.29223 0.0206,1.95577 -0.38412,0.9323 -1.0303,0.76314 -0.75389,-0.66352 -1.63252,-1.14189 -1.54546,-3.05631 z m -1.54456,0 c 1.01864,0.52912 1.37314,2.03848 1.54456,3.8232 -0.97915,-0.32518 -0.93068,-2.18697 -2.57576,-1.52909 0.33655,-0.77724 1.18467,-0.78851 1.0312,-2.29411 z m -8.24063,11.469612 c 0.43886,0.14003 0.48643,-0.29887 0.51604,-0.76596 0.28899,1.86461 0.50259,0.43044 2.06151,2.29411 -0.46759,1.84487 -2.90603,0.32706 -3.09091,-0.76502 -0.72157,0.27067 -0.0422,1.34677 0.51336,1.5291 -0.3222,1.85991 -2.60089,0.40506 -2.05792,-1.5291 0.87504,0.28101 0.97107,-0.59678 1.02941,-1.52909 0.59772,-0.125 0.91542,0.16729 1.02851,0.76596 z m -14.41798,-4.589162 c 0.43618,-0.14098 0.48464,0.29886 0.51426,0.76407 0.50079,-0.0216 0.39848,-0.93418 0.51425,-1.53003 1.6379,0.0771 3.29913,0.85806 5.15062,-2.29129 0.60131,1.18606 -1.16941,2.10239 1.03031,3.05725 h 1.0303 c 1.45302,0.63344 1.33096,-1.07704 2.57127,-0.76502 -0.15705,1.76499 1.48802,0.85054 1.54815,2.29411 0.41823,0.14755 0.51246,0.76784 1.02941,0.76408 -1.9206,1.649392 -6.30029,5.047792 -7.72459,0.765012 -0.97107,-0.934182 -2.3837,0.36466 -3.09001,-2.294112 -0.63362,0.33552 -1.05813,0.9793 -1.02941,2.294112 -0.75657,-0.66445 -1.63161,-1.144702 -1.54456,-3.058182 z m 11.7426,13.669732 c -0.33476,0 -0.33476,-0.76313 0,-0.76313 0.33116,0 0.33116,0.76313 0,0.76313 z m -10.19804,-8.31838 c 0.35899,-3.685982 2.34601,0.9746 2.57397,-0.76313 1.14428,2.54128 -1.43776,2.00088 -2.57397,0.76313 z m 0.51426,1.53004 v 3.05818 c -1.64867,-1.55071 -1.81381,-0.87403 -3.60607,-1.52909 0.64529,-2.92191 2.11087,0.12782 3.60607,-1.52909 z m -9.26735,-2.29223 c 1.35608,0.23025 1.68815,-1.062 1.54186,-3.060072 0.67849,0.27067 0.81222,1.348652 1.54815,1.530032 h 1.54456 c -0.16065,-1.038502 -1.29057,-0.63344 -2.06061,-0.765012 0.0826,-0.88626 -0.11308,-1.36087 -0.51515,-1.5291 0.61208,-1.57514 2.23023,0.79979 3.08912,-1.53003 1.16941,0.55826 1.54096,2.30351 2.0615,3.823202 0.26745,2.20671 -4.17147,3.98392 -6.69518,4.58728 0.0655,-1.37026 -0.63182,-1.61273 -0.51425,-3.0563 z m -0.51605,12.99588 c 0.75478,-1.77627 1.63071,1.49244 1.54456,-1.5291 0.67759,0.77912 1.89726,0.74998 2.57755,1.5291 -0.20283,3.01683 -2.09561,3.51682 -3.09181,5.35229 -0.58515,-0.14567 -0.2854,-0.76595 0,-0.76407 -0.0969,-0.8684 -0.51695,-0.4248 -0.51336,0 -1.13979,-0.0959 -0.22078,-3.24615 -0.51694,-4.58822 z m -6.35145,-10.46306 c 0.0144,-0.0254 0.0296,-0.0508 0.0494,-0.0771 0.15168,-0.2406 0.30694,-0.48777 0.4622,-0.73025 0.0162,-0.0254 0.035,-0.0508 0.0512,-0.0761 0.0799,-0.12218 0.16065,-0.24436 0.24052,-0.36841 0.0314,-0.0442 0.061,-0.0874 0.0924,-0.13534 0.079,-0.11372 0.15886,-0.22462 0.23783,-0.33552 0.0314,-0.0423 0.0655,-0.0836 0.0969,-0.12593 0.0844,-0.10902 0.16783,-0.22086 0.25219,-0.32236 0.0224,-0.0254 0.0422,-0.0479 0.0646,-0.0733 0.20911,-0.24435 0.43079,-0.47367 0.66952,-0.67103 0.16693,-0.14004 0.34284,-0.27255 0.52951,-0.38345 v 3.05819 c -0.1077,0.0489 -0.21539,0.11278 -0.32399,0.17668 -0.0162,0.009 -0.0278,0.016 -0.0413,0.0254 -0.3222,0.19924 -0.64888,0.44547 -0.96748,0.6513 -0.0736,0.047 -0.14629,0.0912 -0.21988,0.13157 -0.0126,0.008 -0.0215,0.015 -0.0323,0.0216 -0.07,0.0385 -0.13732,0.0733 -0.20732,0.10432 -0.009,0.006 -0.0179,0.009 -0.0278,0.0132 -0.15168,0.0677 -0.29797,0.10901 -0.44066,0.12405 -0.0179,0 -0.035,0 -0.0521,0 -0.0512,0 -0.10141,-0.004 -0.15077,-0.0113 -0.0233,-0.004 -0.0467,-0.009 -0.0673,-0.015 -0.0458,-0.0141 -0.0888,-0.031 -0.13192,-0.0508 -0.0207,-0.0113 -0.044,-0.0216 -0.0664,-0.0367 -0.0431,-0.0272 -0.087,-0.0601 -0.13013,-0.0977 -0.018,-0.0169 -0.0368,-0.0329 -0.0557,-0.0517 -0.0592,-0.062 -0.11756,-0.13345 -0.17052,-0.22086 0.11219,-0.17292 0.22348,-0.34585 0.33925,-0.52348 z m -1.37404,2.05164 c 1.30493,-1.58079 -1.08594,1.03474 -0.51605,3.05818 -1.2807,0.11842 -1.59212,-1.20109 -2.57396,-1.52909 0.82478,-2.52249 1.92509,0.10996 3.09001,-1.52909 z m -5.14793,0 c 0.47926,0.43419 0.77901,2.12776 1.02851,0.76595 0.96569,1.19358 -0.52233,2.66064 1.54636,3.05819 -0.37874,0.71144 -0.93787,1.15692 -1.54636,1.52815 -3.15284,1.18042 -5.3705,3.7499 -8.23974,5.3523 1.3525,-4.10609 2.96258,-7.83061 6.18003,-9.1755 0.45772,-0.3374 0.91992,-0.67197 1.0312,-1.52909 z M 143.5871,88.710138 c -0.0431,1.0855 -0.0853,2.16442 0.51426,2.29411 -0.11667,1.10147 -1.53558,0.26597 -1.54456,1.52909 -0.74401,-0.17386 -0.18039,-2.28095 -1.02941,-2.29598 0.34015,-1.02535 1.09941,-1.42102 2.05971,-1.52722 z m -5.14972,0.76502 c 1.68008,-0.1983 2.47614,0.90881 2.57396,3.05818 -2.5587,1.48963 -3.72004,0.50939 -2.57396,-3.05818 z m 2.57396,7.644522 c -0.95312,1.13249 -0.77183,3.95102 -2.57396,3.82321 -1.14159,-1.10242 0.64618,-1.86461 -0.51605,-2.29223 2.21138,-1.38342 -0.15975,-5.559062 3.09001,-1.53098 z m -5.19639,-12.371832 c 0.16873,0.0752 0.36258,0.11184 0.56272,0.13815 -0.93338,1.82702 -4.03237,0.43138 -5.15152,0 0.0368,-0.16917 0.0745,-0.3139 0.11667,-0.44548 1.2116,1.2791 2.88808,1.11839 4.47213,0.30733 z m -8.19307,-5.97822 c 0.9603,0.1062 1.72047,0.50374 2.06151,1.52909 0.71977,-0.26879 0.0422,-1.34301 -0.51605,-1.52909 0.0494,-0.16071 0.0978,-0.29229 0.14629,-0.40507 0.15705,-0.0761 0.28809,-0.22649 0.37963,-0.43983 0.55823,-0.0677 1.06979,2.20106 1.53199,2.37399 -1.11018,2.10051 -2.36305,-0.75938 -3.60427,0.76596 v -2.29505 z m -5.08151,37.900262 c -0.25668,1.16445 0.53848,3.89463 -0.44605,3.9764 0,-0.36841 -0.36258,-0.75374 -0.44784,0 0.2468,0 0.50707,0.53664 0,0.66257 -0.86248,-1.58736 -2.50666,-2.02344 -2.67897,-4.63897 0.58785,-0.67573 1.64507,-0.64941 2.23292,-1.32515 -0.0745,2.62117 0.68657,-0.21146 1.33994,1.32515 z m -4.91279,-15.90839 c 0.7458,2.01686 2.14856,-0.0385 2.68076,1.32703 -0.34912,0.14567 -0.52143,0.5545 -0.44694,1.32515 -0.66952,0.11372 -1.64867,-0.23683 -1.78778,0.66258 h 1.33994 c 0.63631,-0.15883 0.75298,-1.09114 1.34083,-1.32515 -0.12565,1.73397 0.16334,2.85236 1.33993,2.64936 0.0987,1.2556 -0.50438,1.46518 -0.44784,2.65312 -2.18715,-0.52536 -6.03733,-2.06761 -5.80309,-3.97827 0.44964,-1.31857 0.77183,-2.82981 1.78419,-3.31382 z m -3.57017,6.63046 c 1.29506,1.43417 2.56679,-1.20674 3.12412,1.32515 -1.55084,0.56765 -1.69534,-0.0188 -3.12412,1.32703 z m -1.06889,-0.46146 c -0.0664,-0.45299 -0.12206,-0.90505 -0.17053,-1.3524 0.59593,-0.49247 1.47276,-1.7039 1.68726,0.48682 -0.40117,0.4342 -1.00428,0.7669 -1.51673,0.86558 z m -0.27463,-6.13329 c 0.76375,0.19267 1.50417,0 2.23741,-0.0348 0.0996,0.51502 0.0126,1.30917 0.44604,1.32703 0.0242,-0.40506 0.0664,-0.78663 0.44605,-0.66257 0.0745,1.65878 -0.68657,2.07419 -1.33814,2.64936 0.0224,-1.13813 -0.34463,-1.6992 -0.89389,-1.98773 -0.23872,0.90223 -0.57348,1.27346 -0.94145,1.44733 -0.0368,-0.92667 -0.0224,-1.84111 0.044,-2.73865 z m -3.12143,0.62875 c 1.13082,-0.49247 1.05095,-0.97272 0.90645,-1.49432 0.80055,0.10714 1.52841,0.48964 1.15865,3.30348 -0.70722,-0.27067 -1.69713,-0.984 -2.48153,-1.80822 h 0.41643 z m 0.51964,2.57511 c 0.77183,1.81386 -3.09001,-1.09113 -3.60427,-2.29411 1.13082,-2.11836 2.10997,2.42193 3.60427,2.29411 z m -4.44969,8.61349 c 0.28719,0 0.28719,0.66257 0,0.66257 -0.28719,0 -0.28719,-0.66257 0,-0.66257 z m -0.91812,-4.85607 c -0.45502,0.48683 -1.11377,0.56013 -1.34532,-0.15695 0.40925,-0.10432 0.86248,-0.0301 1.34532,0.15695 z M 96.199407,95.460898 c -0.13193,1.302592 0.6031,1.313872 0.89209,1.988662 -0.97556,-0.39096 -1.263647,0.24248 -1.619048,0.77442 -0.106799,-0.12406 -0.205522,-0.23778 -0.294372,-0.33928 -0.06641,-0.0132 -0.132827,-0.0254 -0.19924,-0.0404 0.187573,-1.12027 0.523229,-2.020622 1.22057,-2.383392 z m -5.804884,1.327032 c 1.10659,0.0968 2.16651,0.12217 2.232026,-1.327032 0.667723,1.856152 1.343523,1.091132 2.232026,0 0.05564,1.217072 -0.339247,1.763102 -0.812217,2.197302 -1.232236,-0.23683 -2.48332,-0.44547 -3.722736,-0.66821 0.02423,-0.0695 0.04846,-0.13534 0.0709,-0.20206 z m -5.821935,6.38892 c 1.990605,0.92478 4.078137,1.74055 6.190798,2.53282 -0.414634,0.56765 -0.752983,1.24809 -1.261853,1.68229 1.854188,0.17856 1.741106,-0.87216 3.126811,0 0.271936,0.0367 0.527717,0.0987 0.446046,0.66257 -1.584047,0.079 -0.706314,3.01684 -1.338138,1.98961 -0.216292,-0.78475 -0.477458,-1.50372 -0.893888,-1.98961 -0.1068,0.94546 -0.734136,1.11745 -0.89299,1.98961 0.974661,0.42198 1.420707,-1.88153 1.340831,0.66069 -1.383909,-0.87215 -2.477934,1.96518 -3.12681,0 -2.644866,-0.0601 -5.851552,-2.78281 -5.357042,-5.30342 0.09693,0.51878 0.375146,0.77159 0.892092,0.66445 0.183983,-1.85709 1.965476,-1.6616 0.874143,-2.88901 z m -3.232713,-1.67007 c 0.07629,0.0414 0.149879,0.0874 0.223472,0.1297 0.440661,0.91256 0.78978,0.92008 1.350703,0.73024 0.261166,0.13533 0.524127,0.26973 0.79337,0.39942 0.114877,0.69735 0.507075,1.0855 -0.009,1.31012 -0.386812,-1.95577 -0.667723,1.53849 -1.784184,0.66445 0.0063,-0.9511 -1.521224,-2.57041 -0.574386,-3.23393 z m 13.075346,16.48827 c -7.39252,0.015 -14.653111,-7.13515 -15.180827,-14.58137 2.720253,3.91625 4.562774,9.13227 9.374149,9.9424 h 4.46495 c 0.271935,0.0357 0.527716,0.10056 0.447841,0.66163 1.957398,-0.69547 1.46558,2.24336 3.124123,1.98961 2.97154,0.41634 -0.877738,4.40589 -2.230236,1.98773 z m 7.142129,-6.6267 c 0.1077,0.94358 0.73324,1.11651 0.89209,1.98773 -1.98342,2.80443 -6.137853,0.11278 -7.589968,-1.98773 1.972655,-1.05072 1.819185,-1.83266 2.232025,0.66258 0.29437,-3.19165 1.44853,-1.88905 2.65294,-2.82136 0.22796,0.0987 0.460413,0.20019 0.686573,0.30263 0.10411,0.36841 0.12745,0.64096 -0.21449,1.19169 0.65336,0.22086 1.62712,-0.0385 2.46537,-0.0893 0.50887,0.26597 1.01056,0.53852 1.50058,0.82329 -0.81312,1.17666 -1.60469,0.13157 -2.62512,-0.0695 z m 4.018,10.60497 c -0.47566,1.45861 -3.15104,-0.91821 -1.78418,-1.98961 0.55195,1.62026 1.29685,-1.98491 2.23023,-1.98866 0.32309,2.0272 -0.77004,1.95107 -0.44605,3.97827 z m 3.56927,1.32703 c -0.7808,-0.60901 -2.22664,-0.23214 -2.67628,-1.32703 0.82478,-2.09111 1.16583,-4.89648 2.67628,-5.966 0.54028,1.4633 1.28609,1.54601 2.0983,1.36368 0.68837,0.91445 1.3543,1.94356 2.00048,3.07323 -0.0278,0.0677 -0.0529,0.13721 -0.0781,0.20206 0.0556,-0.0291 0.10231,-0.0489 0.15526,-0.0733 1.46738,2.59485 2.83872,5.68124 4.18045,8.94806 -2.35857,-2.83733 -4.98818,-5.28275 -8.35641,-6.22069 z m 18.67291,17.74763 c -3.70837,-0.14943 -7.89959,-11.64348 -10.64228,-19.24101 -0.3554,-0.984 -0.72516,-2.01592 -1.09044,-3.07886 0.18129,-0.0771 0.39758,-0.10056 0.65157,-0.0714 h 0.44605 c 0.32937,-1.48774 1.70251,0.93231 1.78598,1.98961 1.22864,1.26782 2.27061,2.81477 3.12681,4.63897 1.37134,1.40127 4.68932,7.78644 6.60453,11.1557 -0.30155,1.54789 -0.61208,3.07699 -0.88222,4.60702 z m 1.41981,-7.49791 c -1.87303,-2.83921 -5.19101,-9.22813 -6.24913,-10.91418 -0.58875,-2.06009 0.26296,-6.27802 0.44604,-7.95466 0.2145,1.1823 0.47387,-0.28853 0.8921,-0.66258 0.13551,1.56387 1.54904,1.23211 1.33813,3.31382 h 0.44605 v -1.98773 c 0.47387,-0.1983 0.84363,-0.55825 1.19185,-0.94358 0.7844,1.33925 1.5652,2.58451 2.31639,3.71042 0.96389,5.75078 0.44335,10.72997 -0.38143,15.43849 z m 1.47456,-18.84723 c -0.50259,-0.94922 -1.02492,-1.87213 -1.54815,-2.79033 0.3904,-0.33552 0.67041,-0.72085 0.54028,-1.31952 -0.0521,-0.23495 -1.30673,-1.11181 -2.28588,-1.83829 -0.22795,-0.43232 -0.45143,-0.87404 -0.66772,-1.32139 0.50349,-0.22086 1.18647,-0.48025 1.0662,-0.53476 l 1.08416,-4.83257 c 1.45032,1.93415 2.57396,4.35608 3.86992,6.52049 -0.33835,2.55538 -1.6002,3.74238 -2.05881,6.11637 z m -2.05971,-17.58316 c 0.17411,-0.788512 0.3204,-1.617432 0.56182,-2.305382 0.4981,-0.28477 0.98453,-0.86088 1.16761,-1.44921 0.23873,-0.0837 0.51426,-0.11466 0.84543,-0.0695 0.0853,0.89095 -0.11219,1.36181 -0.51426,1.53003 1.23044,2.109912 1.25647,3.744262 2.05971,7.646412 -1.71867,-1.2697 -2.23471,-4.32883 -4.12031,-5.3523 z m 5.14972,2.29317 c 0.12744,-0.83174 1.02492,-0.51784 1.02941,-1.52909 1.06351,0.65694 0.54387,5.32128 0,6.11731 -1.24391,-1.17666 -0.2504,-4.48202 -1.02941,-4.58822 z m 3.60337,55.81237 c -2.01304,0.44359 -2.46627,-1.94638 -2.55063,-7.80524 -1.37134,-10.19802 0.0574,-15.77682 1.52302,-25.83387 4.14275,-4.55438 8.72527,-8.45277 13.90551,-11.46961 0.16604,-1.79036 2.24459,-0.74246 2.57576,-2.29411 0.14629,0.11372 0.28181,0.23872 0.41643,0.37124 0.14629,0.14003 0.28719,0.2904 0.42361,0.43983 0.14629,0.16447 0.29258,0.32518 0.43887,0.48213 0.0969,0.10526 0.19565,0.2077 0.29616,0.30451 0.0422,0.0376 0.0844,0.0761 0.12565,0.11465 0.0933,0.0837 0.18847,0.16071 0.28719,0.23402 0.044,0.0329 0.0862,0.0658 0.13014,0.0959 0.14629,0.0968 0.29437,0.18421 0.45502,0.25187 v 2.29223 h 0.51515 c -0.24232,-2.39843 1.38571,-2.0178 1.54456,-3.82132 0.48105,0.43232 0.7808,2.12588 1.02941,0.76408 0.20821,1.93415 1.19185,6.79962 0.51515,9.1755 -0.15527,0.24811 -0.31771,0.5075 -0.48374,0.76971 -0.0458,0.0733 -0.0933,0.14755 -0.13911,0.22274 -0.13732,0.21428 -0.27642,0.43232 -0.41553,0.65318 -0.053,0.0836 -0.1095,0.1701 -0.16424,0.25375 -0.14629,0.23026 -0.29796,0.46145 -0.44784,0.69641 -0.0449,0.0677 -0.0888,0.13533 -0.13193,0.20488 -0.40387,0.61464 -0.8203,1.23681 -1.24391,1.84675 -0.0242,0.0367 -0.0512,0.0714 -0.0772,0.10808 -0.18308,0.25845 -0.36886,0.51973 -0.55374,0.77348 -0.0458,0.0611 -0.0915,0.12217 -0.13283,0.18232 -0.1777,0.23872 -0.3545,0.47086 -0.53041,0.69641 l -0.12385,0.16071 c -0.2118,0.27161 -0.4272,0.53476 -0.6399,0.78476 -0.14091,0.16822 -0.2836,0.32517 -0.42541,0.48212 -0.11128,0.12406 -0.22257,0.24342 -0.33296,0.3562 -0.0287,0.0329 -0.0601,0.063 -0.0924,0.093 -0.16424,0.17011 -0.32758,0.32894 -0.49002,0.47649 -0.0673,0.0639 -0.13732,0.12594 -0.20463,0.18609 -0.0754,0.062 -0.14449,0.12217 -0.21629,0.17856 -0.11129,0.0893 -0.22078,0.17481 -0.32937,0.25188 -0.0485,0.0329 -0.0915,0.0658 -0.14091,0.0977 -0.12744,0.0874 -0.25578,0.16071 -0.38142,0.22931 -0.0404,0.0216 -0.079,0.0404 -0.11847,0.0583 -0.1427,0.0686 -0.2854,0.1344 -0.4263,0.17575 -2.1701,12.31545 -8.62207,18.28615 -13.38857,26.7596 z m 37.59532,-35.9351 c -0.42809,0.1203 -0.84273,0.25751 -1.25288,0.40319 -0.12385,0.0423 -0.24321,0.0874 -0.36347,0.13533 -0.29617,0.11372 -0.58875,0.22838 -0.87684,0.35431 -0.12116,0.0508 -0.23963,0.10245 -0.35899,0.15508 -0.36079,0.16634 -0.71978,0.33927 -1.06979,0.52348 -0.0206,0.015 -0.0458,0.0216 -0.0673,0.0348 -0.37335,0.19924 -0.73594,0.40976 -1.09672,0.6278 -0.1059,0.0667 -0.2145,0.1344 -0.32399,0.20488 -0.25578,0.16259 -0.51066,0.32988 -0.76196,0.50281 -0.1077,0.0752 -0.21898,0.14755 -0.32758,0.22462 -0.29976,0.21616 -0.59951,0.4342 -0.8885,0.66069 -0.0413,0.031 -0.0835,0.0573 -0.12206,0.0912 -0.32937,0.25751 -0.64887,0.52254 -0.96479,0.79415 -0.105,0.0865 -0.20821,0.17668 -0.31052,0.26597 -0.22347,0.1936 -0.44246,0.39284 -0.66234,0.59585 -0.1077,0.0949 -0.21629,0.19266 -0.3195,0.29322 -0.2486,0.23496 -0.4972,0.47273 -0.74042,0.71145 -0.0592,0.0583 -0.11847,0.11466 -0.1777,0.17386 -0.29258,0.29229 -0.58157,0.59115 -0.87145,0.89002 -0.1077,0.1156 -0.2154,0.22838 -0.3222,0.34303 -0.19026,0.19925 -0.37783,0.40413 -0.56271,0.60619 -0.11847,0.12876 -0.23873,0.25563 -0.35451,0.38345 -0.18757,0.2124 -0.37425,0.41916 -0.56272,0.62968 -0.16064,0.18233 -0.3204,0.36371 -0.47925,0.5451 -0.19296,0.21898 -0.38502,0.43889 -0.57708,0.66069 -0.20552,0.23402 -0.40745,0.47085 -0.61028,0.70863 -0.0368,0.0404 -0.0727,0.0836 -0.10949,0.12594 -0.7476,0.87215 -1.49341,1.74995 -2.24639,2.61459 -0.14629,0.17198 -0.29258,0.33927 -0.44246,0.5075 -0.29616,0.34304 -0.59592,0.68325 -0.89747,1.01501 -0.0126,0.0141 -0.0242,0.0282 -0.0368,0.0395 -0.26834,0.29887 -0.53849,0.59209 -0.81132,0.8872 -0.07,0.0761 -0.14359,0.15319 -0.21629,0.22931 -0.22168,0.23778 -0.44784,0.47273 -0.67311,0.70487 -0.0799,0.0799 -0.16065,0.16447 -0.23873,0.24435 -0.25937,0.26316 -0.52143,0.52255 -0.78619,0.77724 -0.0395,0.0366 -0.0763,0.0771 -0.11487,0.11372 -0.30156,0.28852 -0.6067,0.57235 -0.91633,0.8496 -0.0745,0.0696 -0.15347,0.13533 -0.22975,0.20112 -0.23065,0.20864 -0.46669,0.40882 -0.70452,0.60901 -0.10411,0.0836 -0.20822,0.17198 -0.31412,0.25469 -0.22616,0.1842 -0.45323,0.36559 -0.68477,0.5404 -0.0987,0.0761 -0.20104,0.15319 -0.30156,0.22931 -0.32937,0.2453 -0.66054,0.48213 -0.99799,0.70863 0.11667,-0.62968 0.24501,-1.23681 0.38681,-1.83172 0.0458,-0.19736 0.0969,-0.38344 0.14629,-0.57329 0.0987,-0.39566 0.19924,-0.78851 0.30694,-1.16914 0.061,-0.21428 0.12744,-0.42198 0.19206,-0.63344 0.1059,-0.34679 0.2118,-0.68983 0.32937,-1.03005 0.0655,-0.2077 0.13911,-0.41164 0.21181,-0.61652 0.11846,-0.32894 0.24142,-0.65318 0.36617,-0.97272 0.0745,-0.18702 0.14988,-0.38063 0.22796,-0.56765 0.13372,-0.32518 0.27552,-0.64754 0.41643,-0.96332 0.0754,-0.16447 0.14808,-0.32894 0.22526,-0.49247 0.16065,-0.34491 0.33117,-0.68231 0.50169,-1.01407 0.0601,-0.12405 0.12206,-0.24905 0.18398,-0.36559 0.23066,-0.4342 0.4658,-0.85712 0.70991,-1.27064 0.007,-0.0169 0.0144,-0.0329 0.0224,-0.0442 0.26655,-0.45206 0.53848,-0.89189 0.8185,-1.32045 0.12385,-0.19361 0.25039,-0.37593 0.37694,-0.56296 1.20441,-1.76781 2.52191,-3.37021 3.89864,-4.87674 l 0.18757,-0.20207 c 0.42899,-0.46333 0.86517,-0.92102 1.30583,-1.3712 0.98453,-2.1052 2.18356,-3.88993 3.60606,-5.35229 0.0933,-1.21895 1.67559,-4.01305 2.05612,-2.29411 h 0.51515 c 1.12275,-0.14004 1.6379,0.62404 1.54636,2.29411 0.50079,0.0197 0.39848,0.93606 0.51425,1.52909 0.80773,-0.33082 0.44066,-2.40595 2.06151,-1.52909 -0.44784,-1.12027 -0.77183,-2.42381 -2.06151,-2.29411 2.00048,-4.73671 5.12101,1.22835 6.69518,-3.05819 1.74201,1.23399 2.13869,4.46886 3.08822,6.88233 -0.51874,1.26688 -2.18536,0.83268 -3.08822,1.52909 z m 4.12032,-1.52721 c 0.37245,-2.33922 -0.8894,-2.25088 -0.51605,-4.5901 1.07697,0.004 1.93586,4.16624 2.57576,2.29411 1.57148,1.23775 -1.51225,3.97827 -2.05971,2.29599 z m 3.60517,-9.94052 c 0.18129,-1.00373 0.90645,-1.20203 1.0303,-2.2941 -1.20441,0.23683 -2.12792,1.49807 -3.09001,0 0.54746,-1.73398 3.2372,-0.29041 4.63367,-0.76502 -0.61836,-1.00373 -0.20193,-1.20016 0,-2.29223 1.56879,2.13152 3.22105,-0.33928 3.60427,3.82132 0.47746,-2.8768 0.29976,-1.97457 2.57576,-0.76501 -1.6729,2.42662 -6.46902,5.52898 -8.75399,2.29504 z m 9.27004,5.35136 c -1.56161,2.78846 -6.00502,-1.81198 -2.57576,-2.29223 1.91342,0.29229 1.34711,-3.09672 3.60606,-2.29317 -0.096,-0.64754 0.20014,-0.72084 0.51336,-0.76502 h 5.14972 c 5.55,-0.93418 7.67702,-6.95093 10.81371,-11.467722 -0.6067,8.587172 -8.98195,16.836002 -17.50709,16.818142 z m 37.07927,-6.11355 c -3.64735,0.19736 -3.274,-0.99434 -7.20943,-3.05819 0.63451,-1.09677 1.77162,-1.44921 3.09001,-1.52909 0.58157,1.51405 2.74897,2.30915 4.11942,4.58728 z m 7.72369,-2.29599 c -0.13372,-1.18982 -1.12813,-0.52912 -1.54276,0 v -2.29223 h 1.02761 c 0.73503,0.18233 0.86786,1.25936 1.54456,1.52909 -0.57259,1.51312 0.11128,3.36175 -1.02941,0.76314 z m 5.15062,-0.76314 c 0.026,1.31388 -0.39848,1.96047 -1.0303,2.29223 -1.26814,-1.6851 -3.10168,-2.53282 -3.60517,-5.35041 2.3478,-1.31576 1.62623,1.13154 3.09002,0 1.21608,2.24054 -0.99082,2.8392 0,3.82132 0.0278,-0.46521 0.0763,-0.90505 0.51515,-0.76314 -0.004,0.42386 0.41732,0.86652 0.51246,0 -0.31412,-0.0432 -0.60849,-0.11372 -0.51246,-0.76595 1.50776,-0.87216 1.91252,-0.44924 2.57217,1.52909 h -0.51336 c -0.51605,0.006 -0.61118,-0.61747 -1.02851,-0.76314 z"
     id="path2" /></g>
</svg>
