<?xml version="1.0" encoding="iso-8859-1"?>
<!-- Generator: Adobe Illustrator 30.0.0, SVG Export Plug-In . SVG Version: 9.03 Build 0)  -->
<svg version="1.1" id="Layer_1" xmlns="http://www.w3.org/2000/svg" xmlns:xlink="http://www.w3.org/1999/xlink" x="0px" y="0px"
	 viewBox="0 0 288 288" style="enable-background:new 0 0 288 288;" xml:space="preserve">
<ellipse transform="matrix(0.242 -0.9703 0.9703 0.242 -31.0165 249.2285)" style="fill-rule:evenodd;clip-rule:evenodd;fill:none;stroke:#FFFFFF;stroke-width:6;stroke-miterlimit:10;" cx="144" cy="144.465" rx="144.284" ry="144.283"/>
<g>
	<polygon style="fill:#FFFFFF;" points="134.045,260.478 134.059,260.478 133.903,260.168 	"/>
	<path style="fill:#FFFFFF;" d="M161.741,120.458c-0.113,4.693-6.247,7.08-18.286,7.08c-11.532,0-17.602-2.218-18.186-6.527
		c-8.925,2.282-17.915,7.78-19.626,20.518c-0.062,0.51-0.077,1.066-0.125,1.597c4.045,3.025,12.828,7.023,31.051,7.023
		c0,0-7.782,2.221-17.525,2.221c-4.365,0-9.127-0.442-13.762-1.729c0.12,3.857,0.541,7.97,1.169,12.197
		c2.734,2.908,10.978,8.752,32.995,8.752c0,0-7.771,2.213-17.522,2.213c-4.382,0-9.176-0.447-13.835-1.753
		c0.826,4.021,1.78,8.067,2.82,12.052c2.429,2.841,10.131,8.936,31.428,8.936c0,0-7.365,2.208-16.596,2.208
		c-3.868,0-8.057-0.393-12.168-1.48c1.383,4.78,2.799,9.359,4.131,13.541c3.484,3.049,11.213,7.171,27.519,7.171
		c0,0-6.86,2.209-15.45,2.209c-2.984,0-6.191-0.261-9.376-0.993c1.661,5.185,2.942,9.26,3.47,11.681
		c0.187,0.976,0.406,2.102,0.67,3.336c4.088,2.605,11.255,5.212,23.569,5.212c0,0-6.494,2.189-14.644,2.189
		c-2.358,0-4.852-0.184-7.372-0.657c1.126,4.521,2.585,9.592,4.311,14.399l0.126,0.322l-0.126-0.315
		c3.22,3.125,9.3,6.608,20.586,6.608c0,0-5.423,2.428-12.218,2.428c-1.508,0-3.1-0.121-4.709-0.417
		c3.029,5.97,6.611,10.252,10.65,10.252h0.027h0.037c11.048,0,18.67-31.868,20.836-43.357c2.472-11.378,21.642-59.145,18.221-85.844
		C181.964,127.61,171.415,122.339,161.741,120.458z"/>
	<path style="fill:#FFFFFF;" d="M80.093,71.281c1.126,0.237,2.221,0.564,3.335,0.843c1.381,0.343,2.777,0.649,4.145,1.046
		c0.984,0.295,1.953,0.659,2.935,0.97c1.415,0.464,2.848,0.896,4.252,1.411c0.997,0.364,1.967,0.787,2.949,1.173
		c1.354,0.538,2.721,1.048,4.061,1.62c2.301,0.989,4.572,2.038,6.816,3.128c1.873,0.912,3.646,1.917,5.373,2.971
		c0.469,0.288,0.932,0.584,1.393,0.882c1.368,0.882,2.687,1.805,3.968,2.778c0.32,0.243,0.656,0.474,0.977,0.727
		c1.525,1.205,2.991,2.473,4.394,3.797c0.329,0.311,0.644,0.634,0.964,0.955c1.111,1.085,2.186,2.211,3.218,3.368
		c2.638,2.947,5.074,6.093,7.304,9.446c1.314,1.995,2.592,4.046,3.789,6.13l0.021,0.069l0.008,0.631
		c1.102-0.039,2.229-0.082,3.461-0.082c0.349,0,0.641,0.018,0.977,0.018v-0.598l0.385-0.683l-0.021,0.093l-0.037,0.111l0.027-0.091
		l-0.156,0.606l-0.021,0.075l-0.126,0.486c0.675,0.017,1.316,0.034,1.959,0.059c0.741-2.201,1.539-4.366,2.381-6.496
		c0.376-0.97,0.788-1.907,1.189-2.835c6.665-9.348,14.893-17.107,25.821-22.417l0.512-0.243l-0.341,0.469l-0.421,0.58l-0.45,0.589
		l-0.453,0.6l-0.502,0.62l-0.46,0.576l-0.548,0.659l-0.456,0.545l-0.585,0.698l-0.428,0.489l-0.654,0.763l-0.293,0.344
		c-1.219,1.403-2.408,2.736-3.418,3.894l-0.095,0.104c-0.29,0.333-0.569,0.658-0.825,0.958c-0.312,0.366-0.727,0.841-1.189,1.364
		c-0.099,0.113-0.214,0.241-0.322,0.361c-2.455,2.776-6.539,7.258-10.592,11.847c-0.062,0.07-0.129,0.144-0.191,0.222l0,0
		c-1.938,2.185-3.854,4.382-5.565,6.418c0.906,0.064,1.803,0.139,2.616,0.234l0.904-0.871c1.809-1.692,3.697-3.29,5.641-4.8
		c1.496-1.156,3.036-2.259,4.623-3.288c0.308-0.201,0.623-0.391,0.935-0.586c1.46-0.921,2.964-1.781,4.503-2.585
		c0.263-0.139,0.52-0.287,0.783-0.413c1.704-0.865,3.474-1.631,5.3-2.344c0.42-0.165,0.855-0.321,1.281-0.477
		c1.896-0.691,3.826-1.325,5.855-1.844c8.72-2.24,17.802-3.846,26.913-4.058l-0.869,0.018l-0.4-0.008l-0.349-0.009l-0.691-0.033
		l-0.193-0.015l-0.688-0.09l-0.257-0.051l-0.508-0.121l-0.264-0.085l-0.428-0.186l-0.232-0.119l-0.38-0.271l-0.161-0.138
		l-0.387-0.546c-0.632-1.367,0.67-3.514,0.812-4.918c-3.641-0.798-3.611-3.461-3.641-6.196c-1.374-0.296-2.85-0.564-3.852-1.502
		c-0.936-0.862-0.956-2.506-1.96-3.251l-0.656-0.32h0.014l0.643,0.32l-0.643-0.331c3.771-1.257,7.61-2.333,11.505-3.162
		c-0.469,0.104-1.032,0.217-1.631,0.307c-0.026,0.011-0.049,0.012-0.076,0.016c-0.6,0.094-1.227,0.156-1.84,0.165
		c-1.311,0.011-2.543-0.271-3.227-1.224c-1.046-1.476-0.164-4.254-0.362-5.914c-1.847-0.085-2.985-0.755-3.764-1.725
		c0.359-0.141,0.715-0.287,1.069-0.423l-0.732,0.267l-0.18,0.049l-0.12,0.033l0.023-0.002l-0.093,0.027
		c-0.968-1.234-1.369-2.959-1.768-4.706c-1.404-0.076-2.857-0.123-4.103-0.734c-0.021-0.756-0.058-1.486-0.179-2.068
		c-0.321,0-0.598-0.048-0.874-0.091c-0.109-0.022-0.244-0.016-0.352-0.039c-0.355-0.092-0.676-0.219-0.976-0.38
		c-0.312-0.428-0.648-0.826-1.096-1.067l-0.194-0.059c-1.076-1.35-1.656-3.359-2.245-5.412c-0.322,0.01-0.66,0.026-0.998,0.026
		l-0.241-0.016l-0.746-0.042l-0.326-0.042l-0.68-0.151l-0.304-0.092l-0.928-0.475c-0.996-0.713-1.608-2.273-2.485-3.185
		c2.306-1.84,4.688-3.555,7.168-5.093l-0.819,0.499l-0.258,0.141l-0.776,0.397l-0.308,0.15c-0.712,0.305-1.459,0.536-2.2,0.563
		l-0.732-0.028h-0.015l-0.777-0.269l-0.191-0.098l-0.733-0.561c-1.631-1.659-1.952-5.535-2.85-7.667
		c-0.449,0.09-0.87,0.106-1.273,0.09l-0.543-0.07l-0.691-0.158l-0.493-0.214l-0.605-0.333l-0.439-0.327l-0.535-0.501l-0.397-0.417
		l-0.499-0.631l-0.351-0.485l-0.483-0.761l-0.3-0.496l-0.526-0.95l-0.222-0.409c-0.242-0.456-0.477-0.927-0.721-1.391
		c-0.405,0.082-0.818,0.171-1.239,0.242l-0.354,0.039l-0.94,0.093l-0.721-0.032l-0.405-0.047c-0.383-0.068-0.777-0.184-1.16-0.378
		c-1.549-0.752-2.764-3.137-4.289-3.68l-0.89-0.138l-0.748,0.171l-0.107,0.067l-0.656,0.471l-0.058,0.054l-0.576,0.67l-0.043,0.059
		l-0.555,0.783l-0.605,0.841l-0.078,0.113l-0.598,0.686l-0.094,0.094l-0.678,0.493l-0.086,0.04l-0.832,0.225l-0.364-0.026
		l-0.305-0.036l-0.265-0.097l-0.271-0.107l-0.242-0.147l-0.256-0.175l-0.211-0.199l-0.229-0.229l-0.193-0.238l-0.22-0.284
		l-0.156-0.241l-0.23-0.343l-0.119-0.218l-0.235-0.423l-0.074-0.148c-0.204-0.384-0.397-0.807-0.59-1.215l-0.006-0.047l-0.007-0.076
		c-0.053-0.561-0.107-1.094-0.207-1.554l-0.059-0.242l-0.156-0.549l-0.102-0.243l-0.205-0.397l-0.128-0.178l-0.278-0.278
		l-0.119-0.095l-0.484-0.141v0.008l-0.628,0.16l-0.063,0.039l-0.057-0.039l-0.627-0.16l-0.485,0.133l0.478-0.133h0.008l-0.008-0.008
		l-0.482,0.141l-0.124,0.095l-0.278,0.267l-0.121,0.19l-0.204,0.397l-0.099,0.243l-0.158,0.538l-0.064,0.257l-0.148,0.88v0.044
		l-0.016,0.066l0.006-0.054l-0.006,0.08l-0.008,0.083l-0.043,0.561v0.014c-0.19,0.418-0.389,0.82-0.59,1.215l-0.072,0.148
		l-0.234,0.423l-0.13,0.218l-0.214,0.343l-0.17,0.241l-0.214,0.284l-0.185,0.238l-0.242,0.229l-0.214,0.199l-0.247,0.175
		l-0.236,0.147l-0.277,0.107l-0.264,0.097l-0.307,0.036l-0.363,0.026l-0.842-0.225l-0.086-0.04l-0.67-0.493l-0.099-0.094
		l-0.593-0.686l-0.086-0.113l-0.596-0.841l-0.557-0.783l-0.049-0.062l-0.569-0.667l-0.058-0.054l-0.656-0.471l-0.113-0.067
		l-0.74-0.171l-0.08-0.014l0.072,0.014h-0.158l0.086-0.014l-0.092,0.014l-0.721,0.138c-1.524,0.542-2.742,2.928-4.286,3.68
		c-0.392,0.194-0.778,0.31-1.163,0.375l-0.42,0.05l-0.712,0.032l-0.938-0.093l-0.365-0.039c-0.412-0.07-0.825-0.16-1.232-0.242
		c-0.235,0.456-0.477,0.919-0.705,1.367l-0.284,0.526l-0.47,0.841l-0.329,0.549l-0.448,0.713l-0.369,0.51l-0.485,0.608l-0.405,0.434
		l-0.528,0.485l-0.45,0.335l-0.605,0.333l-0.488,0.214l-0.691,0.158l-0.542,0.07c-0.407,0.016-0.819,0-1.275-0.09
		c-0.896,2.132-1.228,6.007-2.842,7.667l-0.733,0.561l-0.193,0.098l-0.777,0.263l-0.014,0.006l-0.726,0.028
		c-0.748-0.028-1.51-0.258-2.213-0.563l-0.31-0.15l-0.768-0.397l-0.263-0.141l-0.82-0.499c8.641,5.363,16.227,12.752,23.007,20.868
		c0.349,0.417,0.657,0.873,0.991,1.301c-0.236,0.832-0.59,1.488-1.281,1.609l-0.472-0.043l-0.155-0.028l-0.499-0.284l-0.112-0.101
		l-0.387-0.335l-0.311-0.308l-0.289-0.296l-0.349-0.332l-0.163-0.139l-0.422-0.279l-0.075-0.043h-0.007l-0.494-0.103l-0.625,0.228
		c-0.771,0.55-1.104,2.25-1.854,2.931l-0.84,0.487c-0.314-0.444-0.656-0.786-1.019-1.013l0.101,0.301l-0.108-0.308l-0.007-0.013
		l-0.023-0.074l0.03,0.086l-0.051-0.148l0.015,0.042l-0.02-0.058l0.006,0.015l-0.012-0.037l-0.257-0.804l-0.129-0.478l-0.172-0.716
		l-0.085-0.419c-0.091-0.588-0.113-1.102-0.054-1.528l0.025-0.258l0.258-0.606c0.255-0.355,0.359-0.945,0.354-1.659
		c0-0.321-0.026-0.67-0.085-1.042l-0.035-0.22c-0.043-0.32-0.105-0.641-0.186-0.974l-0.057-0.253
		c-0.107-0.389-0.222-0.775-0.356-1.168l-0.079-0.199l-0.393-0.958l-0.119-0.263c-0.17-0.357-0.357-0.699-0.551-1.007l-0.076-0.113
		l-0.549-0.718l-0.164-0.176l-0.67-0.547l-0.043-0.016l-0.662-0.183h-0.179l0.085-0.026l-0.177,0.026l-0.144,0.024l-0.497,0.202
		c-1.943,1.286-0.514,6.03-3.712,6.644c-0.513-0.261-0.99-0.522-1.373-0.744c0.383,0.222,0.86,0.493,1.365,0.744l-0.078,0.029
		l-0.84-0.015l-0.301-0.036l-0.804-0.252l-0.079-0.03l-0.891-0.44l-0.483-0.276l-0.584-0.341l-0.639-0.343l-0.28-0.136l-0.877-0.319
		l-0.107-0.016l-0.043-0.003h-0.027l-0.021-0.008l0.049,0.008h0.021l-0.226-0.028l0.128,0.02l-0.058-0.008l0.08,0.008l-0.687-0.05
		l0.15-0.012l0.456,0.054l-0.163-0.023l0.093,0.012l-0.386-0.053l-0.156,0.022l-0.187,0.019l-0.896,0.269
		c-1.289,0.674-1.732,2.573-2.979,3.403c-1.338,0.882-3.014,0.902-4.608,0.978c-0.726,3.167-1.369,6.287-5.562,6.479l-0.03,0.611
		c0.009,0.46,0.052,0.97,0.095,1.489c0.048,0.506,0.086,1.036,0.091,1.535l0.007,0.132c0,0.356-0.044,0.696-0.098,1.026
		l-0.051,0.223l-0.37,0.898l-0.607,0.584l-0.02,0.014l-0.734,0.366l-0.035,0.009l-0.834,0.189h-0.049l-0.9,0.068
		c-0.625,0-1.275-0.069-1.877-0.164c-0.237-0.035-0.438-0.085-0.658-0.122C80.79,71.416,80.398,71.346,80.093,71.281z
		 M142.209,112.63l-0.329-0.696c0.079-1.415,0.186-2.832,0.329-4.229c0.143,1.396,0.255,2.806,0.329,4.229L142.209,112.63z
		 M157.581,62.037c0.492-0.651,0.964-1.321,1.474-1.941c0.364-0.44,0.734-0.854,1.099-1.277l-0.139,0.638l-0.155,0.655
		c-0.084,0.374-0.17,0.75-0.27,1.135l-0.178,0.726c-0.095,0.379-0.191,0.749-0.293,1.135l-0.192,0.708l-0.092,0.365l-0.236,0.866
		l-0.177,0.627c-0.156,0.573-0.314,1.149-0.485,1.716l-0.147,0.524c-0.137,0.469-0.272,0.938-0.407,1.402l-0.236,0.806
		c-0.106,0.349-0.205,0.698-0.306,1.04c-0.155,0.51-0.306,1.025-0.449,1.518l-0.19,0.648l-0.015,0.043l-0.114,0.386l0.114-0.375
		c-0.337,1.099-0.637,2.131-0.891,3.046c-0.202,0.718-0.479,1.648-0.806,2.75c-1.561,5.185-4.373,14.191-6.86,22.677
		c-0.383,0.735-0.759,1.453-1.133,2.165c0.009,0,0.009,0,0.015,0.004c-0.724,1.406-1.474,2.84-2.138,4.152
		c-0.006-0.401-0.02-0.838-0.033-1.261v-0.008l-0.01-0.128l0.01,0.12l-0.01-0.261c-0.033-0.993-0.062-2.012-0.105-3.069v-0.039
		c-0.008-0.128-0.014-0.256-0.023-0.378c0.01,0,0.01,0,0.01,0c-0.043-0.941-0.086-1.9-0.129-2.883l-0.008-0.175
		c-0.057-1.089-0.107-2.199-0.171-3.339l-0.015-0.327l-0.029-0.521C146.153,82.945,150.378,71.448,157.581,62.037z M141.053,39.108
		c0.152-2.855,0.493-5.197,1.148-6.525l0.008-0.017l0.106,0.273l-0.114-0.257l0.123,0.276l0.255,0.673l0.134,0.524l0.188,0.784
		l0.105,0.637l0.135,0.909l0.079,0.734l0.021,0.257l0.071,0.789l0.051,0.771c0.021,0.397,0.043,0.806,0.049,1.229l0.037,0.744
		c0.021,1.025,0.027,2.104,0.012,3.21c0,0.462-0.006,0.927-0.012,1.411c-0.008,0.379-0.016,0.767-0.031,1.154
		c-0.006,0.464-0.02,0.932-0.033,1.405v0.031c-0.016,0.39-0.037,0.781-0.043,1.164c-0.021,0.476-0.043,0.963-0.064,1.44
		c-0.016,0.37-0.036,0.736-0.05,1.111c-0.03,0.539-0.052,1.083-0.087,1.618l-0.033,0.881c-0.036,0.592-0.073,1.188-0.108,1.767
		l-0.013,0.302l-0.009,0.209c-0.106,1.742-0.206,3.386-0.284,4.881c-0.037,0.682-0.072,1.336-0.094,1.943
		c-0.026,0.438-0.051,0.958-0.083,1.503l-0.016,0.332c-0.037,0.574-0.07,1.191-0.113,1.876c-0.052,0.778-0.101,1.618-0.165,2.506
		l-0.014,0.225v-0.006c-0.057-0.906-0.115-1.753-0.164-2.536l-0.014-0.209c-0.037-0.676-0.08-1.288-0.115-1.856l-0.014-0.323
		c-0.029-0.555-0.066-1.076-0.079-1.513c-0.029-0.608-0.058-1.261-0.1-1.943c-0.077-1.495-0.178-3.147-0.276-4.884l-0.014-0.206
		l-0.037-0.684c0.094-2.544,0.362-4.684,0.912-5.985c-0.55,1.301-0.818,3.441-0.912,5.977c-0.027-0.455-0.049-0.911-0.078-1.376
		l-0.05-0.881c-0.021-0.535-0.05-1.079-0.079-1.618c-0.013-0.375-0.027-0.735-0.051-1.111c-0.019-0.482-0.043-0.979-0.056-1.462
		c-0.014-0.389-0.03-0.768-0.043-1.159c-0.014-0.478-0.029-0.955-0.044-1.428c-0.005-0.39-0.02-0.775-0.028-1.145
		c-0.014-0.484-0.014-0.949-0.014-1.411C140.94,42.34,140.968,40.654,141.053,39.108z M129.537,66.546l0.028-0.281v-0.017
		l0.078-0.228l-0.071,0.214l0.062-0.224l0.009,0.01c5.513,8.612,8.931,18.706,10.911,29.888l-0.008,0.123l-0.041,0.976
		c-0.057,0.971-0.1,1.936-0.149,2.885l-0.035,0.755c-0.035,0.829-0.07,1.649-0.106,2.463l-0.021,0.628
		c-0.043,0.911-0.07,1.803-0.1,2.672l-0.014,0.747l-0.017,0.468l-0.093-0.33c-0.156-0.562-0.32-1.129-0.475-1.702
		c-0.102-0.364-0.199-0.719-0.309-1.089c-0.212-0.754-0.426-1.499-0.641-2.255l-0.156-0.56c-0.258-0.884-0.504-1.755-0.756-2.631
		l-0.049-0.17l-0.042-0.151c-0.208-0.707-0.407-1.404-0.606-2.085c-0.444-1.519-0.847-2.914-1.238-4.241
		c-0.102-0.348-0.193-0.668-0.287-0.995c0.072,0.245,0.143,0.487,0.223,0.754c-0.265-0.878-0.498-1.708-0.721-2.465
		c-0.072-0.237-0.143-0.486-0.2-0.707c0,0.014,0.009,0.033,0.009,0.053c-0.178-0.623-0.342-1.212-0.486-1.71
		c0.15,0.519,0.309,1.095,0.493,1.721c-0.364-1.265-0.665-2.315-0.863-3.06c-1.416-5.227-4.415-14.86-4.364-18.906L129.537,66.546z"
		/>
	<path style="fill:#FFFFFF;" d="M129.18,120.332c0,1.749,6.396,3.176,14.275,3.176c7.886,0,14.274-1.426,14.274-3.176
		c0-1.745-6.389-3.167-14.274-3.167C135.576,117.165,129.18,118.587,129.18,120.332z"/>
	<polygon style="fill:#FFFFFF;" points="116.999,63.342 116.991,63.342 116.999,63.349 	"/>
</g>
</svg>
