<?xml version="1.0" encoding="UTF-8"?><svg width="100" height="100" id="Layer_1" xmlns="http://www.w3.org/2000/svg" viewBox="0 0 246.37 209.56"><defs><style>.cls-1{fill:#fff;}</style></defs><path class="cls-1" d="M181.13,46.5s3.29-6.92-2.93-19.93c-1.83-3.83-4.22-6.21-7.06-7.99.68-.97,1.29-2.03,1.76-3.2,2.94-7.32-2.87-11.23-2.87-11.23,0,0-1.53,4.38-6.43,8.44-.69.57-1.53,1.07-2.45,1.51-2.04-.8-4.19-1.68-6.42-2.8C147.02,7.45,139.67.23,123.54.02v-.02c-.12,0-.24,0-.36.01-.12,0-.24-.01-.36-.01v.02c-16.13.21-23.47,7.43-31.19,11.29-2.23,1.12-4.38,2-6.42,2.8-.92-.44-1.76-.94-2.45-1.51-4.91-4.07-6.43-8.44-6.43-8.44,0,0-5.82,3.91-2.87,11.23.47,1.17,1.08,2.22,1.76,3.2-2.83,1.78-5.22,4.16-7.05,7.99-6.22,13-2.93,19.93-2.93,19.93-15.14.47-35.64-35.2-65.24,4.27,6.83,23.53,39.38,22.39,65.88,16.27-4.16,29.12,10.05,50.62,20.54,75.1-15.2,7.96-11.54,42.06,1.92,49.43,12.57,3.07,23.14,4.75,34.48,4.71h0c.12,0,.24,0,.36,0,.12,0,.24,0,.36,0h0c11.34.03,21.91-1.65,34.48-4.72,13.47-7.37,17.12-41.47,1.92-49.43,10.49-24.48,24.7-45.98,20.54-75.1,26.5,6.11,59.05,7.26,65.88-16.27-29.6-39.47-50.1-3.8-65.24-4.27ZM103.24,162.05c-3.19,0-5.78-2.37-5.78-5.3s2.59-5.29,5.78-5.29,5.78,2.37,5.78,5.29-2.59,5.3-5.78,5.3ZM143.13,162.05c-3.19,0-5.78-2.37-5.78-5.3s2.59-5.29,5.78-5.29,5.78,2.37,5.78,5.29-2.59,5.3-5.78,5.3Z"/><path class="cls-1" d="M98.61,198.48c3.64,7.67,14.15,11.25,24.58,11.07,10.43.18,20.94-3.4,24.58-11.07-7.01,2.78-15.78,4.14-24.58,4.16-8.8-.02-17.57-1.38-24.58-4.16Z"/></svg>