<?xml version="1.0" encoding="iso-8859-1"?>
<!-- Generator: Adobe Illustrator 30.0.0, SVG Export Plug-In . SVG Version: 9.03 Build 0)  -->
<svg version="1.1" id="Layer_1" xmlns="http://www.w3.org/2000/svg" xmlns:xlink="http://www.w3.org/1999/xlink" x="0px" y="0px"
	 viewBox="0 0 288 288" style="enable-background:new 0 0 288 288;" xml:space="preserve">
<path style="fill:#FFFFFF;" d="M144.124,290.886C63,290.886-3,224.886-3,143.761S63-3.363,144.124-3.363
	c81.125,0,147.125,66,147.125,147.124S225.249,290.886,144.124,290.886z M144.124,2.637C66.308,2.637,3,65.945,3,143.761
	c0,77.816,63.308,141.125,141.124,141.125c77.816,0,141.125-63.309,141.125-141.125C285.249,65.945,221.94,2.637,144.124,2.637z"/>
<g>
	<path style="fill:#FFFFFF;" d="M200.76,97.487c0,0,3.289-6.921-2.93-19.926c-1.833-3.829-4.225-6.206-7.056-7.985
		c0.682-0.975,1.293-2.033,1.763-3.199c2.944-7.32-2.873-11.234-2.873-11.234s-1.526,4.376-6.432,8.443
		c-0.689,0.57-1.526,1.069-2.448,1.507c-2.045-0.802-4.186-1.681-6.419-2.798c-7.717-3.858-15.064-11.074-31.19-11.288v-0.02
		c-0.124,0-0.236,0.01-0.359,0.01c-0.123,0-0.235-0.01-0.359-0.01v0.02c-16.126,0.215-23.474,7.431-31.19,11.288
		c-2.233,1.117-4.376,1.996-6.42,2.798c-0.922-0.438-1.758-0.937-2.447-1.507c-4.907-4.066-6.432-8.443-6.432-8.443
		s-5.817,3.914-2.873,11.234c0.469,1.165,1.081,2.224,1.762,3.199c-2.831,1.779-5.224,4.157-7.055,7.985
		c-6.22,13.005-2.931,19.926-2.931,19.926c-15.14,0.475-35.635-35.203-65.24,4.271c6.832,23.532,39.38,22.386,65.883,16.272
		c-4.159,29.121,10.049,50.625,20.54,75.101c-15.197,7.956-11.542,42.06,1.925,49.427c12.567,3.069,23.136,4.751,34.478,4.711v0.006
		c0.121,0.002,0.239-0.004,0.359-0.003c0.12-0.001,0.238,0.005,0.359,0.003v-0.006c11.342,0.04,21.91-1.642,34.478-4.711
		c13.467-7.367,17.122-41.471,1.925-49.427c10.491-24.476,24.699-45.979,20.54-75.101c26.503,6.114,59.051,7.26,65.883-16.272
		C236.395,62.284,215.899,97.961,200.76,97.487z M122.868,213.031c-3.189,0-5.776-2.373-5.776-5.297
		c0-2.926,2.587-5.295,5.776-5.295c3.191,0,5.779,2.369,5.779,5.295C128.647,210.658,126.059,213.031,122.868,213.031z
		 M162.763,213.031c-3.191,0-5.778-2.373-5.778-5.297c0-2.926,2.587-5.295,5.778-5.295c3.189,0,5.777,2.369,5.777,5.295
		C168.54,210.658,165.952,213.031,162.763,213.031z"/>
	<path style="fill:#FFFFFF;" d="M118.236,249.467c3.636,7.668,14.145,11.251,24.579,11.069c10.434,0.182,20.944-3.401,24.579-11.069
		c-7.011,2.779-15.778,4.138-24.579,4.157C134.014,253.605,125.247,252.246,118.236,249.467z"/>
</g>
</svg>
