<?xml version="1.0" encoding="UTF-8"?><svg width="100" height="100" id="Layer_1" xmlns="http://www.w3.org/2000/svg" viewBox="0 0 4915.71 4915.71"><defs><style>.cls-1{fill:none;stroke:#fff;stroke-miterlimit:10;}.cls-2{fill:#fff;}</style></defs><path class="cls-2" d="M3111.96,2556.6c-49.15,30.76-92.95,69.3-129.64,113.9h-1145.91c-158.49,0-287.41,118.59-287.41,264.35s128.93,264.34,287.41,264.34h585.79c34.32,0,62.16,25.6,62.16,57.17s-27.84,57.17-62.16,57.17h-202.09c-26.11,1.35-62.7,9.26-85.91,58.04-15.85,33.3-17.31,68.12-17.4,71.1v315.16c0,31.58-27.83,57.17-62.16,57.17s-62.16-25.59-62.16-57.17v-316.19c.06-5.73,1.22-57.44,25.9-111.78,2.56-5.6,5.27-11.06,8.14-16.33h-190.11c-55.38,0-109.23-10.09-160.04-29.93-48.97-19.12-92.97-46.47-130.81-81.27-37.83-34.78-67.56-75.26-88.36-120.3-21.58-46.72-32.52-96.24-32.52-147.19s10.94-100.46,32.52-147.19c20.52-44.42,49.73-84.4,86.81-118.87-41.65-3.62-82.18-13.06-120.94-28.2-48.96-19.14-92.97-46.47-130.8-81.27-37.83-34.8-67.57-75.28-88.36-120.31-21.58-46.72-32.53-96.26-32.53-147.18s10.95-100.46,32.53-147.19c20.8-45.03,50.54-85.5,88.36-120.3,37.83-34.8,81.84-62.13,130.8-81.28,50.8-19.85,104.65-29.91,160.05-29.91h245.91c-36.23-34.1-64.79-73.47-84.98-117.15-21.58-46.74-32.52-96.26-32.52-147.18s10.94-100.46,32.52-147.2c20.81-45.03,50.54-85.5,88.38-120.28,37.83-34.81,81.83-62.15,130.8-81.28,50.82-19.85,104.65-29.92,160.05-29.92h178.98c16.51,0,29.95-12.36,29.95-27.56v-84.72c0-31.57,27.84-57.16,62.16-57.16s62.16,25.59,62.16,57.16v84.72c0,78.25-69.2,141.91-154.27,141.91h-178.98c-158.49,0-287.43,118.58-287.43,264.34s128.94,264.34,287.43,264.34h489.4c34.33,0,62.16,25.59,62.16,57.16s-27.83,57.17-62.16,57.17h-1029.56c-158.49,0-287.43,118.59-287.43,264.34s128.94,264.34,287.43,264.34h1521.17c2.6,0,5.15.15,7.67.43Z"/><path class="cls-2" d="M1896.84,2992.02h-22c-34.33,0-62.16-25.59-62.16-57.17s27.83-57.17,62.16-57.17h22c-34.33,0-62.16,25.59-62.16,57.17s27.83,57.17,62.16,57.17Z"/><path class="cls-2" d="M1896.83,2877.68h980.44c-9.36,36.74-14.88,75-16.15,114.33h-201.51c36.26,34.08,64.88,73.47,85.08,117.13,21.61,46.74,32.59,96.27,32.59,147.23s-10.98,100.48-32.59,147.21c-20.84,45.03-50.62,85.51-88.5,120.3-37.88,34.8-81.94,62.13-130.97,81.25-31.64,12.33-64.45,20.9-98.06,25.6v127.1c0,31.58-27.84,57.17-62.16,57.17s-62.16-25.59-62.16-57.17v-237.14h62.16c158.78,0,287.96-118.56,287.96-264.32s-129.18-264.35-287.96-264.35h-468.18c-34.32,0-62.16-25.59-62.16-57.16s27.84-57.17,62.16-57.17Z"/><path class="cls-2" d="M3120.56,2349.01h-1587.71c-34.32,0-62.16-25.59-62.16-57.17s27.84-57.16,62.16-57.16h1221.84c158.49,0,287.43-118.59,287.43-264.35s-128.94-264.32-287.43-264.32h-489.43c-34.33,0-62.16-25.6-62.16-57.17s27.83-57.17,62.16-57.17h199.02c37.78,0,66.49-9.72,87.76-29.71,24.21-22.78,35.72-55.71,41.09-79.33,6.03-26.41,5.84-46.96,5.82-47.17v-277.58c0-31.57,27.83-57.16,62.16-57.16s62.16,25.59,62.16,57.16v275.86c.08,5.98.01,35.23-8.46,72.37-7.19,31.54-18.61,60.37-33.75,85.56h73.61c55.38,0,109.23,10.07,160.04,29.92,48.96,19.14,92.97,46.47,130.8,81.27,37.84,34.78,67.57,75.28,88.36,120.3,21.6,46.74,32.55,96.26,32.55,147.19s-10.95,100.46-32.55,147.2c-20.17,43.69-48.75,83.07-84.98,117.15h71.64c55.44,0,109.36,10.06,160.22,29.91,49.03,19.12,93.1,46.46,130.98,81.24,37.88,34.8,67.66,75.26,88.5,120.31,3.34,7.21,6.41,14.49,9.25,21.83-36.93-8.09-75.3-12.35-114.67-12.35-9.43,0-18.79.24-28.09.74-50.57-76.3-142-127.35-246.19-127.35Z"/><path class="cls-2" d="M3409.57,3453.34c-115.06,0-223.24-44.81-304.6-126.17-81.36-81.36-126.17-189.54-126.17-304.6,0-5.4.1-10.85.31-16.22,1.31-35.62,7.03-70.97,17-104.99,21.12-72.22,61.23-138.04,115.97-190.33,26.11-24.94,55.28-46.54,86.7-64.2,64.03-35.99,136.92-55.02,210.79-55.02,1.02,0,2.05,0,3.07.01,40.99.29,81.53,6.34,120.49,17.98,80.46,24.05,151.72,70.89,206.08,135.46,55,65.31,89.04,144.56,98.46,229.19,1.77,15.92,2.67,32.11,2.67,48.13,0,93.33-29.37,182.15-84.92,256.85-26.71,35.91-58.69,67.34-95.06,93.42-36.86,26.43-77.4,46.76-120.49,60.42-42,13.32-85.84,20.08-130.3,20.08ZM3410.03,2689.58h-.47c-57.12,0-113.44,14.69-162.88,42.48-24.31,13.66-46.88,30.38-67.08,49.68-42.34,40.44-73.34,91.31-89.66,147.1-7.7,26.27-12.11,53.58-13.13,81.18-.16,4.2-.24,8.4-.24,12.55,0,183.61,149.38,332.99,332.99,332.99,34.42,0,68.31-5.22,100.74-15.5,138.92-44.03,232.25-171.62,232.25-317.48,0-12.42-.7-24.98-2.07-37.32-14.79-132.84-107.17-243.45-235.37-281.77-30.12-9-61.51-13.68-93.27-13.89h-.29c-.5,0-1.01,0-1.52,0Z"/><path class="cls-2" d="M3618.64,2956.67h0l-199.73,204.99c-10.26,10.53-23.91,15.82-37.56,15.82s-26.42-4.93-36.59-14.85l-18.44-17.97h-.02s-96.23-93.74-96.23-93.74c-10.02-9.79-15.65-22.88-15.83-36.88,0-.45,0-.88,0-1.31h0c.16-13.55,5.41-26.26,14.88-35.98,20.17-20.71,53.44-21.14,74.15-.97l24.31,23.68h0s52.79,51.46,52.79,51.46l163.14-167.45c20.19-20.71,53.45-21.14,74.17-.97,20.7,20.18,21.13,53.46.96,74.16Z"/><rect class="cls-1" x=".5" y=".5" width="4914.71" height="4914.71"/></svg>