<?xml version="1.0" encoding="UTF-8" standalone="no"?>
<!-- Generator: Adobe Illustrator 30.0.0, SVG Export Plug-In . SVG Version: 9.03 Build 0)  -->

<svg
   version="1.1"
   id="Layer_1"
   x="0px"
   y="0px"
   viewBox="0 0 73127.367 71206.039"
   xml:space="preserve"
   sodipodi:docname="Organic_Circle_Icon.svg"
   inkscape:export-filename="Organic_Icon.svg"
   inkscape:export-xdpi="96"
   inkscape:export-ydpi="96"
   width="73127.367"
   height="71206.039"
   xmlns:inkscape="http://www.inkscape.org/namespaces/inkscape"
   xmlns:sodipodi="http://sodipodi.sourceforge.net/DTD/sodipodi-0.dtd"
   xmlns="http://www.w3.org/2000/svg"
   xmlns:svg="http://www.w3.org/2000/svg"><defs
   id="defs13" /><sodipodi:namedview
   id="namedview13"
   pagecolor="#ffffff"
   bordercolor="#000000"
   borderopacity="0.25"
   inkscape:showpageshadow="2"
   inkscape:pageopacity="0.0"
   inkscape:pagecheckerboard="0"
   inkscape:deskcolor="#d1d1d1"><inkscape:page
     x="0"
     y="0"
     width="73127.367"
     height="71206.039"
     id="page2"
     margin="0"
     bleed="0" /></sodipodi:namedview>

<g
   id="g13"
   inkscape:export-filename="g13.svg"
   inkscape:export-xdpi="96"
   inkscape:export-ydpi="96"
   transform="matrix(1.0748078,0,0,1.0500372,-5645.3633,-5885.6909)">
	<g
   id="g4"
   inkscape:export-filename="g4.svg"
   inkscape:export-xdpi="96"
   inkscape:export-ydpi="96">
		<ellipse
   style="display:none;fill:#000000;stroke-width:0.913136"
   id="path15"
   cx="143.50909"
   cy="144.65456"
   rx="136.3091"
   ry="135.49091" /><g
   id="g3">
			<g
   id="g2">
				<path
   style="fill:#ffffff"
   d="m 187.223,187.107 c -3.189,-15.141 -8.542,-22.627 -8.542,-22.627 4.015,-9.244 11.104,-26.618 12.221,-43.794 1.837,-16.116 -1.789,-32.033 -1.969,-33.049 0.467,0.665 13.233,6.237 28.505,23.056 15.039,16.557 26.459,38.109 29.572,56.261 7.142,30.505 0.766,55.984 -13.853,71.026 -14.806,15.618 -32.338,15.707 -41.559,12.723 27.589,-34.479 33.845,-77.398 21.538,-114.932 7.723,38.553 -7.509,82.46 -35.698,110.731 5.555,-10.2 16.046,-29.636 9.785,-59.395 z"
   id="path2" />
			</g>
		</g>
		<path
   style="fill:#ffffff"
   d="m 88.49,162.258 c 17.365,-12.004 36.885,-17.72 50.854,-14.621 15.783,1.868 27.867,9.912 35.785,21.779 4.231,6.346 7.273,13.779 9.035,21.949 5.347,23.669 -1.05,44.814 -6.606,55.016 -0.045,0.039 -0.079,0.082 -0.121,0.123 -0.061,-0.075 -0.117,-0.148 -0.174,-0.224 -3.257,-10.837 -7.273,-20.432 -11.915,-28.775 -15.185,-27.283 -37.048,-41.08 -60.813,-40.518 30.152,5.224 53.5,34.565 62.722,79.641 -11.374,7.186 -21.851,6.069 -30.495,1.318 -8.848,-5.037 -15.877,-13.702 -25.039,-28.212 -4.993,-8.387 -14.558,-23.575 -26.243,-31.439 -10.663,-8.334 -23.256,-9.956 -24.037,-10.126 0.647,-0.315 9.412,-13.718 27.047,-25.911 z"
   id="path3" />
	</g>
	<g
   id="g12">
		<path
   style="fill:#ffffff"
   d="m 151.525,61.644 0.859,-28.688 c 0.226,-7.396 -2.814,-8.306 -6.737,-2.038 l -15.205,24.335 c -0.838,1.354 -1.798,2.385 -2.808,3.144 8.698,0.7 17.056,3.262 24.521,7.433 -0.425,-1.215 -0.667,-2.594 -0.63,-4.186 z"
   id="path4" />
		<path
   style="fill:#ffffff"
   d="m 64.038,130.588 c -0.639,1.066 -1.523,2.114 -2.721,3.087 l -22.234,18.137 c -5.737,4.686 -4.442,7.576 2.873,6.427 l 28.337,-4.451 c 1.48,-0.227 2.819,-0.209 4,0.014 -4.064,-5.571 -7.227,-11.952 -9.235,-18.984 -0.396,-1.408 -0.725,-2.815 -1.02,-4.23 z"
   id="path5" />
		<path
   style="fill:#ffffff"
   d="m 177.588,86.123 16.219,-23.669 c 4.189,-6.109 2.144,-8.511 -4.554,-5.352 l -25.952,12.25 c -1.437,0.672 -2.795,0.997 -4.074,1.089 6.771,5.109 12.48,11.69 16.625,19.408 0.306,-1.196 0.868,-2.449 1.736,-3.726 z"
   id="path6" />
		<path
   style="fill:#ffffff"
   d="M 83.281,68.664 57.544,55.983 c -6.645,-3.279 -8.729,-0.899 -4.653,5.273 l 15.828,23.941 c 0.877,1.336 1.387,2.639 1.652,3.891 4.165,-7.476 9.924,-14.059 16.95,-19.22 -1.262,-0.121 -2.614,-0.494 -4.04,-1.204 z"
   id="path7" />
		<path
   style="fill:#ffffff"
   d="m 62.763,97.946 -28.518,3.243 c -7.358,0.849 -7.83,3.958 -1.068,6.951 l 26.252,11.592 c 1.42,0.625 2.557,1.395 3.453,2.27 -0.543,-8.76 0.847,-17.358 3.915,-25.268 -1.135,0.593 -2.459,1.035 -4.034,1.212 z"
   id="path8" />
		<path
   style="fill:#ffffff"
   d="m 119.141,58.344 c -1.001,-0.774 -1.94,-1.841 -2.763,-3.21 l -14.79,-24.583 c -3.819,-6.348 -6.866,-5.483 -6.773,1.928 l 0.368,28.688 c 0.02,1.592 -0.226,2.991 -0.672,4.182 3.728,-1.991 7.703,-3.623 11.938,-4.819 4.234,-1.215 8.485,-1.922 12.692,-2.186 z"
   id="path9" />
		<path
   style="fill:#ffffff"
   d="m 255.665,94.596 c 0.062,0.004 0.123,0 0.189,0.002 0.023,-0.142 0.036,-0.28 0.051,-0.419 -0.077,0.14 -0.162,0.278 -0.24,0.417 z"
   id="path10" />
		<g
   id="g11">
			<path
   style="fill:#ffffff"
   d="m 264.405,94.471 c 0,0 0.101,0.134 0.232,0.325 0.005,-0.065 0,-0.138 0.005,-0.202 -0.082,-0.041 -0.164,-0.088 -0.237,-0.123 z"
   id="path11" />
		</g>
	</g>
	<path
   style="display:inline;fill:#ffffff"
   d="m 91.354,154.953 c 17.082,-11.483 36.068,-16.914 49.742,-13.884 8.068,0.952 15.154,3.544 21.225,7.408 6.424,-8.262 10.287,-18.618 10.287,-29.895 0,-26.953 -21.847,-48.8 -48.801,-48.8 -26.95,0 -48.799,21.847 -48.799,48.8 0,14.474 6.338,27.436 16.346,36.371 z"
   id="path12" />
</g>
</svg>
