<?xml version="1.0" encoding="iso-8859-1"?>
<!-- Generator: Adobe Illustrator 30.0.0, SVG Export Plug-In . SVG Version: 9.03 Build 0)  -->
<svg version="1.1" id="Layer_1" xmlns="http://www.w3.org/2000/svg" xmlns:xlink="http://www.w3.org/1999/xlink" x="0px" y="0px"
	 viewBox="0 0 288 288" style="enable-background:new 0 0 288 288;" xml:space="preserve">
<path style="fill:#FFFFFF;" d="M143.841,290.682C62.873,290.682-3,224.81-3,143.841C-3,62.873,62.873-3,143.841-3
	c80.969,0,146.841,65.873,146.841,146.841C290.682,224.81,224.81,290.682,143.841,290.682z M143.841,3C66.181,3,3,66.181,3,143.841
	c0,77.66,63.181,140.841,140.841,140.841c77.66,0,140.841-63.181,140.841-140.841C284.682,66.181,221.501,3,143.841,3z"/>
<path style="fill:#FFFFFF;" d="M271.305,140.235c-1.093-0.348-1.039-2.324-2.868-1.629c-1.489-1.839,1.802-1.779,0-4.066
	c-1.093,1.526-1.442,0.087-2.87,0c-0.645-0.171-0.893-0.905-1.148-1.627c-0.149-1.266-1.26-0.563-1.722,0
	c0.03-1.041,0.733-1.126,0.574-2.439v-0.815c-0.676,0.128-1.629-0.14-1.723,0.815c-1.14-0.012-0.728-2.221-2.297-1.629
	c0-0.814,0.466-0.967,0.575-1.625c0.487,1.754,3.658-0.305,4.018,1.625c1.858,1.006,0.439-2.631,2.295-1.625
	c0.033,0.495,0.087,0.963,0.573,0.812c3.436-4.213,3.104-0.666,2.297-6.505c-1.524-0.016-3.381,0.449-3.443-1.629
	c1.752-0.588,2.092,0.833,3.443,0.813v-0.813c-1.44,0.138-1.798-1.249-2.297-2.441c-1.752,0.588-2.09-0.831-3.441-0.813h-1.723
	c-0.297-2.68-0.857-4.064,0-5.693c0.445,0.181,1.133,0.023,1.148,0.813h2.295c-5.831-7.441-13.082-12.369-20.43-15.482
	c-2.448-0.559-4.895-1.08-7.408-1.271c-1.146-0.573-2.863,1.146-4.012,0.573c-1.145-1.146-2.291-1.719-4.01-1.719
	c0-0.813,0-1.625,0-2.438c-2.932,0.683-5.885-2.109-8.898-3.255c-0.412,0.082-0.499,0.622-0.528,1.249l-1.617,0.142
	c-0.323-1.571-0.752-2.562-0.646-3.53c-2.847-0.563-5.318-1.614-6.643-5.918c0,0-2.293,0.575-2.293,0
	c-4.585-7.449-11.459-3.437-17.76-1.718c0-0.573,0-1.719,0-2.294c-0.572,0-0.572,0.575-1.146,0.575c0-1.72,0-2.866,0-4.582
	c-1.145,1.716-2.864,2.862-5.157,4.008c0-1.146,0-1.716,0-2.862c-1.07,0.427-2.301-0.105-3.485-1.118
	c-1.876-0.445-3.798-1.365-5.709-1.771c-0.662,0.167-0.408,1.227-0.444,2.006c-0.033,0-0.062,0.006-0.096,0.006
	c-1.631-0.004-3.254-0.093-4.852-0.295c-0.01-0.012-0.02-0.023-0.029-0.035c-0.279-0.385-0.442-0.686-0.714-0.369
	c0,0,0,0.004-0.002,0.004c-0.043,0.054-0.092,0.123-0.142,0.214c-0.01,0.015-0.021,0.039-0.027,0.056
	c-0.597-0.091-1.19-0.194-1.777-0.32c-1.572-1.41-3.175-3.111-5.433-1.759c-0.185-0.083-0.369-0.163-0.552-0.253
	c0.293-0.959,1.618-0.466,1.672-1.767c-1.623,0.147-1.338-3.06-2.872-0.815h-0.572c-1.057-2.299-4.567-1.115-4.591-4.882h-0.572
	c-3.695,0.901-4.008-2.992-7.461-2.439h-0.574c-2.035-0.367-2.655-2.746-4.59-3.254c-0.07,1.798-2.433,0.348-3.443,0.814
	c-0.487,0.149-0.54-0.317-0.575-0.814c-1.767-0.569-1.101-0.569-2.868,0c-0.813,0.07-1.625,0.136-1.722-0.813
	c-0.899,0.95-4.449-3.386-5.164,0h-0.573c0.928-2.429-4.044-4.295-6.885-2.439h-0.575c-1.093-3.167-1.565,1.08-4.018-0.814
	c-1.61,0.012,1.369,2.217-1.148,1.627c-0.307,1.171,2.237,1.985,0.575,2.439h-0.575c0.284-1.068-2.846-0.357-2.295,1.627
	c-0.81-1.511-3.08-2.173-3.441,0.813h-0.575c-0.8-3.542-1.988,0.6-2.87,1.627c-0.108,0.922-0.577,0.452-0.573,0
	c-0.853,0.355,0.227,1.041,0,2.44c-3.116-1.879-4.058,1.053-6.885,1.627c0.122-2.394-2.571-1.713-3.443,0h-0.575
	c-1.957-1.978-5.297-0.295-5.74,2.439c-0.926,0.229-0.986-0.769-1.72-0.814c-1.928-0.565-1.879,1.674-2.868,2.441h-0.573
	c-0.559,0.023-0.446,0.996-0.575,1.627c0.676,0.128,1.628-0.14,1.721,0.815c-0.559,0.831-1.134,1.645-1.721,2.439
	c-4.41,0.157-5.151-0.055-10.33,0.812c-0.633,2.629-1.825,4.464-4.588,4.068c-3.371,3.045-7.746,2.346-10.903,4.068
	c0.65,2.905-2.66,3.736-5.165,3.254c0.404,3.012-2.453,1.402-2.868,3.254c0.641,0.171,0.894,0.903,1.146,1.625
	c-0.575,0.004-0.682-0.658-1.146-0.812H48.09c-1.47,3.672-5.862,2.462-8.608,4.066V92.24c-1.751,0.668-1.376,2.287-3.442,0.812
	h-0.575c-2.198,0.404-3.274,2.404-4.585,4.062c0.914,3.231-1.058,2.711-0.579,7.329c-0.753-0.109-4.151-0.124-2.295,0.812
	c2.42-0.14,0.392,1.821,0,2.443c3.02-1.029,3.402,1.684,5.74,1.625v-0.813c1.662,0.456-0.881,1.27-0.575,2.441h-0.575
	c-1.031-2.159-3.579-1.322-5.165,0c-0.831-0.361,0.06-0.713,0-1.627c-5.441,1.19-9.084,4.942-11.476,3.252
	c-0.103,1.777,0.47,2.59,1.722,2.443c-2.559,1.142-3.044,2.07-4.017,4.066h-0.575c-0.38,3.379-0.054,4.734,2.297,2.443
	c0.462-0.431,0.932-0.851,1.72-0.815c1.2-0.344,1.521,0.559,2.295,0.815h0.573c1.746,0.813,0.734,1.34,0,2.439h1.724
	c0.511,0.633,1.295,0.876,2.294,0.813c-0.202,1.07-1.01,1.28-1.148,2.441c1.798-1.907,3.171-0.185,4.015-2.441
	c1.196,1.765,1.857-0.099,2.872-0.813c1.076,0.179,1.936,4.744,2.868,2.439h1.149c0.202,1.277,1.01-0.711,1.146,0.815h0.573
	c0.025,0,0.047,0.006,0.068,0.008c-0.171,0.06-0.361,0.095-0.592,0.072v0.707c0.489,0.006,0.829-0.204,1.163-0.416
	c0.235,0.339,0.367,0.825,0.637,1.114c-0.545,0.08-1.202,0-1.8,0.004c-0.701,5.066-0.986,1.99,1.99,5.643
	c0.421,0.13,0.47-0.274,0.497-0.703c1.608-0.872,0.38,2.28,1.992,1.41c0.309-1.676,3.06,0.109,3.479-1.41
	c0.093,0.569,0.499,0.703,0.497,1.41c-1.357-0.515-1.002,1.402-1.988,1.41c-0.082-0.827-0.909-0.594-1.491-0.705v0.705
	c-0.144,1.14,0.47,1.216,0.497,2.115c-0.404-0.487-1.363-1.095-1.493,0c-0.221,0.629-0.437,1.262-0.996,1.412
	c-1.237,0.078-1.54,1.32-2.487,0c-1.563,1.982,1.291,1.93,0,3.525c-1.586-0.602-1.538,1.111-2.487,1.412
	c1.92,0.738,0.237,2.204,2.487,2.117c-0.464,1.904-2.245,1.264-0.497,2.819h0.497v-0.705c2.464-3.576,5.952-5.283,8.954-6.348
	c-1.158-2.045-2.68,1.326-4.474,0.705c0.292-1.462,0.956-2.402,1.988-2.819c-0.683,2.392,2.684-0.565,4.476-1.41
	c1.534,0.705-1.078,1.162-0.994,2.115c1.928,0.381,2.048-1.796,3.481-2.115h0.499v-0.707c3.041-1.891,4.686-4.167,8.457-3.524
	c-2.033,2.573-1.398,2.693-3.484,3.524c0.208,1.586,2.729-0.103,2.488,2.117c0.674,0.12,0.647-4.084,1.493-1.41h0.497
	c0.042-1.126,2.967-3.237,2.489-0.707h0.497c0.305-0.626,0.6-1.262,0-1.41c0.905,0.029,2.732-1.373,3.979-2.821
	c1.645,3.268,4.076,4.34,4.975,7.052c2.414-0.348,1.563-1.064,3.979-1.41c-1.67-1.831-3.243-0.423-4.478-3.526
	c-0.483,0.02-0.386,0.864-0.497,1.41c-0.853-1.846-2.819-2.114-3.483-4.229c0.015-0.689,0.611-0.549,0.996-0.709
	c0.685,0.709-0.212,1.165,0.994,2.119c1.037-0.396,1.054-1.101,0.499-2.119c1.479,0.938,2.522,0.727,3.483-0.703
	c-0.076-1.755-1.686-0.208-1.992,0c-1.394-0.693,0.722-1.882-0.497-2.821c0.163,0.019,0.316,0.05,0.47,0.083
	c0.272,0.596,0.515,1.227,0.812,1.786c0.108-0.47,0.184-0.955,0.233-1.435c2.163,1.007,3.303,3.47,4.454,5.913
	c4.454,7.32,13.352,8.34,19.402,13.398c0.481,0.02,0.384,0.862,0.497,1.41c0.61-0.307,1.02-0.901,0.994-2.115
	c0.404,0.135,0.495,0.707,0.994,0.705c0.027,1.293-2.547,2.389-0.994,3.526c-0.138,1.448-1.328,1.406-1.988,2.112
	c1.035,1.406,0.016,3.014-0.996,3.526c3.105,2.505,4.557-3.398,5.969-5.639c1.472,0.613-1.152,1.057-0.499,2.819
	c1.207-1.11,2.202-2.522,2.986-4.231c1.922,0.966,2.291-1.627,3.98,0c6.153,0.68,10.449,3.995,13.429,9.168
	c0.915,1.425,3.499,5.413,4.989,7.348c1.765,4.012,3.609,7.735,5.65,10.68c0.215,4.352,0.169,4.045,0.573,8.132
	c0.483,4.196,1.46,6.474,0.503,11.22c0,0,0.521,72.981,0.192,74.805c3.268,0.076,5.662,0.143,8.948,0.105
	c-0.053-0.492-0.01-72.376,0.112-73.114c-0.202-6.52,1.916-9.757,4.018-13.016c0.318-0.569,0.654-1.114,0.996-1.654
	c0.066-0.108,0.136-0.214,0.202-0.32c0.334-0.511,0.676-1.008,1.027-1.493c0.067-0.098,0.14-0.19,0.208-0.28
	c0.334-0.456,0.677-0.902,1.03-1.336c0.041-0.05,0.08-0.101,0.123-0.155c0.372-0.458,0.757-0.9,1.146-1.34
	c0.095-0.103,0.188-0.207,0.283-0.311c0.381-0.419,0.767-0.835,1.159-1.238c0.084-0.086,0.173-0.171,0.257-0.259
	c0.348-0.352,0.696-0.695,1.052-1.035c0.092-0.089,0.183-0.18,0.276-0.27c0.39-0.371,0.786-0.732,1.184-1.093
	c0.138-0.129,0.281-0.257,0.421-0.381c0.355-0.318,0.713-0.633,1.072-0.943c0.199-0.175,0.401-0.346,0.602-0.518
	c0.226-0.196,0.452-0.387,0.682-0.581c3.124-2.645,6.334-5.173,9.281-8.068c0.031-0.028,0.059-0.056,0.088-0.083
	c0.458-0.45,0.91-0.913,1.354-1.383c0.004-0.004,0.006-0.004,0.01-0.008c0.167-0.179,0.336-0.365,0.503-0.546
	c0.002,0,0.002,0,0.002,0l0.006-0.009c0.684-0.75,1.35-1.53,1.99-2.346c0.071-0.094,0.144-0.187,0.213-0.28
	c0.239-0.307,0.473-0.621,0.703-0.939c0.082-0.108,0.163-0.222,0.241-0.334c0.293-0.416,0.578-0.831,0.858-1.271
	c3.439-5.967,8.392-9.788,15.491-10.57c1.949-1.88,2.373,1.11,4.592,0c0.903,1.969,2.053,3.596,3.443,4.88
	c0.757-2.037-2.268-2.548-0.575-3.255c1.63,2.587,3.306,9.395,6.886,6.507c-1.165-0.594-2.344-2.446-1.146-4.066
	c-0.764-0.817-2.136-0.771-2.297-2.44c1.792-1.312-1.175-2.575-1.145-4.068c0.572,0.004,0.681-0.658,1.145-0.812
	c-0.029,1.398,0.442,2.084,1.147,2.441c0.128-0.634,0.018-1.606,0.574-1.63c6.98-5.833,17.241-7.009,22.379-15.456
	c1.608-3.41,3.192-6.862,6.886-7.321c-1.405,1.083,1.035,2.456-0.574,3.254c-0.352-0.237-2.21-2.023-2.296,0
	c1.105,1.647,2.31,1.892,4.018,0.812c-0.643,1.173-0.617,1.986,0.575,2.441c1.391-1.099,0.355-1.625,1.146-2.441
	c0.444,0.185,1.134,0.023,1.149,0.815c-0.765,2.441-3.033,2.75-4.018,4.88c-0.128-0.629-0.016-1.604-0.574-1.626
	c-1.426,3.577-3.239,1.954-5.163,4.066c2.784,0.4,1.804,1.228,4.59,1.625c1.037-3.126,3.841-4.361,5.738-8.134
	c1.439,1.67,3.546,3.289,4.59,3.254c-0.693,0.173-0.352,0.905,0,1.627h0.575c-0.554-2.922,2.817-0.485,2.868,0.814h0.574
	c0.977-3.082,0.944,1.767,1.721,1.627c-0.275-2.561,2.631-0.61,2.87-2.441c-2.408-0.958-1.674-1.099-4.016-4.068
	c4.346-0.74,6.244,1.885,9.753,4.068v0.814h0.573c1.654,0.367,1.796,2.88,4.016,2.439c0.099-1.097-2.917-1.623-1.146-2.439
	c2.066,0.977,5.951,4.387,5.165,1.627c1.19,0.479,1.955,1.565,2.295,3.253c-2.073,0.716-3.829-3.175-5.165-0.812
	c3.462,1.228,7.487,3.194,10.33,7.32v0.815h0.573c2.012-1.796-0.039-1.058-0.573-3.254
	C271.033,142.775,269.093,141.083,271.305,140.235z M45.884,135.763c-0.612-0.307-1.021-0.905-0.996-2.115
	c-0.402,0.134-0.493,0.705-0.994,0.703h-0.498c0.639-1.824,1.029-2.216,2.488-1.412c0.091,0.602-0.192,0.668-0.497,0.709
	c0.093,0.8,0.499,0.39,0.497,0c0.421-0.132,0.47,0.274,0.497,0.703c0.955-0.907-1.173-1.458,0-3.524
	c1.414,1.041,0.716-1.212,2.986,0C48.88,133.427,47.109,134.208,45.884,135.763z M51.358,134.352c-0.402-0.488-1.363-1.097-1.493,0
	c-1.105,2.398-0.441,0.691-0.996-0.703c0.654-0.251,0.785-1.245,1.495-1.412h0.994V134.352z M57.325,136.468
	c1.322-2.101,3.416-2.833,3.982-4.231c1.272,0.074,2.369,0.4,2.982,1.412C60.488,135.551,60.85,136.648,57.325,136.468z
	 M215.645,117.456c1.464,0.429,2.006,1.079,2.868-0.813c1.558,0.744-0.584,2.85-0.575,4.068c-1.433,1.074-1.796-3.216-2.293-0.813
	C214.793,119.544,215.871,118.856,215.645,117.456z M208.758,116.643c0.488-0.15,0.54,0.318,0.573,0.813h0.573
	c1.479-2.563,2.737,2.031,5.167,0.813c-2.469,2.117,0.312,1.556,0.574,4.068c0.666,0.132,1.02-0.178,1.146-0.812
	c0.636,3.089-3.485,6.431-6.887,6.505c-0.831,2.413-2.237-1.072-4.016,0c-0.104-3.118,0.47-0.295,1.722-0.812
	c-0.203-1.068-1.008-1.28-1.148-2.441c-0.536,0.596-0.87,1.478-1.147,2.441c-0.813,1.262,0.312-2.346-1.723-2.441
	c-0.104-0.691,0.226-0.767,0.575-0.813c1.782-1.068,1.639,0.221,4.018,0c-1.214-0.99-1.668-3.06-3.443-3.254
	c0.171-0.958,3.037-2.043,1.147-3.254c0.155-2.851,2.543,1.472,2.297-0.813H208.758z M201.298,109.322
	c1.145,1.338,2.01,2.278,2.87,0c0.083,1.779,1.446,1.747,2.87,1.627c0.254,0.724,0.503,1.454,1.147,1.625
	c0.802,0.29,0.049,1.435-0.575,1.627c0.092-2.652-2.344-0.055-3.442-2.439c0.023,2.081-0.428,0.992-1.148,0.812
	C202.18,111.868,201.201,111.359,201.298,109.322z M199.577,109.322c1.135,0.563,1.53,2.169,1.721,4.068
	c-1.091-0.346-1.037-2.327-2.87-1.627C198.803,110.936,199.748,110.924,199.577,109.322z M190.395,121.526
	c0.489,0.149,0.542-0.318,0.575-0.815c0.322,1.984,0.56,0.458,2.297,2.441c-0.521,1.963-3.238,0.348-3.444-0.814
	c-0.804,0.288-0.047,1.433,0.572,1.627c-0.359,1.979-2.898,0.431-2.293-1.627c0.975,0.299,1.082-0.635,1.147-1.627
	C189.915,120.578,190.269,120.889,190.395,121.526z M174.33,116.643c0.486-0.15,0.54,0.318,0.573,0.813
	c0.558-0.023,0.444-0.994,0.573-1.628c1.825,0.082,3.676,0.913,5.739-2.438c0.67,1.262-1.303,2.237,1.148,3.253h1.148
	c1.619,0.674,1.483-1.146,2.865-0.814c-0.175,1.878,1.658,0.905,1.725,2.441c0.466,0.157,0.571,0.817,1.147,0.813
	c-2.14,1.755-7.02,5.371-8.607,0.814c-1.082-0.994-2.656,0.388-3.443-2.441c-0.706,0.357-1.179,1.042-1.147,2.441
	C175.208,119.19,174.233,118.679,174.33,116.643z M187.414,131.188c-0.373,0-0.373-0.812,0-0.812
	C187.783,130.376,187.783,131.188,187.414,131.188z M176.051,122.337c0.4-3.922,2.614,1.037,2.868-0.812
	C180.194,124.229,177.317,123.654,176.051,122.337z M176.624,123.965v3.254c-1.837-1.65-2.021-0.93-4.018-1.627
	C173.325,122.483,174.958,125.728,176.624,123.965z M166.298,121.526c1.511,0.245,1.881-1.13,1.718-3.256
	c0.756,0.288,0.905,1.435,1.725,1.628h1.721c-0.179-1.105-1.438-0.674-2.296-0.814c0.092-0.943-0.126-1.448-0.574-1.627
	c0.682-1.676,2.485,0.851,3.442-1.628c1.303,0.594,1.717,2.451,2.297,4.068c0.298,2.348-4.648,4.239-7.46,4.881
	C166.944,123.32,166.167,123.062,166.298,121.526z M165.723,135.354c0.841-1.89,1.817,1.588,1.721-1.627
	c0.755,0.829,2.114,0.798,2.872,1.627c-0.226,3.21-2.335,3.742-3.445,5.695c-0.652-0.155-0.318-0.815,0-0.813
	c-0.108-0.924-0.576-0.452-0.572,0C165.029,140.134,166.053,136.782,165.723,135.354z M158.646,124.221
	c0.016-0.027,0.033-0.054,0.055-0.082c0.169-0.256,0.342-0.519,0.515-0.777c0.018-0.027,0.039-0.054,0.057-0.081
	c0.089-0.13,0.179-0.26,0.268-0.392c0.035-0.047,0.068-0.093,0.103-0.144c0.088-0.121,0.177-0.239,0.265-0.357
	c0.035-0.045,0.073-0.089,0.108-0.134c0.094-0.116,0.187-0.235,0.281-0.343c0.025-0.027,0.047-0.051,0.072-0.078
	c0.233-0.26,0.48-0.504,0.746-0.714c0.186-0.149,0.382-0.29,0.59-0.408v3.254c-0.12,0.052-0.24,0.12-0.361,0.188
	c-0.018,0.01-0.031,0.017-0.046,0.027c-0.359,0.212-0.723,0.474-1.078,0.693c-0.082,0.05-0.163,0.097-0.245,0.14
	c-0.014,0.008-0.024,0.016-0.036,0.023c-0.078,0.041-0.153,0.078-0.231,0.111c-0.01,0.006-0.02,0.01-0.031,0.014
	c-0.169,0.072-0.332,0.116-0.491,0.132c-0.02,0-0.039,0-0.058,0c-0.057,0-0.113-0.004-0.168-0.012
	c-0.026-0.004-0.052-0.01-0.075-0.016c-0.051-0.015-0.099-0.033-0.147-0.054c-0.023-0.012-0.049-0.023-0.074-0.039
	c-0.048-0.029-0.097-0.064-0.145-0.104c-0.02-0.018-0.041-0.035-0.062-0.055c-0.066-0.066-0.131-0.142-0.19-0.235
	C158.393,124.594,158.517,124.41,158.646,124.221z M157.115,126.404c1.454-1.682-1.21,1.101-0.575,3.254
	c-1.427,0.126-1.774-1.278-2.868-1.627C154.591,125.347,155.817,128.148,157.115,126.404z M151.379,126.404
	c0.534,0.462,0.868,2.264,1.146,0.815c1.076,1.27-0.582,2.831,1.723,3.254c-0.422,0.757-1.045,1.231-1.723,1.626
	c-3.513,1.256-5.984,3.99-9.181,5.695c1.507-4.369,3.301-8.332,6.886-9.763C150.74,127.672,151.255,127.316,151.379,126.404z
	 M147.934,110.949c-0.048,1.155-0.095,2.303,0.573,2.441c-0.13,1.172-1.711,0.283-1.721,1.627c-0.829-0.185-0.201-2.427-1.147-2.443
	C146.018,111.483,146.864,111.062,147.934,110.949z M142.196,111.763c1.872-0.211,2.759,0.967,2.868,3.254
	C142.213,116.602,140.919,115.559,142.196,111.763z M145.064,119.897c-1.062,1.205-0.86,4.204-2.868,4.068
	c-1.272-1.173,0.72-1.984-0.575-2.439C144.085,120.054,141.443,115.611,145.064,119.897z M139.274,106.733
	c0.188,0.08,0.404,0.119,0.627,0.147c-1.04,1.944-4.493,0.459-5.74,0c0.041-0.18,0.083-0.334,0.13-0.474
	C135.641,107.767,137.509,107.596,139.274,106.733z M130.145,100.372c1.07,0.113,1.917,0.536,2.297,1.627
	c0.802-0.286,0.047-1.429-0.575-1.627c0.055-0.171,0.109-0.311,0.163-0.431c0.175-0.081,0.321-0.241,0.423-0.468
	c0.622-0.072,1.192,2.342,1.707,2.526c-1.237,2.235-2.633-0.808-4.016,0.815V100.372z M124.483,140.699
	c-0.286,1.239,0.6,4.144-0.497,4.231c0-0.392-0.404-0.802-0.499,0c0.275,0,0.565,0.571,0,0.705
	c-0.961-1.689-2.793-2.153-2.985-4.936c0.655-0.719,1.833-0.691,2.488-1.41C122.907,142.078,123.755,139.064,124.483,140.699z
	 M119.009,123.772c0.831,2.146,2.394-0.041,2.987,1.412c-0.389,0.155-0.581,0.59-0.498,1.41c-0.746,0.121-1.837-0.252-1.992,0.705
	h1.493c0.709-0.169,0.839-1.161,1.494-1.41c-0.14,1.845,0.182,3.035,1.493,2.819c0.11,1.336-0.562,1.559-0.499,2.823
	c-2.437-0.559-6.727-2.2-6.466-4.233C117.522,125.895,117.881,124.287,119.009,123.772z M115.031,130.827
	c1.443,1.526,2.86-1.284,3.481,1.41c-1.728,0.604-1.889-0.02-3.481,1.412V130.827z M113.84,130.336
	c-0.074-0.482-0.136-0.963-0.19-1.439c0.664-0.524,1.641-1.813,1.88,0.518C115.083,129.877,114.411,130.231,113.84,130.336z
	 M113.534,123.81c0.851,0.205,1.676,0,2.493-0.037c0.111,0.548,0.014,1.393,0.497,1.412c0.027-0.431,0.074-0.837,0.497-0.705
	c0.083,1.765-0.765,2.207-1.491,2.819c0.025-1.211-0.384-1.808-0.996-2.115c-0.266,0.96-0.639,1.355-1.049,1.54
	C113.444,125.738,113.46,124.765,113.534,123.81z M110.056,124.479c1.26-0.524,1.171-1.035,1.01-1.59
	c0.892,0.114,1.703,0.521,1.291,3.515c-0.788-0.288-1.891-1.047-2.765-1.924H110.056z M110.635,127.219
	c0.86,1.93-3.443-1.161-4.016-2.441C107.879,122.524,108.97,127.355,110.635,127.219z M105.677,136.384c0.32,0,0.32,0.705,0,0.705
	C105.357,137.089,105.357,136.384,105.677,136.384z M104.654,131.217c-0.507,0.518-1.241,0.596-1.499-0.167
	C103.611,130.939,104.116,131.018,104.654,131.217z M95.133,118.132c-0.147,1.386,0.672,1.398,0.994,2.116
	c-1.087-0.416-1.408,0.258-1.804,0.824c-0.119-0.132-0.229-0.253-0.328-0.361c-0.074-0.014-0.148-0.027-0.222-0.043
	C93.982,119.476,94.356,118.518,95.133,118.132z M88.665,119.544c1.233,0.103,2.414,0.13,2.487-1.412
	c0.744,1.975,1.497,1.161,2.487,0c0.062,1.295-0.378,1.876-0.905,2.338c-1.373-0.252-2.767-0.474-4.148-0.711
	C88.613,119.685,88.64,119.615,88.665,119.544z M82.178,126.342c2.218,0.984,4.544,1.852,6.898,2.695
	c-0.462,0.604-0.839,1.328-1.406,1.79c2.066,0.19,1.94-0.928,3.484,0c0.303,0.039,0.588,0.105,0.497,0.705
	c-1.765,0.084-0.787,3.21-1.491,2.117c-0.241-0.835-0.532-1.6-0.996-2.117c-0.119,1.006-0.818,1.189-0.995,2.117
	c1.086,0.449,1.583-2.002,1.494,0.703c-1.542-0.928-2.761,2.091-3.484,0c-2.947-0.064-6.52-2.961-5.969-5.643
	c0.108,0.552,0.418,0.821,0.994,0.707C81.409,127.44,83.394,127.648,82.178,126.342z M78.576,124.565
	c0.085,0.044,0.167,0.093,0.249,0.138c0.491,0.971,0.88,0.979,1.505,0.777c0.291,0.144,0.584,0.287,0.884,0.425
	c0.128,0.742,0.565,1.155-0.01,1.394c-0.431-2.081-0.744,1.637-1.988,0.707C79.223,126.994,77.521,125.271,78.576,124.565z
	 M93.145,142.109c-8.237,0.016-16.327-7.592-16.915-15.515c3.031,4.167,5.084,9.717,10.445,10.579h4.975
	c0.303,0.038,0.588,0.107,0.499,0.704c2.181-0.74,1.633,2.387,3.481,2.117C98.941,140.437,94.652,144.682,93.145,142.109z
	 M101.103,135.058c0.12,1.004,0.817,1.188,0.994,2.115c-2.21,2.984-6.839,0.12-8.457-2.115c2.198-1.118,2.027-1.95,2.487,0.705
	c0.328-3.396,1.614-2.01,2.956-3.002c0.254,0.105,0.513,0.213,0.765,0.322c0.116,0.392,0.142,0.682-0.239,1.268
	c0.728,0.235,1.813-0.041,2.747-0.095c0.567,0.283,1.126,0.573,1.672,0.876C103.122,136.384,102.24,135.272,101.103,135.058z
	 M105.58,146.342c-0.53,1.552-3.511-0.977-1.988-2.117c0.615,1.724,1.445-2.112,2.485-2.116
	C106.437,144.266,105.219,144.185,105.58,146.342z M109.557,147.754c-0.87-0.648-2.481-0.247-2.982-1.412
	c0.919-2.225,1.299-5.21,2.982-6.348c0.602,1.557,1.433,1.645,2.338,1.451c0.767,0.973,1.509,2.068,2.229,3.27
	c-0.031,0.072-0.059,0.146-0.087,0.215c0.062-0.031,0.114-0.052,0.173-0.078c1.635,2.761,3.163,6.045,4.658,9.521
	C116.24,151.354,113.31,148.752,109.557,147.754z M130.363,166.638c-4.132-0.159-8.802-12.389-11.858-20.473
	c-0.396-1.047-0.808-2.145-1.215-3.276c0.202-0.082,0.443-0.107,0.726-0.076h0.497c0.367-1.583,1.897,0.992,1.99,2.117
	c1.369,1.349,2.53,2.995,3.484,4.936c1.528,1.491,5.225,8.285,7.359,11.87C131.01,163.383,130.664,165.01,130.363,166.638z
	 M131.945,158.66c-2.087-3.021-5.784-9.819-6.963-11.613c-0.656-2.192,0.293-6.68,0.497-8.464c0.239,1.258,0.528-0.307,0.994-0.705
	c0.151,1.664,1.726,1.311,1.491,3.526h0.497v-2.115c0.528-0.211,0.94-0.594,1.328-1.004c0.874,1.425,1.744,2.75,2.581,3.948
	C133.444,148.352,132.864,153.65,131.945,158.66z M133.588,138.606c-0.56-1.01-1.142-1.992-1.725-2.969
	c0.435-0.357,0.747-0.767,0.602-1.404c-0.058-0.25-1.456-1.183-2.547-1.956c-0.254-0.46-0.503-0.93-0.744-1.406
	c0.561-0.235,1.322-0.511,1.188-0.569l1.208-5.142c1.616,2.058,2.868,4.635,4.312,6.938
	C135.505,134.817,134.099,136.08,133.588,138.606z M131.293,119.897c0.194-0.839,0.357-1.721,0.626-2.453
	c0.555-0.303,1.097-0.916,1.301-1.542c0.266-0.089,0.573-0.122,0.942-0.074c0.095,0.948-0.125,1.449-0.573,1.628
	c1.371,2.245,1.4,3.984,2.295,8.136C133.969,124.241,133.394,120.986,131.293,119.897z M137.031,122.337
	c0.142-0.885,1.142-0.551,1.147-1.627c1.185,0.699,0.606,5.662,0,6.509C136.792,125.967,137.899,122.45,137.031,122.337z
	 M141.046,181.723c-2.243,0.472-2.748-2.071-2.842-8.305c-1.528-10.851,0.064-16.787,1.697-27.488
	c4.616-4.846,9.722-8.994,15.494-12.204c0.185-1.905,2.501-0.79,2.87-2.441c0.163,0.121,0.314,0.254,0.464,0.395
	c0.163,0.149,0.32,0.309,0.472,0.468c0.163,0.175,0.326,0.346,0.489,0.513c0.108,0.112,0.218,0.221,0.33,0.324
	c0.047,0.04,0.094,0.081,0.14,0.122c0.104,0.089,0.21,0.171,0.32,0.249c0.049,0.035,0.096,0.07,0.145,0.102
	c0.163,0.103,0.328,0.196,0.507,0.268v2.439h0.574c-0.27-2.552,1.544-2.147,1.721-4.066c0.536,0.46,0.87,2.262,1.147,0.813
	c0.232,2.058,1.328,7.235,0.574,9.763c-0.173,0.264-0.354,0.54-0.539,0.819c-0.051,0.078-0.104,0.157-0.155,0.237
	c-0.153,0.228-0.308,0.46-0.463,0.695c-0.059,0.089-0.122,0.181-0.183,0.27c-0.163,0.245-0.332,0.491-0.499,0.741
	c-0.05,0.072-0.099,0.144-0.147,0.218c-0.45,0.654-0.914,1.316-1.386,1.965c-0.027,0.039-0.057,0.076-0.086,0.115
	c-0.204,0.275-0.411,0.553-0.617,0.823c-0.051,0.065-0.102,0.13-0.148,0.194c-0.198,0.254-0.395,0.501-0.591,0.741l-0.138,0.171
	c-0.236,0.289-0.476,0.569-0.713,0.835c-0.157,0.179-0.316,0.346-0.474,0.513c-0.124,0.132-0.248,0.259-0.371,0.379
	c-0.032,0.035-0.067,0.067-0.103,0.099c-0.183,0.181-0.365,0.35-0.546,0.507c-0.075,0.068-0.153,0.134-0.228,0.198
	c-0.084,0.066-0.161,0.13-0.241,0.19c-0.124,0.095-0.246,0.186-0.367,0.268c-0.054,0.035-0.102,0.07-0.157,0.104
	c-0.142,0.093-0.285,0.171-0.425,0.244c-0.045,0.023-0.088,0.043-0.132,0.062c-0.159,0.073-0.318,0.143-0.475,0.187
	C153.546,166.354,146.357,172.707,141.046,181.723z M182.936,143.487c-0.477,0.128-0.939,0.274-1.396,0.429
	c-0.138,0.045-0.271,0.093-0.405,0.144c-0.33,0.121-0.656,0.243-0.977,0.377c-0.135,0.054-0.267,0.109-0.4,0.165
	c-0.402,0.177-0.802,0.361-1.192,0.557c-0.023,0.016-0.051,0.023-0.075,0.037c-0.416,0.212-0.82,0.436-1.222,0.668
	c-0.118,0.071-0.239,0.143-0.361,0.218c-0.285,0.173-0.569,0.351-0.849,0.535c-0.12,0.08-0.244,0.157-0.365,0.239
	c-0.334,0.23-0.668,0.462-0.99,0.703c-0.046,0.033-0.093,0.061-0.136,0.097c-0.367,0.274-0.723,0.556-1.075,0.845
	c-0.117,0.092-0.232,0.188-0.346,0.283c-0.249,0.206-0.493,0.418-0.738,0.634c-0.12,0.101-0.241,0.205-0.356,0.312
	c-0.277,0.25-0.554,0.503-0.825,0.757c-0.066,0.062-0.132,0.122-0.198,0.185c-0.326,0.311-0.648,0.629-0.971,0.947
	c-0.12,0.123-0.24,0.243-0.359,0.365c-0.212,0.212-0.421,0.43-0.627,0.645c-0.132,0.137-0.266,0.272-0.395,0.408
	c-0.209,0.226-0.417,0.446-0.627,0.67c-0.179,0.194-0.357,0.387-0.534,0.58c-0.215,0.233-0.429,0.467-0.643,0.703
	c-0.229,0.249-0.454,0.501-0.68,0.754c-0.041,0.043-0.081,0.089-0.122,0.134c-0.833,0.928-1.664,1.862-2.503,2.782
	c-0.163,0.183-0.326,0.361-0.493,0.54c-0.33,0.365-0.664,0.727-1,1.08c-0.014,0.015-0.027,0.03-0.041,0.042
	c-0.299,0.318-0.6,0.63-0.904,0.944c-0.078,0.081-0.16,0.163-0.241,0.244c-0.247,0.253-0.499,0.503-0.75,0.75
	c-0.089,0.085-0.179,0.175-0.266,0.26c-0.289,0.28-0.581,0.556-0.876,0.827c-0.044,0.039-0.085,0.082-0.128,0.121
	c-0.336,0.307-0.676,0.609-1.021,0.904c-0.083,0.074-0.171,0.144-0.256,0.214c-0.257,0.222-0.52,0.435-0.785,0.648
	c-0.116,0.089-0.232,0.183-0.35,0.271c-0.252,0.196-0.505,0.389-0.763,0.575c-0.11,0.081-0.224,0.163-0.336,0.244
	c-0.367,0.261-0.736,0.513-1.112,0.754c0.13-0.67,0.273-1.316,0.431-1.949c0.051-0.21,0.108-0.408,0.163-0.61
	c0.11-0.421,0.222-0.839,0.342-1.244c0.068-0.228,0.142-0.449,0.214-0.674c0.118-0.369,0.236-0.734,0.367-1.096
	c0.073-0.221,0.155-0.438,0.236-0.656c0.132-0.35,0.269-0.695,0.408-1.035c0.083-0.199,0.167-0.405,0.254-0.604
	c0.149-0.346,0.307-0.689,0.464-1.025c0.084-0.175,0.165-0.35,0.251-0.524c0.179-0.367,0.369-0.726,0.559-1.079
	c0.067-0.132,0.136-0.265,0.205-0.389c0.257-0.462,0.519-0.912,0.791-1.352c0.008-0.018,0.016-0.035,0.025-0.047
	c0.297-0.481,0.6-0.949,0.912-1.405c0.138-0.206,0.279-0.4,0.42-0.599c1.342-1.881,2.81-3.586,4.344-5.189l0.209-0.215
	c0.478-0.493,0.964-0.98,1.455-1.459c1.097-2.24,2.433-4.139,4.018-5.695c0.104-1.297,1.867-4.27,2.291-2.441h0.574
	c1.251-0.149,1.825,0.664,1.723,2.441c0.558,0.021,0.444,0.996,0.573,1.627c0.9-0.352,0.491-2.56,2.297-1.627
	c-0.499-1.192-0.86-2.579-2.297-2.441c2.229-5.04,5.706,1.307,7.46-3.254c1.941,1.313,2.383,4.755,3.441,7.323
	C185.799,143.208,183.942,142.746,182.936,143.487z M187.527,141.862c0.415-2.489-0.991-2.395-0.575-4.884
	c1.2,0.004,2.157,4.433,2.87,2.441C191.573,140.736,188.137,143.652,187.527,141.862z M191.544,131.285
	c0.202-1.068,1.01-1.279,1.148-2.441c-1.342,0.252-2.371,1.594-3.443,0c0.61-1.845,3.607-0.309,5.163-0.814
	c-0.689-1.068-0.225-1.277,0-2.439c1.748,2.268,3.589-0.361,4.016,4.066c0.532-3.061,0.334-2.101,2.87-0.814
	C199.434,131.425,194.09,134.726,191.544,131.285z M201.873,136.979c-1.74,2.967-6.691-1.928-2.87-2.439
	c2.132,0.311,1.501-3.295,4.018-2.44c-0.107-0.689,0.223-0.767,0.572-0.814h5.738c6.184-0.994,8.554-7.396,12.049-12.202
	C220.704,128.221,211.372,136.998,201.873,136.979z M243.188,130.474c-4.064,0.21-3.648-1.058-8.033-3.254
	c0.707-1.167,1.974-1.542,3.443-1.627C239.246,127.204,241.661,128.05,243.188,130.474z M251.794,128.031
	c-0.149-1.266-1.257-0.563-1.719,0v-2.439h1.145c0.819,0.194,0.967,1.34,1.721,1.627
	C252.303,128.829,253.065,130.796,251.794,128.031z M257.533,127.219c0.029,1.398-0.444,2.086-1.148,2.439
	c-1.413-1.793-3.456-2.695-4.017-5.693c2.616-1.4,1.812,1.204,3.443,0c1.355,2.384-1.104,3.021,0,4.066
	c0.031-0.495,0.085-0.963,0.574-0.812c-0.004,0.451,0.465,0.922,0.571,0c-0.35-0.046-0.678-0.121-0.571-0.815
	c1.68-0.928,2.131-0.478,2.866,1.627h-0.572C258.104,128.037,257.998,127.374,257.533,127.219z"/>
</svg>
