<?xml version="1.0" encoding="UTF-8"?><svg width="100" height="100" id="Layer_1" xmlns="http://www.w3.org/2000/svg" viewBox="0 0 167.87 171.62"><defs><style>.cls-1{fill:#fff;}</style></defs><path class="cls-1" d="M28.05,150.46c5.87,0,10.65-4.78,10.65-10.65s-4.78-10.65-10.65-10.65-10.65,4.78-10.65,10.65,4.78,10.65,10.65,10.65ZM23.49,139.81c0-2.51,2.04-4.56,4.56-4.56s4.56,2.04,4.56,4.56-2.04,4.56-4.56,4.56-4.56-2.04-4.56-4.56Z"/><path class="cls-1" d="M160.11,111.75h-33.32l28.35-17.52c3.62-2.25,4.75-7.04,2.51-10.67l-21.35-34.55c-1.43-2.3-3.9-3.67-6.6-3.67-1.43,0-2.84.4-4.07,1.16l-29.71,18.37s-.05.02-.07.03l-3.85,2.38,1.88-4.13s0,0,0,0l14.54-31.82c.86-1.89.94-4,.21-5.94-.73-1.93-2.16-3.47-4.05-4.34L67.67,4.21c-1.02-.47-2.11-.71-3.23-.71-3.04,0-5.8,1.78-7.04,4.53l-1.3,2.84v-3.12c0-4.27-3.48-7.75-7.75-7.75H7.75C3.48,0,0,3.48,0,7.75v144.98c0,4.15,3.29,7.54,7.4,7.73.19,4.11,3.58,7.4,7.75,7.4h5.95l.05.08c1.42,2.31,3.88,3.68,6.59,3.68,1.43,0,2.84-.4,4.07-1.16l4.2-2.61h124.09c4.28,0,7.76-3.48,7.76-7.75v-40.6c0-4.27-3.48-7.75-7.76-7.75ZM25.57,163.5c-.1-.22-.22-.43-.38-.62l-1.43-2.31,7.17,3.27-2.32,1.43c-.74.45-1.82.2-2.27-.54l-.77-1.24ZM50.01,24.87v14.45H6.09V7.75c0-.91.74-1.66,1.66-1.66h40.6c.91,0,1.66.74,1.66,1.66v17.12ZM56.1,145.92l16.82-36.82,12.87,20.82-29.69,18.35v-2.36ZM56.1,121.82s0-.03,0-.04,0-.03,0-.04v-28.83l14.49,6.61-.85,1.85s0,.03-.01.05l-5.79,12.69-7.83,17.14v-9.43ZM38.67,160.67c-.07-.03-.13-.06-.2-.08l-.24-.11h4.52l-.1.22c-.16.36-.5.66-.92.82-.43.16-.89.16-1.26-.01l-1.8-.83ZM100.22,121.01l-9.24,5.71-15.01-24.29,11.49-25.16,9.02-5.58,23.09,37.35-19.35,11.96ZM50.01,79.02H6.09v-33.61h43.91v33.61ZM50.01,85.12v33.61H6.09v-33.61h43.91ZM49.48,160.4s.06-.01.08-.02c.27-.04.53-.1.78-.16.11-.03.22-.07.33-.1.15-.05.29-.1.43-.15.09-.03.18-.06.27-.09.42-.18.81-.4,1.19-.65.03-.02.06-.04.09-.06.51-.34.97-.74,1.39-1.2,0,0,0-.01.01-.02.34-.37.65-.77.91-1.21.05-.09.09-.18.14-.27.05-.09.1-.19.15-.28.06-.11.12-.22.17-.33l26.93-16.64v22.55h-33.51l.62-1.37ZM88.46,135.45l28.48-17.6h5.14v43.91h-33.61v-26.31ZM151.93,89.05l-27.18,16.8-23.09-37.35,27.17-16.81c.74-.46,1.83-.2,2.29.54l21.34,34.53c.48.78.24,1.81-.54,2.29ZM82.32,73.85s-.02.04-.03.06l-9.16,20.07-14.43-6.59-2.59-1.18v-4.09s0-.03,0-.04,0-.03,0-.04v-32.77l30.98,14.15-4.77,10.44ZM102.89,28.8l-13.28,29.06-33.51-15.31v-.15s0-.03,0-.04,0-.03,0-.04v-16.79l6.84-14.99c.17-.37.5-.67.92-.83.42-.16.89-.15,1.27.03l36.92,16.86c.41.19.72.52.88.94.15.41.14.86-.04,1.26ZM50.01,124.82v27.9c0,.07,0,.14-.01.19,0,.05-.01.09-.02.11,0,0,0,0,0,0,0,.03-.02.07-.03.1-.03.11-.08.2-.13.29-.04.07-.06.16-.11.22-.05.08-.12.13-.18.2-.06.06-.11.14-.18.19-.08.06-.17.09-.25.14-.07.04-.14.09-.21.11-.17.06-.35.09-.53.09H7.75c-.91,0-1.66-.74-1.66-1.66v-27.9h43.91ZM16.54,160.48l.79,1.29h-2.19c-.79,0-1.46-.55-1.63-1.29h3.02ZM128.17,117.85h31.94c.92,0,1.67.74,1.67,1.66v40.6c0,.91-.75,1.66-1.67,1.66h-31.94v-43.91Z"/></svg>