<?xml version="1.0" encoding="iso-8859-1"?>
<!-- Generator: Adobe Illustrator 30.0.0, SVG Export Plug-In . SVG Version: 9.03 Build 0)  -->
<svg version="1.1" id="Layer_1" xmlns="http://www.w3.org/2000/svg" xmlns:xlink="http://www.w3.org/1999/xlink" x="0px" y="0px"
	 viewBox="0 0 288 288" style="enable-background:new 0 0 288 288;" xml:space="preserve">
<g>
	<path style="fill:#FFFFFF;" d="M144.124,1.886c-78.23,0-141.875,63.645-141.875,141.875s63.645,141.875,141.875,141.875
		c78.231,0,141.876-63.645,141.876-141.875S222.355,1.886,144.124,1.886z M144.124,279.851c-75.04,0-136.089-61.05-136.089-136.09
		c0-75.04,61.049-136.09,136.089-136.09c75.04,0,136.09,61.049,136.09,136.09C280.214,218.801,219.164,279.851,144.124,279.851z"/>
	<path style="fill:#FFFFFF;" d="M96.683,208.45c5.873,0,10.651-4.778,10.651-10.652c0-5.873-4.778-10.651-10.651-10.651
		c-5.874,0-10.652,4.778-10.652,10.651C86.031,203.672,90.81,208.45,96.683,208.45z M92.125,197.798
		c0-2.513,2.045-4.558,4.559-4.558c2.513,0,4.557,2.045,4.557,4.558c0,2.514-2.044,4.559-4.557,4.559
		C94.169,202.356,92.125,200.312,92.125,197.798z"/>
	<path style="fill:#FFFFFF;" d="M228.736,169.745H195.42l28.353-17.521c3.619-2.253,4.747-7.038,2.514-10.67l-21.352-34.547
		c-1.43-2.298-3.897-3.669-6.601-3.669c-1.433,0-2.84,0.399-4.07,1.156l-29.706,18.372c-0.022,0.013-0.047,0.02-0.069,0.034
		l-3.85,2.381l1.883-4.125c0.001-0.002,0.001-0.005,0.002-0.007l14.536-31.821c0.863-1.887,0.938-3.996,0.208-5.938
		c-0.727-1.934-2.164-3.473-4.049-4.335L136.3,62.196c-1.022-0.468-2.108-0.706-3.229-0.706c-3.037,0-5.803,1.78-7.043,4.53
		l-1.297,2.84V65.74c0-4.273-3.476-7.749-7.749-7.749H76.378c-4.272,0-7.749,3.476-7.749,7.749v144.979
		c0,4.153,3.287,7.545,7.395,7.731c0.187,4.108,3.585,7.396,7.747,7.396h5.955l0.05,0.081c1.418,2.306,3.883,3.683,6.593,3.683
		c1.433,0,2.839-0.399,4.071-1.157l4.204-2.606h49.396h39.706h34.988c4.281,0,7.764-3.477,7.764-7.749v-40.603
		C236.5,173.222,233.018,169.745,228.736,169.745z M94.198,221.488c-0.104-0.218-0.225-0.428-0.379-0.617l-1.43-2.312l7.17,3.274
		l-2.318,1.435c-0.739,0.452-1.822,0.198-2.275-0.537L94.198,221.488z M118.637,82.862V97.31H74.723V65.74
		c0-0.913,0.743-1.656,1.655-1.656h40.603c0.913,0,1.656,0.743,1.656,1.656V82.862z M124.73,203.91l16.821-36.819l12.873,20.825
		l-29.694,18.351V203.91z M124.73,179.811c0-0.015,0.004-0.029,0.004-0.043s-0.004-0.029-0.004-0.043v-28.827l14.488,6.615
		l-0.846,1.853c-0.007,0.015-0.008,0.031-0.015,0.046l-5.795,12.69l-7.833,17.143V179.811z M107.297,218.659
		c-0.065-0.03-0.132-0.059-0.199-0.084l-0.235-0.107h4.518l-0.099,0.217c-0.165,0.364-0.499,0.663-0.917,0.821
		c-0.428,0.161-0.892,0.155-1.264-0.015L107.297,218.659z M168.848,179.003l-9.24,5.71l-15.012-24.286l11.494-25.159l9.017-5.577
		l23.088,37.346L168.848,179.003z M118.637,137.015H74.723v-33.612h43.914V137.015z M118.637,143.109v3.047v30.564H74.723v-33.612
		H118.637z M118.112,218.387c0.029-0.004,0.055-0.013,0.084-0.018c0.265-0.042,0.526-0.096,0.783-0.165
		c0.111-0.029,0.218-0.066,0.327-0.1c0.145-0.046,0.289-0.096,0.431-0.15c0.088-0.033,0.18-0.056,0.267-0.093
		c0.421-0.177,0.815-0.403,1.195-0.65c0.031-0.02,0.062-0.041,0.093-0.062c0.509-0.341,0.974-0.742,1.39-1.198
		c0.005-0.005,0.01-0.011,0.014-0.016c0.338-0.372,0.651-0.769,0.915-1.209c0.052-0.087,0.091-0.183,0.14-0.272
		c0.051-0.093,0.098-0.188,0.146-0.283c0.056-0.112,0.121-0.217,0.172-0.333l26.927-16.637v22.55H117.49L118.112,218.387z
		 M157.089,193.438l28.477-17.6h5.136v43.914h-33.612V193.438z M220.562,147.044l-27.18,16.797l-23.092-37.354l27.175-16.807
		c0.741-0.455,1.834-0.196,2.291,0.539l21.344,34.532C221.579,145.532,221.336,146.562,220.562,147.044z M150.945,131.839
		c-0.01,0.02-0.023,0.038-0.032,0.059l-9.164,20.071l-14.427-6.587l-2.592-1.184v-4.093c0-0.015,0.004-0.029,0.004-0.043
		s-0.004-0.029-0.004-0.043v-32.771l30.981,14.15L150.945,131.839z M171.519,86.794l-13.275,29.061l-33.513-15.306V100.4
		c0-0.015,0.004-0.029,0.004-0.043s-0.004-0.029-0.004-0.043V83.525l6.844-14.985c0.167-0.369,0.502-0.671,0.922-0.828
		c0.424-0.159,0.887-0.149,1.271,0.026l36.918,16.858c0.409,0.188,0.722,0.521,0.878,0.937
		C171.718,85.944,171.702,86.392,171.519,86.794z M118.637,182.814v20.434v7.471c0,0.074-0.005,0.136-0.011,0.186
		c-0.006,0.05-0.014,0.088-0.022,0.115c0,0.001,0,0.003-0.001,0.004c-0.009,0.033-0.017,0.068-0.025,0.102
		c-0.028,0.107-0.084,0.198-0.13,0.294c-0.036,0.074-0.062,0.156-0.107,0.223c-0.052,0.076-0.121,0.134-0.184,0.2
		c-0.06,0.063-0.112,0.135-0.181,0.188c-0.076,0.058-0.165,0.093-0.25,0.137c-0.072,0.038-0.137,0.087-0.214,0.114
		c-0.168,0.058-0.346,0.091-0.531,0.091h-0.867H92.851h-5.985h-7.812h-2.675c-0.913,0-1.655-0.742-1.655-1.655v-27.904H118.637z
		 M85.168,218.468l0.794,1.285h-2.189c-0.793,0-1.459-0.55-1.629-1.285H85.168z M196.795,175.839h31.941
		c0.921,0,1.67,0.742,1.67,1.655v40.603c0,0.913-0.749,1.656-1.67,1.656h-31.941V175.839z"/>
</g>
</svg>
