<?xml version="1.0" encoding="iso-8859-1"?>
<!-- Generator: Adobe Illustrator 30.0.0, SVG Export Plug-In . SVG Version: 9.03 Build 0)  -->
<svg version="1.1" id="Layer_1" xmlns="http://www.w3.org/2000/svg" xmlns:xlink="http://www.w3.org/1999/xlink" x="0px" y="0px"
	 viewBox="0 0 288 288" style="enable-background:new 0 0 288 288;" xml:space="preserve">
<path style="fill:#FFFFFF;" d="M144.124,290.886C63,290.886-3,224.886-3,143.761S63-3.363,144.124-3.363
	c81.125,0,147.125,66,147.125,147.124S225.249,290.886,144.124,290.886z M144.124,2.637C66.308,2.637,3,65.945,3,143.761
	c0,77.816,63.308,141.125,141.124,141.125c77.816,0,141.125-63.309,141.125-141.125C285.249,65.945,221.94,2.637,144.124,2.637z"/>
<g>
	<g>
		<g>
			<g>
				<path style="fill:#FFFFFF;" d="M187.223,187.107c-3.189-15.141-8.542-22.627-8.542-22.627
					c4.015-9.244,11.104-26.618,12.221-43.794c1.837-16.116-1.789-32.033-1.969-33.049c0.467,0.665,13.233,6.237,28.505,23.056
					c15.039,16.557,26.459,38.109,29.572,56.261c7.142,30.505,0.766,55.984-13.853,71.026
					c-14.806,15.618-32.338,15.707-41.559,12.723c27.589-34.479,33.845-77.398,21.538-114.932
					c7.723,38.553-7.509,82.46-35.698,110.731C182.993,236.302,193.484,216.866,187.223,187.107z"/>
			</g>
		</g>
		<path style="fill:#FFFFFF;" d="M88.49,162.258c17.365-12.004,36.885-17.72,50.854-14.621c15.783,1.868,27.867,9.912,35.785,21.779
			c4.231,6.346,7.273,13.779,9.035,21.949c5.347,23.669-1.05,44.814-6.606,55.016c-0.045,0.039-0.079,0.082-0.121,0.123
			c-0.061-0.075-0.117-0.148-0.174-0.224c-3.257-10.837-7.273-20.432-11.915-28.775c-15.185-27.283-37.048-41.08-60.813-40.518
			c30.152,5.224,53.5,34.565,62.722,79.641c-11.374,7.186-21.851,6.069-30.495,1.318c-8.848-5.037-15.877-13.702-25.039-28.212
			c-4.993-8.387-14.558-23.575-26.243-31.439c-10.663-8.334-23.256-9.956-24.037-10.126C62.09,187.854,70.855,174.451,88.49,162.258
			z"/>
	</g>
	<g>
		<path style="fill:#FFFFFF;" d="M151.525,61.644l0.859-28.688c0.226-7.396-2.814-8.306-6.737-2.038l-15.205,24.335
			c-0.838,1.354-1.798,2.385-2.808,3.144c8.698,0.7,17.056,3.262,24.521,7.433C151.73,64.615,151.488,63.236,151.525,61.644z"/>
		<path style="fill:#FFFFFF;" d="M64.038,130.588c-0.639,1.066-1.523,2.114-2.721,3.087l-22.234,18.137
			c-5.737,4.686-4.442,7.576,2.873,6.427l28.337-4.451c1.48-0.227,2.819-0.209,4,0.014c-4.064-5.571-7.227-11.952-9.235-18.984
			C64.662,133.41,64.333,132.003,64.038,130.588z"/>
		<path style="fill:#FFFFFF;" d="M177.588,86.123l16.219-23.669c4.189-6.109,2.144-8.511-4.554-5.352l-25.952,12.25
			c-1.437,0.672-2.795,0.997-4.074,1.089c6.771,5.109,12.48,11.69,16.625,19.408C176.158,88.653,176.72,87.4,177.588,86.123z"/>
		<path style="fill:#FFFFFF;" d="M83.281,68.664L57.544,55.983c-6.645-3.279-8.729-0.899-4.653,5.273l15.828,23.941
			c0.877,1.336,1.387,2.639,1.652,3.891c4.165-7.476,9.924-14.059,16.95-19.22C86.059,69.747,84.707,69.374,83.281,68.664z"/>
		<path style="fill:#FFFFFF;" d="M62.763,97.946l-28.518,3.243c-7.358,0.849-7.83,3.958-1.068,6.951l26.252,11.592
			c1.42,0.625,2.557,1.395,3.453,2.27c-0.543-8.76,0.847-17.358,3.915-25.268C65.662,97.327,64.338,97.769,62.763,97.946z"/>
		<path style="fill:#FFFFFF;" d="M119.141,58.344c-1.001-0.774-1.94-1.841-2.763-3.21l-14.79-24.583
			c-3.819-6.348-6.866-5.483-6.773,1.928l0.368,28.688c0.02,1.592-0.226,2.991-0.672,4.182c3.728-1.991,7.703-3.623,11.938-4.819
			C110.683,59.315,114.934,58.608,119.141,58.344z"/>
		<path style="fill:#FFFFFF;" d="M255.665,94.596c0.062,0.004,0.123,0,0.189,0.002c0.023-0.142,0.036-0.28,0.051-0.419
			C255.828,94.319,255.743,94.457,255.665,94.596z"/>
		<g>
			<path style="fill:#FFFFFF;" d="M264.405,94.471c0,0,0.101,0.134,0.232,0.325c0.005-0.065,0-0.138,0.005-0.202
				C264.56,94.553,264.478,94.506,264.405,94.471z"/>
		</g>
	</g>
	<path style="fill:#FFFFFF;" d="M91.354,154.953c17.082-11.483,36.068-16.914,49.742-13.884c8.068,0.952,15.154,3.544,21.225,7.408
		c6.424-8.262,10.287-18.618,10.287-29.895c0-26.953-21.847-48.8-48.801-48.8c-26.95,0-48.799,21.847-48.799,48.8
		C75.008,133.056,81.346,146.018,91.354,154.953z"/>
</g>
</svg>
