<?xml version="1.0" encoding="UTF-8"?><svg width="100" height="100" id="Layer_1" xmlns="http://www.w3.org/2000/svg" viewBox="0 0 208.59 180.94"><defs><style>.cls-1{fill:#fff;}</style></defs><path class="cls-1" d="M44.65,32.18c-1.32.99-2.04,2.55-2.13,4.62,0,.14,0,.28,0,.42,0,12.83,23.12,50.51,61.68,84.09,39.01,33.97,79.99,54.58,95.59,54.19,2.97-.07,5.24-.85,6.73-2.31,10.26-10.01-18.8-53.23-59.79-88.92-26.41-23-51.19-36.56-63.61-42.59-9.33-4.53-31.76-14.54-38.46-9.5ZM107.89,118.09c-25.79-22.46-41.17-43.57-48.05-54.16-9.72-14.98-12.13-23.51-12.13-26.82,0-.79.14-1.28.35-1.49,1.27-.93,11.28-.28,32.5,10.03,12.18,5.92,36.5,19.23,62.46,41.84,19.94,17.37,37.27,36.47,48.78,53.8,12.57,18.91,12.57,27.16,10.81,28.87-.48.47-1.54.75-2.98.79-12.65.31-51.57-17.89-91.74-52.87ZM44.65,32.18h0Z"/><path class="cls-1" d="M0,32.04l.41,3.94s18.49-3.94,27.74,5.54c.4.41.78.77,1.16,1.1-3.91,8.27,18.88,48.57,60.48,84.8,43.69,38.04,90.61,59.7,98.52,51.98.52-.51.91-1.17,1.15-1.95-17.3-2.57-54.6-22.58-89.81-53.25C60.7,90.26,38.23,52.77,38.75,41.35c-.15-.03-.3-.05-.44-.08,1.13-2.92,1.18-7.04.12-10.13,0,0-.08-.04-.23-.11-1.67-9.22,7.07-20.39,16.91-24.65,3.47-1.5,9.23-3.05,14.57-.2.04.02.08.05.12.08-1.65,1.6-2.97,3.53-3.82,5.82-3.07,7.95.46,10.88,2.13,11.77,2.95,1.58,7.15.9,10-1.62,2.97-2.62,4.6-7.54.26-13.49-.66-.88-1.39-1.67-2.14-2.4,4.14-2.26,9.51-3,14.41-2.55,3.24.3,6.8,1.2,9.85,2.83.67.36,1.31.77,1.92,1.2-.41.3-.82.61-1.21.95-2.43,2.16-6.53,7.01-6.47,11.51.04,1.98.88,3.72,2.47,5.06,3.69,3.03,7.05,2.32,8.71,1.63,4.27-1.76,6.57-6.87,6.27-10.6,0-.02,0-.04,0-.05-.35-2.94-1.48-5.47-3.17-7.61,4.68-1.42,10.09-.38,14.53,1.99,1.22.65,2.37,1.4,3.41,2.23,1.35,1.06,3.08,2.83,4.51,4.74-.27.07-.55.13-.83.21-4.84,1.52-8.37,6.41-7.13,9.86.35.97,1.98,4.02,8.29,2.54,4.38-1,5.86-3.25,6.33-4.95.44-1.55.17-3.27-.48-4.98,3.59-.25,7.3.1,11.16.48,6.1.6,12.4,1.22,18.62-.68,1.1-.34,1.68-1.38,1.29-2.34-.17-.41-.49-.74-.89-.95-.52-.28-1.18-.36-1.79-.17-5.31,1.62-10.87,1.08-16.76.5-4.41-.43-8.94-.86-13.47-.35-1.86-2.81-4.34-5.3-6.03-6.63-1.23-.97-2.58-1.86-4.02-2.62-5.93-3.16-13.37-4.36-19.68-1.8-1.08-.86-2.26-1.63-3.51-2.3-3.5-1.86-7.55-2.97-11.5-3.34-6.16-.57-12.94.5-18.06,3.64-.38-.23-.75-.48-1.14-.69-5.34-2.84-11.89-2.92-18.65.01-10.65,4.6-19.83,15.89-19.45,26.24-6.9-2.22-20.49-4.86-33.8,2.7ZM132.07,21.33c.47-.14.95-.25,1.42-.36.58,1.29.84,2.51.57,3.49-.11.4-.45,1.62-3.33,2.28-1.71.4-3.03.36-3.19-.1-.41-1.15,1.43-4.33,4.52-5.31ZM104.21,11.35c.37-.32.75-.61,1.14-.88,1.4,1.7,2.38,3.74,2.67,6.18.21,2.75-1.63,6.08-3.88,7.01-.46.19-1.87.77-4.01-.97-.77-.64-1.14-1.45-1.16-2.46-.05-3.06,3.12-7,5.24-8.88ZM69.99,13.22c.66-1.79,1.71-3.3,3.02-4.55.63.61,1.24,1.27,1.83,2.05,2.55,3.49,2.65,6.83.28,8.93-1.44,1.27-3.55,1.75-4.8,1.07-1.3-.7-2.07-3.02-.34-7.5Z"/><path class="cls-1" d="M77.38,44.46c-5.22-4.55-13.68-4.55-18.9,0-5.23,4.54-5.22,11.92,0,16.46,5.22,4.55,13.68,4.55,18.9,0,5.22-4.55,5.22-11.92,0-16.46ZM77.24,53.54c-.23.81-1.17,1.3-2.1,1.1-.93-.2-1.5-1.02-1.28-1.83.13-.49,1.18-4.86-3.75-6.58-.89-.31-1.33-1.2-.97-1.98.36-.77,1.37-1.15,2.26-.84,6.29,2.19,6.57,7.58,5.84,10.13Z"/><path class="cls-1" d="M106.76,59.67c-8.51-7.41-22.31-7.41-30.82,0-8.51,7.41-8.51,19.43,0,26.84,8.51,7.41,22.31,7.41,30.82,0,8.51-7.41,8.51-19.43,0-26.84ZM108.23,76.07c-.08.84-.92,1.46-1.88,1.38-.95-.07-1.67-.8-1.59-1.64,0-.12,1.06-12.31-6.85-13.56-.95-.15-1.58-.94-1.4-1.76.17-.82,1.08-1.37,2.03-1.22,11.02,1.75,9.77,16.19,9.71,16.8Z"/><path class="cls-1" d="M141.69,85.79c-9.87-8.59-25.88-8.59-35.75,0-9.87,8.6-9.87,22.54,0,31.14,9.87,8.6,25.88,8.6,35.75,0,9.87-8.6,9.87-22.54,0-31.14ZM143.32,105.91c-.96-.1-1.63-.86-1.52-1.69.02-.09,1.12-8.43-3.75-13.72-2.31-2.5-5.65-3.96-9.95-4.32-.96-.08-1.65-.83-1.56-1.66.09-.83.95-1.44,1.91-1.36,5.27.44,9.42,2.28,12.34,5.46,5.79,6.3,4.53,15.58,4.48,15.97-.12.83-.99,1.42-1.94,1.32Z"/><path class="cls-1" d="M171.48,116.03c-8.51-7.41-22.31-7.41-30.82,0-8.51,7.41-8.51,19.43,0,26.84,8.51,7.41,22.31,7.41,30.82,0,8.51-7.41,8.51-19.43,0-26.84ZM170.8,137.7c-.89-.31-1.34-1.18-.99-1.97.24-.53,5.74-13.13-6.48-17.79-.88-.34-1.28-1.23-.9-2,.38-.77,1.41-1.12,2.29-.78,12.25,4.67,10.81,16.23,8.33,21.69-.35.78-1.36,1.16-2.26.85Z"/><path class="cls-1" d="M193.06,142.33c-6.13-5.34-16.06-5.34-22.19,0-6.13,5.33-6.13,13.99,0,19.33,6.13,5.33,16.06,5.33,22.19,0,6.13-5.33,6.13-13.99,0-19.32ZM192.34,157.88c-.93-.22-1.48-1.05-1.23-1.85.11-.35,2.55-8.68-4.7-11.51-.88-.35-1.27-1.24-.88-2.01.39-.77,1.43-1.11,2.3-.77,7.97,3.13,7.82,11.22,6.64,15.07-.25.81-1.2,1.29-2.14,1.07Z"/></svg>