<?xml version="1.0" encoding="iso-8859-1"?>
<!-- Generator: Adobe Illustrator 30.0.0, SVG Export Plug-In . SVG Version: 9.03 Build 0)  -->
<svg version="1.1" id="Layer_1" xmlns="http://www.w3.org/2000/svg" xmlns:xlink="http://www.w3.org/1999/xlink" x="0px" y="0px"
	 viewBox="0 0 288 288" style="enable-background:new 0 0 288 288;" xml:space="preserve">
<path style="fill:#FFFFFF;" d="M143.841,290.682C62.873,290.682-3,224.81-3,143.841C-3,62.873,62.873-3,143.841-3
	c80.969,0,146.841,65.873,146.841,146.841C290.682,224.81,224.81,290.682,143.841,290.682z M143.841,3C66.181,3,3,66.181,3,143.841
	c0,77.66,63.181,140.841,140.841,140.841c77.66,0,140.841-63.181,140.841-140.841C284.682,66.181,221.501,3,143.841,3z"/>
<g>
	<g>
		<path style="fill:#FFFFFF;" d="M75.949,77.392c-1.322,0.994-2.039,2.545-2.126,4.619c-0.006,0.14-0.008,0.28-0.008,0.423
			c0,12.832,23.123,50.513,61.681,84.09c39.012,33.972,79.991,54.578,95.594,54.193c2.973-0.072,5.236-0.851,6.727-2.309
			c10.261-10.014-18.8-53.229-59.789-88.922c-26.412-23.002-51.192-36.558-63.614-42.593C105.083,82.36,82.654,72.356,75.949,77.392
			z M139.194,163.305c-25.791-22.456-41.173-43.571-48.045-54.16C81.424,94.163,79.021,85.63,79.021,82.327
			c0-0.794,0.14-1.283,0.346-1.489c1.266-0.93,11.278-0.277,32.501,10.033c12.181,5.918,36.498,19.226,62.462,41.835
			c19.944,17.372,37.268,36.474,48.776,53.801c12.57,18.912,12.568,27.155,10.81,28.868c-0.481,0.472-1.542,0.753-2.979,0.794
			C218.286,216.482,179.365,198.284,139.194,163.305z M75.949,77.392L75.949,77.392L75.949,77.392z"/>
	</g>
	<path style="fill:#FFFFFF;" d="M31.301,77.252l0.413,3.938c0,0,18.494-3.938,27.738,5.544c0.4,0.412,0.785,0.765,1.159,1.095
		c-3.915,8.272,18.882,48.567,60.484,84.797c43.689,38.045,90.609,59.697,98.52,51.976c0.524-0.509,0.905-1.165,1.154-1.952
		c-17.296-2.572-54.603-22.585-89.811-53.247c-38.96-33.925-61.426-71.418-60.908-82.84c-0.151-0.031-0.295-0.049-0.444-0.078
		c1.132-2.924,1.185-7.041,0.118-10.127c0,0-0.078-0.039-0.225-0.111c-1.674-9.223,7.068-20.391,16.915-24.651
		c3.468-1.497,9.228-3.05,14.573-0.204c0.043,0.025,0.083,0.054,0.124,0.076c-1.653,1.602-2.969,3.528-3.822,5.817
		c-3.074,7.948,0.462,10.878,2.13,11.769c2.946,1.58,7.149,0.897,10-1.619c2.967-2.621,4.598-7.542,0.256-13.488
		c-0.664-0.881-1.386-1.666-2.136-2.396c4.14-2.26,9.513-3.002,14.412-2.546c3.245,0.301,6.8,1.2,9.853,2.825
		c0.668,0.361,1.307,0.765,1.922,1.198c-0.413,0.301-0.815,0.61-1.208,0.95c-2.433,2.159-6.532,7.01-6.466,11.511
		c0.035,1.981,0.879,3.724,2.47,5.062c3.693,3.031,7.049,2.325,8.715,1.633c4.266-1.763,6.575-6.874,6.272-10.602
		c-0.002-0.02-0.002-0.035-0.002-0.053c-0.346-2.936-1.483-5.474-3.169-7.612c4.684-1.417,10.09-0.38,14.532,1.991
		c1.22,0.648,2.367,1.398,3.41,2.225c1.349,1.064,3.083,2.827,4.507,4.744c-0.274,0.074-0.552,0.128-0.827,0.212
		c-4.841,1.522-8.375,6.408-7.133,9.856c0.35,0.971,1.979,4.018,8.29,2.543c4.376-1.004,5.862-3.25,6.334-4.951
		c0.437-1.55,0.175-3.266-0.477-4.979c3.594-0.247,7.305,0.105,11.159,0.481c6.099,0.598,12.404,1.216,18.619-0.683
		c1.098-0.338,1.678-1.383,1.29-2.34c-0.167-0.414-0.486-0.744-0.886-0.954c-0.52-0.276-1.177-0.357-1.794-0.167
		c-5.313,1.624-10.87,1.076-16.762,0.503c-4.414-0.433-8.942-0.864-13.466-0.352c-1.856-2.812-4.338-5.297-6.025-6.627
		c-1.228-0.971-2.579-1.857-4.02-2.624c-5.933-3.165-13.375-4.355-19.68-1.8c-1.078-0.86-2.26-1.629-3.509-2.299
		c-3.495-1.862-7.55-2.973-11.503-3.34c-6.156-0.569-12.94,0.501-18.064,3.641c-0.377-0.235-0.749-0.483-1.144-0.695
		c-5.34-2.845-11.886-2.917-18.647,0.012c-10.649,4.603-19.828,15.891-19.447,26.237C58.199,72.331,44.608,69.696,31.301,77.252z
		 M163.371,66.543c0.474-0.142,0.951-0.253,1.424-0.361c0.576,1.293,0.845,2.513,0.57,3.491c-0.112,0.402-0.452,1.616-3.326,2.276
		c-1.715,0.4-3.029,0.357-3.192-0.099C158.434,70.7,160.272,67.52,163.371,66.543z M135.507,56.564c0.373-0.32,0.75-0.612,1.14-0.88
		c1.404,1.697,2.377,3.74,2.67,6.181c0.21,2.746-1.633,6.08-3.881,7.01c-0.46,0.192-1.874,0.773-4.006-0.973
		c-0.767-0.645-1.144-1.451-1.164-2.458C130.219,62.379,133.382,58.447,135.507,56.564z M101.287,58.436
		c0.664-1.79,1.707-3.299,3.023-4.553c0.625,0.606,1.241,1.272,1.833,2.054c2.548,3.492,2.653,6.828,0.28,8.926
		c-1.441,1.272-3.548,1.746-4.796,1.072C100.328,65.24,99.553,62.912,101.287,58.436z"/>
	<path style="fill:#FFFFFF;" d="M108.679,89.673c-5.222-4.547-13.684-4.547-18.901,0c-5.225,4.544-5.223,11.915,0,16.46
		c5.218,4.546,13.68,4.55,18.901,0C113.9,101.588,113.9,94.217,108.679,89.673z M108.538,98.749
		c-0.231,0.812-1.173,1.301-2.105,1.101c-0.93-0.196-1.503-1.02-1.28-1.831c0.132-0.494,1.179-4.862-3.751-6.579
		c-0.891-0.312-1.33-1.196-0.967-1.977c0.357-0.775,1.369-1.153,2.262-0.843C108.99,90.811,109.266,96.205,108.538,98.749z"/>
	<path style="fill:#FFFFFF;" d="M138.064,104.881c-8.515-7.412-22.309-7.412-30.824,0c-8.509,7.412-8.509,19.428,0,26.839
		c8.515,7.41,22.309,7.41,30.824,0C146.573,124.311,146.573,112.293,138.064,104.881z M139.53,121.281
		c-0.08,0.837-0.924,1.456-1.884,1.385c-0.953-0.068-1.672-0.802-1.592-1.637c0.01-0.12,1.061-12.311-6.855-13.565
		c-0.947-0.148-1.577-0.94-1.404-1.763c0.171-0.824,1.08-1.371,2.025-1.224C140.843,106.223,139.588,120.668,139.53,121.281z"/>
	<path style="fill:#FFFFFF;" d="M172.992,131.002c-9.873-8.594-25.884-8.594-35.753,0c-9.87,8.6-9.87,22.54,0,31.138
		c9.87,8.599,25.88,8.599,35.753,0C182.862,153.542,182.862,139.602,172.992,131.002z M174.626,151.128
		c-0.956-0.102-1.634-0.859-1.519-1.69c0.018-0.086,1.122-8.428-3.748-13.719c-2.311-2.503-5.652-3.959-9.945-4.322
		c-0.957-0.083-1.654-0.825-1.563-1.66c0.094-0.833,0.945-1.443,1.905-1.359c5.27,0.445,9.421,2.284,12.338,5.46
		c5.788,6.301,4.534,15.583,4.475,15.973C176.453,150.641,175.581,151.231,174.626,151.128z"/>
	<path style="fill:#FFFFFF;" d="M202.785,161.243c-8.511-7.41-22.311-7.41-30.821,0c-8.511,7.415-8.511,19.43,0,26.841
		c8.513,7.414,22.311,7.414,30.821,0C211.298,180.673,211.298,168.658,202.785,161.243z M202.1,182.917
		c-0.895-0.307-1.338-1.185-0.988-1.967c0.243-0.534,5.738-13.135-6.483-17.789c-0.882-0.338-1.281-1.234-0.896-2.002
		c0.385-0.767,1.408-1.118,2.294-0.78c12.25,4.668,10.806,16.227,8.33,21.686C204.005,182.844,202.995,183.224,202.1,182.917z"/>
	<path style="fill:#FFFFFF;" d="M224.358,187.548c-6.128-5.338-16.062-5.338-22.19,0c-6.128,5.334-6.128,13.989,0,19.327
		c6.128,5.334,16.062,5.334,22.19-0.004C230.486,201.537,230.486,192.882,224.358,187.548z M223.642,203.09
		c-0.926-0.217-1.48-1.048-1.232-1.854c0.106-0.353,2.547-8.676-4.695-11.511c-0.878-0.346-1.271-1.244-0.876-2.006
		c0.393-0.767,1.43-1.112,2.305-0.767c7.966,3.126,7.823,11.222,6.636,15.066C225.529,202.828,224.576,203.304,223.642,203.09z"/>
</g>
</svg>
