<?xml version="1.0" encoding="iso-8859-1"?>
<!-- Generator: Adobe Illustrator 30.0.0, SVG Export Plug-In . SVG Version: 9.03 Build 0)  -->
<svg version="1.1" id="Layer_1" xmlns="http://www.w3.org/2000/svg" xmlns:xlink="http://www.w3.org/1999/xlink" x="0px" y="0px"
	 viewBox="0 0 288 288" style="enable-background:new 0 0 288 288;" xml:space="preserve">
<path style="fill:#FFFFFF;" d="M143.341,289.682C62.648,289.682-3,224.033-3,143.341S62.648-3,143.341-3
	s146.341,65.648,146.341,146.341S224.033,289.682,143.341,289.682z M143.341,3C65.956,3,3,65.956,3,143.341
	c0,77.384,62.956,140.341,140.341,140.341c77.384,0,140.341-62.957,140.341-140.341C283.682,65.956,220.725,3,143.341,3z"/>
<path style="fill:#FFFFFF;" d="M276.749,136.731c-0.728-0.921-17.997-22.651-36.188-27.315c-16.049-4.114-34.285-0.689-38.627,0.242
	c-4.126-2.223-22.247-11.755-32.749-13.45c-9.367-1.515-18.33-1.335-21.587-1.2c-3.059-3.669-14.1-16.498-22.955-21.657
	c-7.322-4.265-15.145-4.95-21.43-5.501c-2.608-0.23-4.861-0.428-6.548-0.844c-4.027-0.997-18.216-0.447-24.526-16.958l-2.111,1.155
	c0.196,0.191,7.936,24.935,15.356,38.639c10.465,19.327,35.241,40.057,42.637,45.539c7.395,5.484,25.047,17.102,35.788,20.953
	c10.741,3.851,31.651,7.181,44.23,6.505c12.58-0.673,0.434-0.093,0.434-0.093c0.149-0.027,15.134-3.274,33.184-7.782
	c16.779-4.188,31.282-12.687,34.02-14.349l2.766-1.736L276.749,136.731z M113.851,107.868c-8.412-10.674-10.184-23.302-3.955-28.213
	c6.223-4.905,18.4-1.277,25.258,12.113c11.893,9.921,11.43,21.634,5.207,26.541C134.132,123.217,122.267,118.541,113.851,107.868z
	 M164.318,144.057c-12.645-2.602-21.382-12.086-19.511-21.183c1.869-9.097,11.751-10.699,24.893-7.584
	c15.696,1.653,22.774,7.907,20.903,17.002C188.734,141.388,176.966,146.655,164.318,144.057z M243.513,127.659
	c1.107,7.849-9.088,15.778-22.769,17.708c-13.677,1.929-23.522-3.311-24.628-11.16c-1.106-7.851,6.988-17.001,21.061-15.12
	C230.949,114.935,242.406,119.811,243.513,127.659z"/>
<path style="fill:#FFFFFF;" d="M167.822,249.571c0.078-1.174,1.839-28.874-8.531-44.53c-9.146-13.816-24.971-23.503-28.816-25.725
	c-1.567-4.415-8.62-23.638-15.273-31.938c-5.933-7.405-12.706-13.28-15.213-15.366c0.192-4.772,0.604-21.693-2.505-31.459
	c-2.572-8.073-7.917-13.828-12.209-18.453c-1.78-1.919-3.322-3.574-4.293-5.016c-2.318-3.44-5.413-19.629-6.821-29.025l-4.89,0.511
	c0.018,0.274,1.529,27.407-8.63,39.351c-14.24,16.742-2.769,59.035-2.246,60.914c0,0,6.928,29.092,12.5,39.539
	c5.573,10.447,21.599,28.311,28.447,34.487c6.848,6.177,0.385,0.223,0.385,0.223c0.131,0.079,13.425,7.721,29.838,16.479
	c15.254,8.144,31.711,11.566,34.857,12.168l3.214,0.566L167.822,249.571z M66.331,118.925c0.917-13.559,8.069-24.116,15.981-23.582
	c7.909,0.534,14.509,11.391,10.618,25.923c2.171,15.335-6.028,23.714-13.934,23.18C71.083,143.912,65.414,132.485,66.331,118.925z
	 M79.504,179.613c-7.638-10.411-7.759-23.304-0.271-28.798c7.487-5.495,15.893-0.056,23.551,11.066
	c10.538,11.752,11.595,21.135,4.106,26.628C99.404,194.006,87.144,190.021,79.504,179.613z M149.25,220.552
	c-4.442,6.566-17.324,5.612-28.766-2.132c-11.442-7.738-15.229-18.227-10.786-24.792c4.443-6.565,16.584-7.926,25.763,2.905
	C148.463,202.689,153.691,213.988,149.25,220.552z"/>
</svg>
