<?xml version="1.0" encoding="UTF-8"?><svg id="Layer_1" xmlns="http://www.w3.org/2000/svg" viewBox="0 0 264.75 265.58"><defs><style>.cls-1{fill:#fff;}</style></defs><path class="cls-1" d="M142.08,10.66c0,5.89-4.78,10.66-10.66,10.66s-10.66-4.77-10.66-10.66,4.78-10.66,10.66-10.66,10.66,4.77,10.66,10.66Z"/><path class="cls-1" d="M142.08,38.94c0,5.89-4.78,10.66-10.66,10.66s-10.66-4.77-10.66-10.66,4.78-10.66,10.66-10.66,10.66,4.77,10.66,10.66Z"/><path class="cls-1" d="M142.08,68.16c0,5.89-4.78,10.66-10.66,10.66s-10.66-4.78-10.66-10.66,4.78-10.66,10.66-10.66,10.66,4.77,10.66,10.66Z"/><path class="cls-1" d="M118.6,86.87c0,5.89-4.78,10.66-10.66,10.66s-10.66-4.77-10.66-10.66,4.78-10.66,10.66-10.66,10.66,4.77,10.66,10.66Z"/><path class="cls-1" d="M88.16,115.81c0,5.89-4.78,10.66-10.66,10.66s-10.66-4.77-10.66-10.66,4.78-10.66,10.66-10.66,10.66,4.77,10.66,10.66Z"/><path class="cls-1" d="M54.24,136.77c0,5.89-4.78,10.66-10.66,10.66s-10.66-4.77-10.66-10.66,4.78-10.66,10.66-10.66,10.66,4.77,10.66,10.66Z"/><path class="cls-1" d="M117.6,112.38c0,5.89-4.78,10.66-10.66,10.66s-10.66-4.77-10.66-10.66,4.78-10.66,10.66-10.66,10.66,4.77,10.66,10.66Z"/><path class="cls-1" d="M114.11,138.37c0,5.89-4.78,10.66-10.66,10.66s-10.66-4.77-10.66-10.66,4.78-10.66,10.66-10.66,10.66,4.77,10.66,10.66Z"/><path class="cls-1" d="M88.17,144.36c0,5.89-4.78,10.66-10.66,10.66s-10.66-4.77-10.66-10.66,4.78-10.66,10.66-10.66,10.66,4.77,10.66,10.66Z"/><path class="cls-1" d="M55.25,170.8c0,5.89-4.78,10.66-10.66,10.66s-10.66-4.77-10.66-10.66,4.78-10.66,10.66-10.66,10.66,4.77,10.66,10.66Z"/><path class="cls-1" d="M21.33,157.33c0,5.89-4.78,10.66-10.66,10.66s-10.66-4.77-10.66-10.66,4.78-10.66,10.66-10.66,10.66,4.77,10.66,10.66Z"/><path class="cls-1" d="M114.11,163.31c0,5.89-4.78,10.66-10.66,10.66s-10.66-4.77-10.66-10.66,4.78-10.66,10.66-10.66,10.66,4.77,10.66,10.66Z"/><path class="cls-1" d="M88.17,174.79c0,5.89-4.78,10.66-10.66,10.66s-10.66-4.77-10.66-10.66,4.78-10.66,10.66-10.66,10.66,4.77,10.66,10.66Z"/><path class="cls-1" d="M54.75,204.72c0,5.89-4.78,10.66-10.66,10.66s-10.66-4.77-10.66-10.66,4.78-10.66,10.66-10.66,10.66,4.77,10.66,10.66Z"/><path class="cls-1" d="M114.11,192.25c0,5.89-4.78,10.66-10.66,10.66s-10.66-4.77-10.66-10.66,4.78-10.66,10.66-10.66,10.66,4.77,10.66,10.66Z"/><path class="cls-1" d="M89.17,204.22c0,5.89-4.78,10.66-10.66,10.66s-10.66-4.77-10.66-10.66,4.78-10.66,10.66-10.66,10.66,4.77,10.66,10.66Z"/><path class="cls-1" d="M114.11,216.69c0,5.89-4.78,10.66-10.66,10.66s-10.66-4.77-10.66-10.66,4.78-10.66,10.66-10.66,10.66,4.77,10.66,10.66Z"/><path class="cls-1" d="M114.11,240.63c0,5.89-4.78,10.66-10.66,10.66s-10.66-4.77-10.66-10.66,4.78-10.66,10.66-10.66,10.66,4.77,10.66,10.66Z"/><path class="cls-1" d="M88.67,234.15c0,5.89-4.78,10.66-10.66,10.66s-10.66-4.77-10.66-10.66,4.78-10.66,10.66-10.66,10.66,4.77,10.66,10.66Z"/><path class="cls-1" d="M146.16,86.87c0,5.89,4.78,10.66,10.66,10.66s10.66-4.77,10.66-10.66-4.78-10.66-10.66-10.66-10.66,4.77-10.66,10.66Z"/><path class="cls-1" d="M176.59,115.81c0,5.89,4.78,10.66,10.66,10.66s10.66-4.77,10.66-10.66-4.78-10.66-10.66-10.66-10.66,4.77-10.66,10.66Z"/><path class="cls-1" d="M210.51,136.77c0,5.89,4.78,10.66,10.66,10.66s10.66-4.77,10.66-10.66-4.78-10.66-10.66-10.66-10.66,4.77-10.66,10.66Z"/><path class="cls-1" d="M147.15,112.38c0,5.89,4.78,10.66,10.66,10.66s10.66-4.77,10.66-10.66-4.78-10.66-10.66-10.66-10.66,4.77-10.66,10.66Z"/><circle class="cls-1" cx="161.31" cy="138.37" r="10.66" transform="translate(-.88 1.04) rotate(-.37)"/><path class="cls-1" d="M176.58,144.36c0,5.89,4.78,10.66,10.66,10.66s10.66-4.77,10.66-10.66-4.78-10.66-10.66-10.66-10.66,4.77-10.66,10.66Z"/><path class="cls-1" d="M209.51,170.8c0,5.89,4.78,10.66,10.66,10.66s10.66-4.77,10.66-10.66-4.78-10.66-10.66-10.66-10.66,4.77-10.66,10.66Z"/><path class="cls-1" d="M243.42,157.33c0,5.89,4.78,10.66,10.67,10.66s10.66-4.77,10.66-10.66-4.78-10.66-10.66-10.66-10.67,4.77-10.67,10.66Z"/><circle class="cls-1" cx="161.31" cy="163.31" r="10.66" transform="translate(-1.04 1.04) rotate(-.37)"/><path class="cls-1" d="M176.58,174.79c0,5.89,4.78,10.66,10.66,10.66s10.66-4.77,10.66-10.66-4.78-10.66-10.66-10.66-10.66,4.77-10.66,10.66Z"/><path class="cls-1" d="M210,204.72c0,5.89,4.78,10.66,10.67,10.66s10.66-4.77,10.66-10.66-4.78-10.66-10.66-10.66-10.67,4.77-10.67,10.66Z"/><circle class="cls-1" cx="161.31" cy="192.25" r="10.66"/><circle class="cls-1" cx="186.25" cy="204.22" r="10.66"/><path class="cls-1" d="M150.64,216.69c0,5.89,4.78,10.66,10.66,10.66s10.66-4.77,10.66-10.66-4.78-10.66-10.66-10.66-10.66,4.77-10.66,10.66Z"/><circle class="cls-1" cx="161.31" cy="240.63" r="10.66"/><path class="cls-1" d="M176.08,234.15c0,5.89,4.78,10.66,10.67,10.66s10.66-4.77,10.66-10.66-4.78-10.66-10.66-10.66-10.67,4.77-10.67,10.66Z"/><path class="cls-1" d="M142.08,97.38c0,5.89-4.78,10.66-10.66,10.66s-10.66-4.77-10.66-10.66,4.78-10.66,10.66-10.66,10.66,4.78,10.66,10.66Z"/><path class="cls-1" d="M142.08,123.77c0,5.89-4.78,10.66-10.66,10.66s-10.66-4.77-10.66-10.66,4.78-10.66,10.66-10.66,10.66,4.77,10.66,10.66Z"/><path class="cls-1" d="M142.08,150.16c0,5.89-4.78,10.66-10.66,10.66s-10.66-4.77-10.66-10.66,4.78-10.67,10.66-10.67,10.66,4.77,10.66,10.67Z"/><path class="cls-1" d="M142.08,177.6c0,5.89-4.78,10.66-10.66,10.66s-10.66-4.77-10.66-10.66,4.78-10.66,10.66-10.66,10.66,4.77,10.66,10.66Z"/><path class="cls-1" d="M142.08,204.53c0,5.89-4.78,10.66-10.66,10.66s-10.66-4.77-10.66-10.66,4.78-10.66,10.66-10.66,10.66,4.77,10.66,10.66Z"/><path class="cls-1" d="M142.08,230.47c0,5.89-4.78,10.66-10.66,10.66s-10.66-4.77-10.66-10.66,4.78-10.66,10.66-10.66,10.66,4.77,10.66,10.66Z"/><path class="cls-1" d="M142.08,254.92c0,5.89-4.78,10.66-10.66,10.66s-10.66-4.77-10.66-10.66,4.78-10.66,10.66-10.66,10.66,4.77,10.66,10.66Z"/></svg>