<?xml version="1.0" encoding="iso-8859-1"?>
<!-- Generator: Adobe Illustrator 30.0.0, SVG Export Plug-In . SVG Version: 9.03 Build 0)  -->
<svg version="1.1" id="Layer_1" xmlns="http://www.w3.org/2000/svg" xmlns:xlink="http://www.w3.org/1999/xlink" x="0px" y="0px"
	 viewBox="0 0 288 288" style="enable-background:new 0 0 288 288;" xml:space="preserve">
<path style="fill:#FFFFFF;" d="M143.841,288.204C62.873,288.204-3,222.332-3,141.363C-3,60.395,62.873-5.478,143.841-5.478
	c80.969,0,146.841,65.873,146.841,146.841C290.682,222.332,224.81,288.204,143.841,288.204z M143.841,0.522
	C66.181,0.522,3,63.704,3,141.363c0,77.66,63.181,140.841,140.841,140.841c77.66,0,140.841-63.181,140.841-140.841
	C284.682,63.704,221.501,0.522,143.841,0.522z"/>
<g>
	<path style="fill:#FFFFFF;" d="M247.063,70.403c-0.132-0.899-0.271-1.83-0.409-2.802c0,0-0.012-0.082-0.018-0.126
		c-0.43-2.798-1.942-5.121-4.377-6.727c-2.177-1.435-4.996-2.202-8.379-2.278c-0.194-0.004-0.385-0.008-0.582-0.008
		c-2.595,0-5.508,0.387-8.657,1.148c-6.774,1.635-13.643,4.608-20.407,8.847c-5.575,3.489-9.475,7.501-13.251,11.379
		c-3.169,3.258-6.451,6.629-10.888,9.86c-0.585,0.419-1.132,0.788-1.623,1.099l-4.157,2.622c-0.094,0.05-0.188,0.105-0.28,0.155
		c-0.153,0.087-1.547-0.358-3.169-0.8c-1.01-0.278-2.056-0.505-3.13-0.684c-1.897-0.318-3.892-0.479-5.921-0.479
		c-1.157,0-2.344,0.052-3.524,0.157c-3.227,0.285-6.458,0.953-9.607,1.98c-3.262,1.068-6.367,2.505-9.229,4.274
		c0,0-44.884,27.727-44.958,27.773c-4.431,2.746-2.272,9.633-1.206,13.567c1.738,6.404,3.136,12.829,5.713,18.98
		c4.289,10.239,12.012,20.681,22.954,31.03c2.666,2.522,5.926,5.101,9.89,5.101c5.2,0,9.853-4.912,14.192-7.291
		c5.629-3.084,11.33-6.041,16.732-9.515c14.856-9.554,24.041-18.331,27.309-26.082c4.977-11.83,4.779-21.134,2.276-34.944
		c-0.302-1.654,0.613-3.684,2.089-4.487c4.872-2.651,10.923-5.404,16.556-6.373c10.728-1.849,20.754-2.952,29.315-10.81
		c0,0,0.056-0.05,0.075-0.066c5.444-5.019,7.018-7.004,7.53-12.918C248.246,78.277,247.698,74.628,247.063,70.403z M222.657,88.906
		c-12.68,6.532-26.305,10.884-38.363,18.633c-0.122,0.076-0.235,0.147-0.326,0.206c-0.181,0.117,0.229,1.457,0.774,3.049
		c0.684,1.994,1.4,4.626,1.206,6.493c-0.589,5.622-4.373,10.393-8.778,13.87c-1.321,1.041-3.612,2.528-5.016,3.451
		c-8.137,5.35-33.467,22.006-41.605,27.354c-1.406,0.924-2.052,2.943-1.451,4.515c1.051,2.731,2.455,6.403,3.649,9.588
		c1.132,3.027,2.777,6.556,2.522,9.858c-0.128,1.686-0.684,2.645-1.48,3.098c-2.213,1.25-6.301-1.424-8.336-3.35
		c-10.421-9.858-17.742-19.715-21.755-29.294c-3.27-7.808-5.173-18.041-5.967-23.041c-0.266-1.66,0.718-3.726,2.149-4.614
		l42.373-26.175c4.643-2.868,9.961-4.717,15.38-5.393c2.826-0.352,5.682-0.386,8.506,0.021c0.861,0.124,3.017,0.759,4.955,1.419
		c1.592,0.544,3.519,0.652,4.342,0.132c0.747-0.472,1.497-0.943,1.497-0.943c10.34-5.894,17.742-15.416,27.047-22.641
		c6.348-4.932,14.102-8.474,21.911-10.359c2.564-0.62,5.218-1.051,7.864-0.992c3.258,0.074,7.54,1.14,7.674,5.097
		C241.731,77.735,229.323,85.471,222.657,88.906z M173.035,110.607l-4.208-3.722c-1.207-1.064-2.712-1.845-4.394-2.35
		c-5.672-1.691-12.125-0.282-17.068,2.802l-16.839,10.507l-24.316,15.245c-2.185,1.367-2.486,2.497-2.247,4.641
		c0.177,1.609,0.371,3.311,0.416,3.6c0.713,4.396,2.297,8.971,4.018,13.082c3.684,8.792,10.793,18.324,20.556,27.562
		c0.299,0.279,0.575,0.532,0.819,0.747c-0.951-2.69-5.856-15.403-8.078-21.159c-0.604-1.567,0.049-3.582,1.459-4.497l45.657-29.645
		c1.863-1.21,3.374-2.602,4.517-4.074c2.879-3.723,3.641-8.938,0.023-12.443C173.245,110.806,173.145,110.705,173.035,110.607z
		 M107.124,188.352l-1.008-0.809c0.076-0.288,0.12-0.587,0.12-0.898c0-1.923-1.561-3.483-3.485-3.483
		c-0.575,0-1.117,0.14-1.592,0.387l-0.718-0.577c0.017-0.136,0.027-0.271,0.027-0.41c0-1.926-1.561-3.485-3.485-3.485
		c-0.4,0-0.779,0.07-1.138,0.194l-0.676-0.548c0.004-0.083,0.012-0.163,0.012-0.248c0-1.925-1.562-3.483-3.486-3.483
		c-0.279,0-0.549,0.036-0.809,0.097c0.132-0.369,0.209-0.763,0.209-1.177c0-1.926-1.561-3.485-3.485-3.485
		c-0.734,0-1.416,0.228-1.977,0.615l-0.802-0.645c0.01-0.108,0.016-0.219,0.016-0.334c0-1.922-1.559-3.485-3.483-3.485
		c-0.371,0-0.73,0.062-1.066,0.169l-0.639-0.515c0.091-0.311,0.142-0.637,0.142-0.977c0-1.921-1.56-3.483-3.486-3.483
		c-1.253,0-2.349,0.666-2.961,1.658c-0.583-0.433-1.301-0.695-2.084-0.695c-1.926,0-3.485,1.563-3.485,3.485
		c0,0.443,0.085,0.864,0.239,1.253c-0.344-0.111-0.703-0.173-1.082-0.173c-1.922,0-3.484,1.561-3.484,3.485
		c0,0.222,0.023,0.434,0.064,0.645l-0.016,0.012c-0.538-0.336-1.173-0.536-1.849-0.536c-1.544,0-2.851,1.004-3.309,2.393
		c-0.514-0.297-1.104-0.47-1.74-0.47c-1.924,0-3.485,1.559-3.485,3.483c0,0.431,0.083,0.843,0.223,1.223
		c-0.774,0.396-1.384,1.076-1.689,1.905c-0.462-0.232-0.983-0.363-1.538-0.363c-1.924,0-3.483,1.559-3.483,3.485
		c0,0.004,0.002,0.008,0.002,0.012c-1.14,0.575-1.928,1.75-1.928,3.111c0,0.254,0.031,0.501,0.083,0.737l-0.884,0.707
		c-0.557-0.377-1.233-0.602-1.961-0.602c-1.924,0-3.483,1.559-3.483,3.483c0,1.316,0.73,2.464,1.81,3.057
		c0.163,1.334,0.926,2.594,2.338,3.46c0.845,0.519,1.786,1.064,2.821,1.615c0,0.014-0.002,0.023-0.002,0.039
		c0,1.924,1.563,3.485,3.483,3.485c0.878,0,1.672-0.324,2.284-0.855c0.567,0.224,1.151,0.446,1.748,0.662
		c0.047,0.253,0.123,0.499,0.227,0.742c0.769,1.765,2.824,2.572,4.588,1.804c0.416-0.183,0.779-0.436,1.078-0.742
		c1.033,0.263,2.103,0.501,3.208,0.721c-0.078,0.6,0,1.232,0.258,1.823c0.769,1.766,2.823,2.569,4.588,1.804
		c1.132-0.497,1.87-1.521,2.049-2.658c0.582,0.049,1.173,0.094,1.771,0.129c0.002,0.001,0.002,0.001,0.002,0.005
		c0.769,1.764,2.826,2.571,4.588,1.803c0.814-0.355,1.418-0.982,1.763-1.729c0.991-0.031,1.959-0.085,2.914-0.161
		c-0.118,0.346-0.182,0.713-0.182,1.099c0,1.925,1.559,3.484,3.485,3.484c1.922,0,3.483-1.56,3.483-3.484
		c0-0.692-0.204-1.342-0.553-1.883c2.086-0.367,4.056-0.821,5.905-1.334c-0.625,0.551-1.025,1.355-1.025,2.254
		c0,1.66,1.346,3.006,3.003,3.006c1.66,0,3.006-1.346,3.006-3.006c0-1.519-1.13-2.773-2.594-2.973
		c2.545-0.819,4.835-1.744,6.854-2.686c0.935,1.309,2.689,1.831,4.223,1.163c1.73-0.755,2.538-2.753,1.835-4.495
		C110.027,194.131,109.815,190.559,107.124,188.352z M120.058,197.82c-2.062,0-3.732,1.348-3.732,3.006
		c0,1.656,1.67,3.004,3.732,3.004c2.06,0,3.73-1.348,3.73-3.004C123.788,199.168,122.118,197.82,120.058,197.82z M39.878,198.486
		c-1.997,0.474-3.303,2.165-2.92,3.78c0.384,1.614,2.312,2.538,4.307,2.062c1.998-0.47,3.303-2.167,2.919-3.778
		C43.801,198.935,41.871,198.011,39.878,198.486z M38.962,206.046c-1.851,0.886-2.771,2.817-2.057,4.314
		c0.717,1.497,2.798,1.99,4.649,1.106c1.852-0.887,2.774-2.819,2.056-4.314C42.897,205.653,40.812,205.16,38.962,206.046z
		 M49.397,203.294c-1.922,0-3.482,1.896-3.482,4.233c0,2.336,1.56,4.233,3.482,4.233c1.922,0,3.481-1.897,3.481-4.233
		C52.878,205.189,51.319,203.294,49.397,203.294z M109.572,199.616c-1.408,0.88-1.684,2.978-0.615,4.689
		c1.066,1.707,3.072,2.383,4.481,1.503c1.406-0.877,1.682-2.975,0.612-4.686C112.982,199.415,110.978,198.737,109.572,199.616z
		 M117.658,193.923c-0.563-1.623-2.617-2.382-4.6-1.694c-1.977,0.686-3.127,2.557-2.563,4.179c0.561,1.621,2.62,2.378,4.6,1.692
		C117.073,197.414,118.219,195.543,117.658,193.923z M38.861,195.298c0-1.658-1.701-3.004-3.804-3.004
		c-2.099,0-3.802,1.346-3.802,3.004c0,1.66,1.703,3.004,3.802,3.004C37.16,198.302,38.861,196.958,38.861,195.298z M30.059,198.622
		c-1.775-0.452-3.507,0.328-3.868,1.742c-0.361,1.415,0.785,2.93,2.562,3.385c1.771,0.452,3.503-0.326,3.864-1.74
		C32.981,200.591,31.831,199.081,30.059,198.622z M77.152,208.254c-1.949,0.034-3.311,1.44-3.048,3.138
		c0.268,1.695,2.064,3.043,4.01,3.006c1.952-0.039,3.312-1.443,3.046-3.14C80.895,209.561,79.1,208.215,77.152,208.254z
		 M69.007,207.844c-1.699,0.424-2.996,2.458-2.899,4.552c0.099,2.091,1.553,3.448,3.252,3.029c1.703-0.424,3-2.457,2.899-4.55
		C72.162,208.783,70.706,207.427,69.007,207.844z M56.916,205.28c-1.781,0.664-2.59,2.438-1.818,3.956
		c0.779,1.521,2.847,2.217,4.631,1.551c1.777-0.662,2.59-2.433,1.817-3.953C60.768,205.314,58.696,204.616,56.916,205.28z
		 M103.893,202.355c-1.857-0.984-3.994-0.593-4.767,0.874c-0.778,1.468,0.099,3.452,1.956,4.435
		c1.858,0.982,3.992,0.591,4.767-0.872C106.625,205.323,105.747,203.335,103.893,202.355z M89.531,207.9
		c-1.658,0-3.004,1.691-3.004,3.78c0,2.09,1.346,3.78,3.004,3.78c1.662,0,3.006-1.69,3.006-3.78
		C92.537,209.592,91.193,207.9,89.531,207.9z"/>
</g>
</svg>
