<?xml version="1.0" encoding="UTF-8"?><svg width="100" height="100" id="Layer_1" xmlns="http://www.w3.org/2000/svg" viewBox="0 0 221.89 157.04"><defs><style>.cls-1{fill:#fff;}</style></defs><path class="cls-1" d="M220.94,11.94c-.13-.9-.27-1.83-.41-2.8,0,0-.01-.08-.02-.13-.43-2.8-1.94-5.12-4.38-6.73-2.18-1.43-5-2.2-8.38-2.28-.19,0-.38,0-.58,0-2.59,0-5.51.39-8.66,1.15-6.77,1.63-13.64,4.61-20.41,8.85-5.58,3.49-9.47,7.5-13.25,11.38-3.17,3.26-6.45,6.63-10.89,9.86-.58.42-1.13.79-1.62,1.1l-4.16,2.62c-.09.05-.19.1-.28.16-.15.09-1.55-.36-3.17-.8-1.01-.28-2.06-.5-3.13-.68-1.9-.32-3.89-.48-5.92-.48-1.16,0-2.34.05-3.52.16-3.23.29-6.46.95-9.61,1.98-3.26,1.07-6.37,2.5-9.23,4.27,0,0-44.88,27.73-44.96,27.77-4.43,2.75-2.27,9.63-1.21,13.57,1.74,6.4,3.14,12.83,5.71,18.98,4.29,10.24,12.01,20.68,22.95,31.03,2.67,2.52,5.93,5.1,9.89,5.1,5.2,0,9.85-4.91,14.19-7.29,5.63-3.08,11.33-6.04,16.73-9.51,14.86-9.55,24.04-18.33,27.31-26.08,4.98-11.83,4.78-21.13,2.28-34.94-.3-1.65.61-3.68,2.09-4.49,4.87-2.65,10.92-5.4,16.56-6.37,10.73-1.85,20.75-2.95,29.32-10.81,0,0,.06-.05.08-.07,5.44-5.02,7.02-7,7.53-12.92.32-3.71-.22-7.36-.86-11.58ZM196.53,30.44c-12.68,6.53-26.3,10.88-38.36,18.63-.12.08-.24.15-.33.21-.18.12.23,1.46.77,3.05.68,1.99,1.4,4.63,1.21,6.49-.59,5.62-4.37,10.39-8.78,13.87-1.32,1.04-3.61,2.53-5.02,3.45-8.14,5.35-33.47,22.01-41.6,27.35-1.41.92-2.05,2.94-1.45,4.51,1.05,2.73,2.45,6.4,3.65,9.59,1.13,3.03,2.78,6.56,2.52,9.86-.13,1.69-.68,2.64-1.48,3.1-2.21,1.25-6.3-1.42-8.34-3.35-10.42-9.86-17.74-19.71-21.76-29.29-3.27-7.81-5.17-18.04-5.97-23.04-.27-1.66.72-3.73,2.15-4.61l42.37-26.17c4.64-2.87,9.96-4.72,15.38-5.39,2.83-.35,5.68-.39,8.51.02.86.12,3.02.76,4.96,1.42,1.59.54,3.52.65,4.34.13.75-.47,1.5-.94,1.5-.94,10.34-5.89,17.74-15.42,27.05-22.64,6.35-4.93,14.1-8.47,21.91-10.36,2.56-.62,5.22-1.05,7.86-.99,3.26.07,7.54,1.14,7.67,5.1.3,8.85-12.11,16.58-18.77,20.02ZM146.91,52.14l-4.21-3.72c-1.21-1.06-2.71-1.84-4.39-2.35-5.67-1.69-12.12-.28-17.07,2.8l-16.84,10.51-24.32,15.24c-2.18,1.37-2.49,2.5-2.25,4.64.18,1.61.37,3.31.42,3.6.71,4.4,2.3,8.97,4.02,13.08,3.68,8.79,10.79,18.32,20.56,27.56.3.28.57.53.82.75-.95-2.69-5.86-15.4-8.08-21.16-.6-1.57.05-3.58,1.46-4.5l45.66-29.65c1.86-1.21,3.37-2.6,4.52-4.07,2.88-3.72,3.64-8.94.02-12.44-.1-.1-.2-.2-.31-.3ZM81,129.89l-1.01-.81c.08-.29.12-.59.12-.9,0-1.92-1.56-3.48-3.49-3.48-.57,0-1.12.14-1.59.39l-.72-.58c.02-.14.03-.27.03-.41,0-1.93-1.56-3.49-3.49-3.49-.4,0-.78.07-1.14.19l-.68-.55c0-.08.01-.16.01-.25,0-1.92-1.56-3.48-3.49-3.48-.28,0-.55.04-.81.1.13-.37.21-.76.21-1.18,0-1.93-1.56-3.49-3.49-3.49-.73,0-1.42.23-1.98.62l-.8-.64c0-.11.02-.22.02-.33,0-1.92-1.56-3.49-3.48-3.49-.37,0-.73.06-1.07.17l-.64-.51c.09-.31.14-.64.14-.98,0-1.92-1.56-3.48-3.49-3.48-1.25,0-2.35.67-2.96,1.66-.58-.43-1.3-.7-2.08-.7-1.93,0-3.49,1.56-3.49,3.49,0,.44.09.86.24,1.25-.34-.11-.7-.17-1.08-.17-1.92,0-3.48,1.56-3.48,3.49,0,.22.02.43.06.64h-.02c-.54-.32-1.17-.52-1.85-.52-1.54,0-2.85,1-3.31,2.39-.51-.3-1.1-.47-1.74-.47-1.92,0-3.49,1.56-3.49,3.48,0,.43.08.84.22,1.22-.77.4-1.38,1.08-1.69,1.91-.46-.23-.98-.36-1.54-.36-1.92,0-3.48,1.56-3.48,3.49,0,0,0,0,0,.01-1.14.58-1.93,1.75-1.93,3.11,0,.25.03.5.08.74l-.88.71c-.56-.38-1.23-.6-1.96-.6-1.92,0-3.48,1.56-3.48,3.48,0,1.32.73,2.46,1.81,3.06.16,1.33.93,2.59,2.34,3.46.84.52,1.79,1.06,2.82,1.62,0,.01,0,.02,0,.04,0,1.92,1.56,3.49,3.48,3.49.88,0,1.67-.32,2.28-.85.57.22,1.15.45,1.75.66.05.25.12.5.23.74.77,1.76,2.82,2.57,4.59,1.8.42-.18.78-.44,1.08-.74,1.03.26,2.1.5,3.21.72-.08.6,0,1.23.26,1.82.77,1.77,2.82,2.57,4.59,1.8,1.13-.5,1.87-1.52,2.05-2.66.58.05,1.17.09,1.77.13t0,0c.77,1.76,2.83,2.57,4.59,1.8.81-.36,1.42-.98,1.76-1.73.99-.03,1.96-.09,2.91-.16-.12.35-.18.71-.18,1.1,0,1.92,1.56,3.48,3.49,3.48s3.48-1.56,3.48-3.48c0-.69-.2-1.34-.55-1.88,2.09-.37,4.06-.82,5.9-1.33-.62.55-1.03,1.36-1.03,2.25,0,1.66,1.35,3.01,3,3.01s3.01-1.35,3.01-3.01c0-1.52-1.13-2.77-2.59-2.97,2.55-.82,4.84-1.74,6.85-2.69.94,1.31,2.69,1.83,4.22,1.16,1.73-.75,2.54-2.75,1.83-4.5,2.61-2.03,2.39-5.6-.3-7.81ZM93.93,139.36c-2.06,0-3.73,1.35-3.73,3.01s1.67,3,3.73,3,3.73-1.35,3.73-3-1.67-3.01-3.73-3.01ZM13.75,140.02c-2,.47-3.3,2.17-2.92,3.78.38,1.61,2.31,2.54,4.31,2.06,2-.47,3.3-2.17,2.92-3.78-.38-1.62-2.31-2.54-4.3-2.06ZM12.84,147.58c-1.85.89-2.77,2.82-2.06,4.31.72,1.5,2.8,1.99,4.65,1.11,1.85-.89,2.77-2.82,2.06-4.31-.71-1.5-2.8-1.99-4.65-1.11ZM23.27,144.83c-1.92,0-3.48,1.9-3.48,4.23s1.56,4.23,3.48,4.23,3.48-1.9,3.48-4.23-1.56-4.23-3.48-4.23ZM83.45,141.15c-1.41.88-1.68,2.98-.62,4.69,1.07,1.71,3.07,2.38,4.48,1.5,1.41-.88,1.68-2.97.61-4.69-1.07-1.71-3.07-2.39-4.48-1.51ZM91.53,135.46c-.56-1.62-2.62-2.38-4.6-1.69-1.98.69-3.13,2.56-2.56,4.18.56,1.62,2.62,2.38,4.6,1.69,1.98-.69,3.12-2.56,2.56-4.18ZM12.74,136.83c0-1.66-1.7-3-3.8-3s-3.8,1.35-3.8,3,1.7,3,3.8,3,3.8-1.34,3.8-3ZM3.93,140.16c-1.77-.45-3.51.33-3.87,1.74-.36,1.42.78,2.93,2.56,3.38,1.77.45,3.5-.33,3.86-1.74.36-1.42-.78-2.93-2.56-3.39ZM51.03,149.79c-1.95.03-3.31,1.44-3.05,3.14.27,1.7,2.06,3.04,4.01,3.01,1.95-.04,3.31-1.44,3.05-3.14-.27-1.7-2.06-3.04-4.01-3ZM42.88,149.38c-1.7.42-3,2.46-2.9,4.55.1,2.09,1.55,3.45,3.25,3.03,1.7-.42,3-2.46,2.9-4.55-.1-2.09-1.55-3.45-3.25-3.03ZM30.79,146.82c-1.78.66-2.59,2.44-1.82,3.96.78,1.52,2.85,2.22,4.63,1.55,1.78-.66,2.59-2.43,1.82-3.95-.78-1.52-2.85-2.22-4.63-1.55ZM77.77,143.89c-1.86-.98-3.99-.59-4.77.87-.78,1.47.1,3.45,1.96,4.43,1.86.98,3.99.59,4.77-.87.78-1.47-.1-3.46-1.96-4.44ZM63.41,149.44c-1.66,0-3,1.69-3,3.78s1.35,3.78,3,3.78,3.01-1.69,3.01-3.78-1.34-3.78-3.01-3.78Z"/></svg>