<?xml version="1.0" encoding="UTF-8"?><svg width="100" height="100" id="Layer_1" xmlns="http://www.w3.org/2000/svg" viewBox="0 0 176.92 233.69"><defs><style>.cls-1{stroke-width:5px;}.cls-1,.cls-2,.cls-3{fill:none;stroke:#fff;stroke-miterlimit:10;}.cls-2{stroke-width:9px;}.cls-3{stroke-width:9.52px;}.cls-4{fill:#fff;}</style></defs><path class="cls-2" d="M88.55,108.43l35.3-45.52h-.01c29.08-37.91-27.29-81.61-56.74-44.01h-.02s-16.63,21.43-16.63,21.43"/><path class="cls-4" d="M9.5,93.13l-1.97,2.54c-12.16,15.68-9.3,38.24,6.37,50.4,3.83,2.97,8.08,5.05,12.48,6.26"/><path class="cls-3" d="M74.9,63.63c-5.42-18.78-25.03-29.61-43.8-24.19C12.32,44.85,1.49,64.46,6.91,83.24c.04.14.1.26.14.4h-.02s12.97,44.97,12.97,44.97l13.56,46.99c5.42,18.77,25.03,29.6,43.8,24.19,18.78-5.42,29.6-25.03,24.19-43.8l-13.56-46.99-12.97-44.97h-.02c-.04-.13-.06-.27-.1-.4Z"/><path class="cls-4" d="M176.92,100.17c0-19.84-16.08-35.92-35.92-35.92s-35.92,16.08-35.92,35.92c0,.14.02.28.02.43h-.02v97.17c0,19.84,16.08,35.92,35.92,35.92s35.92-16.08,35.92-35.92v-97.17h-.02c0-.14.02-.28.02-.43ZM164.99,197.77c0,13.23-10.76,23.99-23.99,23.99s-23.99-10.76-23.99-23.99v-49.66h47.98v49.66Z"/><line class="cls-1" x1="18.32" y1="118.04" x2="84.78" y2="100.44"/><line class="cls-1" x1="21.57" y1="129.11" x2="88.04" y2="111.52"/></svg>