<?xml version="1.0" encoding="iso-8859-1"?>
<!-- Generator: Adobe Illustrator 30.0.0, SVG Export Plug-In . SVG Version: 9.03 Build 0)  -->
<svg version="1.1" id="Layer_1" xmlns="http://www.w3.org/2000/svg" xmlns:xlink="http://www.w3.org/1999/xlink" x="0px" y="0px"
	 viewBox="0 0 300 300" style="enable-background:new 0 0 300 300;" xml:space="preserve">
<g>
	<path style="fill:#FFFFFF;" d="M150,296.841C69.032,296.841,3.159,230.969,3.159,150C3.159,69.032,69.032,3.159,150,3.159
		c80.969,0,146.841,65.873,146.841,146.841C296.841,230.969,230.969,296.841,150,296.841z M150,9.159
		C72.34,9.159,9.159,72.34,9.159,150c0,77.66,63.181,140.841,140.841,140.841c77.66,0,140.841-63.181,140.841-140.841
		C290.841,72.34,227.66,9.159,150,9.159z"/>
	<path style="fill:none;stroke:#FFFFFF;stroke-width:9;stroke-miterlimit:10;" d="M141.092,139.267l35.302-45.524l-0.015-0.011
		c29.084-37.904-27.293-81.598-56.742-44.001l-0.015-0.012l-16.631,21.446"/>
	<path style="fill:#FFFFFF;" d="M62.041,123.972l-1.967,2.536c-12.157,15.677-9.304,38.241,6.373,50.398
		c3.834,2.973,8.079,5.048,12.483,6.258"/>
	<path style="fill:#FFFFFF;" d="M62.041,123.972"/>
	<path style="fill:none;stroke:#FFFFFF;stroke-width:9.5206;stroke-miterlimit:10;" d="M127.436,94.468
		c-5.417-18.777-25.026-29.605-43.802-24.188c-18.774,5.416-29.602,25.025-24.185,43.802c0.039,0.136,0.096,0.263,0.135,0.399
		l-0.019,0.005l12.973,44.968l13.557,46.991c5.416,18.774,25.026,29.603,43.799,24.187c18.776-5.417,29.604-25.026,24.187-43.801
		l-13.557-46.991l-12.973-44.968l-0.018,0.005C127.496,94.742,127.475,94.604,127.436,94.468z"/>
	<path style="fill:#FFFFFF;" d="M229.462,131.01c0-19.841-16.081-35.923-35.922-35.923c-19.838,0-35.92,16.082-35.92,35.923
		c0,0.144,0.02,0.284,0.02,0.427h-0.02v47.517v49.655c0,19.839,16.082,35.921,35.92,35.921c19.841,0,35.922-16.082,35.922-35.921
		v-49.655v-47.517h-0.019C229.444,131.294,229.462,131.154,229.462,131.01z M217.532,228.61c0,13.228-10.762,23.99-23.992,23.99
		c-13.228,0-23.989-10.763-23.989-23.99v-49.655h47.982V228.61z"/>
	
		<line style="fill:none;stroke:#FFFFFF;stroke-width:5;stroke-miterlimit:10;" x1="70.854" y1="148.877" x2="137.316" y2="131.284"/>
	
		<line style="fill:none;stroke:#FFFFFF;stroke-width:5;stroke-miterlimit:10;" x1="74.112" y1="159.954" x2="140.574" y2="142.361"/>
</g>
</svg>
